<?xml version="1.0" encoding="utf-8" standalone="no"?>
<!DOCTYPE svg PUBLIC "-//W3C//DTD SVG 1.1//EN"
  "http://www.w3.org/Graphics/SVG/1.1/DTD/svg11.dtd">
<svg xmlns:xlink="http://www.w3.org/1999/xlink" width="731.229375pt" height="604.99375pt" viewBox="0 0 731.229375 604.99375" xmlns="http://www.w3.org/2000/svg" version="1.1">
 <metadata>
  <rdf:RDF xmlns:dc="http://purl.org/dc/elements/1.1/" xmlns:cc="http://creativecommons.org/ns#" xmlns:rdf="http://www.w3.org/1999/02/22-rdf-syntax-ns#">
   <cc:Work>
    <dc:type rdf:resource="http://purl.org/dc/dcmitype/StillImage"/>
    <dc:date>2023-04-09T22:37:22.289612</dc:date>
    <dc:format>image/svg+xml</dc:format>
    <dc:creator>
     <cc:Agent>
      <dc:title>Matplotlib v3.7.1, https://matplotlib.org/</dc:title>
     </cc:Agent>
    </dc:creator>
   </cc:Work>
  </rdf:RDF>
 </metadata>
 <defs>
  <style type="text/css">*{stroke-linejoin: round; stroke-linecap: butt}</style>
 </defs>
 <g id="figure_1">
  <g id="patch_1">
   <path d="M 0 604.99375 
L 731.229375 604.99375 
L 731.229375 0 
L 0 0 
z
" style="fill: #ffffff"/>
  </g>
  <g id="axes_1">
   <g id="patch_2">
    <path d="M 166.029375 561.6 
L 724.029375 561.6 
L 724.029375 7.2 
L 166.029375 7.2 
z
" style="fill: #ffffff"/>
   </g>
   <g id="patch_3">
    <path d="M -172141.224618 549.442105 
L 698.665739 549.442105 
L 698.665739 527.557895 
L -172141.224618 527.557895 
z
" clip-path="url(#pbc62d934c5)" style="fill: #ff7f00; opacity: 0.9; stroke: #000000; stroke-width: 0.8; stroke-linejoin: miter"/>
   </g>
   <g id="patch_4">
    <path d="M -172141.224618 500.810526 
L 583.97037 500.810526 
L 583.97037 478.926316 
L -172141.224618 478.926316 
z
" clip-path="url(#pbc62d934c5)" style="fill: #ff7f00; opacity: 0.9; stroke: #000000; stroke-width: 0.8; stroke-linejoin: miter"/>
   </g>
   <g id="patch_5">
    <path d="M -172141.224618 452.178947 
L 493.493065 452.178947 
L 493.493065 430.294737 
L -172141.224618 430.294737 
z
" clip-path="url(#pbc62d934c5)" style="fill: #ff7f00; opacity: 0.9; stroke: #000000; stroke-width: 0.8; stroke-linejoin: miter"/>
   </g>
   <g id="patch_6">
    <path d="M -172141.224618 403.547368 
L 400.419265 403.547368 
L 400.419265 381.663158 
L -172141.224618 381.663158 
z
" clip-path="url(#pbc62d934c5)" style="fill: #ff7f00; opacity: 0.9; stroke: #000000; stroke-width: 0.8; stroke-linejoin: miter"/>
   </g>
   <g id="patch_7">
    <path d="M -172141.224618 354.915789 
L 391.935816 354.915789 
L 391.935816 333.031579 
L -172141.224618 333.031579 
z
" clip-path="url(#pbc62d934c5)" style="fill: #ff7f00; opacity: 0.9; stroke: #000000; stroke-width: 0.8; stroke-linejoin: miter"/>
   </g>
   <g id="patch_8">
    <path d="M -172141.224618 306.284211 
L 429.813585 306.284211 
L 429.813585 284.4 
L -172141.224618 284.4 
z
" clip-path="url(#pbc62d934c5)" style="fill: #ff7f00; opacity: 0.9; stroke: #000000; stroke-width: 0.8; stroke-linejoin: miter"/>
   </g>
   <g id="patch_9">
    <path d="M -172141.224618 257.652632 
L 351.862533 257.652632 
L 351.862533 235.768421 
L -172141.224618 235.768421 
z
" clip-path="url(#pbc62d934c5)" style="fill: #ff7f00; opacity: 0.9; stroke: #000000; stroke-width: 0.8; stroke-linejoin: miter"/>
   </g>
   <g id="patch_10">
    <path d="M -172141.224618 209.021053 
L 333.403541 209.021053 
L 333.403541 187.136842 
L -172141.224618 187.136842 
z
" clip-path="url(#pbc62d934c5)" style="fill: #ff7f00; opacity: 0.9; stroke: #000000; stroke-width: 0.8; stroke-linejoin: miter"/>
   </g>
   <g id="patch_11">
    <path d="M -172141.224618 160.389474 
L 278.471274 160.389474 
L 278.471274 138.505263 
L -172141.224618 138.505263 
z
" clip-path="url(#pbc62d934c5)" style="fill: #ff7f00; opacity: 0.9; stroke: #000000; stroke-width: 0.8; stroke-linejoin: miter"/>
   </g>
   <g id="patch_12">
    <path d="M -172141.224618 111.757895 
L 352.863415 111.757895 
L 352.863415 89.873684 
L -172141.224618 89.873684 
z
" clip-path="url(#pbc62d934c5)" style="fill: #ff7f00; opacity: 0.9; stroke: #000000; stroke-width: 0.8; stroke-linejoin: miter"/>
   </g>
   <g id="patch_13">
    <path d="M -172141.224618 63.126316 
L 258.791533 63.126316 
L 258.791533 41.242105 
L -172141.224618 41.242105 
z
" clip-path="url(#pbc62d934c5)" style="fill: #ff7f00; opacity: 0.9; stroke: #000000; stroke-width: 0.8; stroke-linejoin: miter"/>
   </g>
   <g id="patch_14">
    <path d="M -172141.224618 527.557895 
L 682.637556 527.557895 
L 682.637556 505.673684 
L -172141.224618 505.673684 
z
" clip-path="url(#pbc62d934c5)" style="fill: #6a3d9a; opacity: 0.9; stroke: #000000; stroke-width: 0.8; stroke-linejoin: miter"/>
   </g>
   <g id="patch_15">
    <path d="M -172141.224618 478.926316 
L 608.232075 478.926316 
L 608.232075 457.042105 
L -172141.224618 457.042105 
z
" clip-path="url(#pbc62d934c5)" style="fill: #6a3d9a; opacity: 0.9; stroke: #000000; stroke-width: 0.8; stroke-linejoin: miter"/>
   </g>
   <g id="patch_16">
    <path d="M -172141.224618 430.294737 
L 508.866517 430.294737 
L 508.866517 408.410526 
L -172141.224618 408.410526 
z
" clip-path="url(#pbc62d934c5)" style="fill: #6a3d9a; opacity: 0.9; stroke: #000000; stroke-width: 0.8; stroke-linejoin: miter"/>
   </g>
   <g id="patch_17">
    <path d="M -172141.224618 381.663158 
L 447.838867 381.663158 
L 447.838867 359.778947 
L -172141.224618 359.778947 
z
" clip-path="url(#pbc62d934c5)" style="fill: #6a3d9a; opacity: 0.9; stroke: #000000; stroke-width: 0.8; stroke-linejoin: miter"/>
   </g>
   <g id="patch_18">
    <path d="M -172141.224618 333.031579 
L 391.432532 333.031579 
L 391.432532 311.147368 
L -172141.224618 311.147368 
z
" clip-path="url(#pbc62d934c5)" style="fill: #6a3d9a; opacity: 0.9; stroke: #000000; stroke-width: 0.8; stroke-linejoin: miter"/>
   </g>
   <g id="patch_19">
    <path d="M -172141.224618 284.4 
L 471.662188 284.4 
L 471.662188 262.515789 
L -172141.224618 262.515789 
z
" clip-path="url(#pbc62d934c5)" style="fill: #6a3d9a; opacity: 0.9; stroke: #000000; stroke-width: 0.8; stroke-linejoin: miter"/>
   </g>
   <g id="patch_20">
    <path d="M -172141.224618 235.768421 
L 403.591983 235.768421 
L 403.591983 213.884211 
L -172141.224618 213.884211 
z
" clip-path="url(#pbc62d934c5)" style="fill: #6a3d9a; opacity: 0.9; stroke: #000000; stroke-width: 0.8; stroke-linejoin: miter"/>
   </g>
   <g id="patch_21">
    <path d="M -172141.224618 187.136842 
L 377.72655 187.136842 
L 377.72655 165.252632 
L -172141.224618 165.252632 
z
" clip-path="url(#pbc62d934c5)" style="fill: #6a3d9a; opacity: 0.9; stroke: #000000; stroke-width: 0.8; stroke-linejoin: miter"/>
   </g>
   <g id="patch_22">
    <path d="M -172141.224618 138.505263 
L 289.757927 138.505263 
L 289.757927 116.621053 
L -172141.224618 116.621053 
z
" clip-path="url(#pbc62d934c5)" style="fill: #6a3d9a; opacity: 0.9; stroke: #000000; stroke-width: 0.8; stroke-linejoin: miter"/>
   </g>
   <g id="patch_23">
    <path d="M -172141.224618 89.873684 
L 296.243531 89.873684 
L 296.243531 67.989474 
L -172141.224618 67.989474 
z
" clip-path="url(#pbc62d934c5)" style="fill: #6a3d9a; opacity: 0.9; stroke: #000000; stroke-width: 0.8; stroke-linejoin: miter"/>
   </g>
   <g id="patch_24">
    <path d="M -172141.224618 41.242105 
L 191.393011 41.242105 
L 191.393011 19.357895 
L -172141.224618 19.357895 
z
" clip-path="url(#pbc62d934c5)" style="fill: #6a3d9a; opacity: 0.9; stroke: #000000; stroke-width: 0.8; stroke-linejoin: miter"/>
   </g>
   <g id="matplotlib.axis_1">
    <g id="xtick_1">
     <g id="line2d_1">
      <defs>
       <path id="mb5645d930d" d="M 0 0 
L 0 3.5 
" style="stroke: #000000; stroke-width: 0.8"/>
      </defs>
      <g>
       <use xlink:href="#mb5645d930d" x="171.071873" y="561.6" style="stroke: #000000; stroke-width: 0.8"/>
      </g>
     </g>
     <g id="text_1">
      <!-- $\mathdefault{10^{-9}}$ -->
      <g transform="translate(156.971873 577.718125) scale(0.12 -0.12)">
       <defs>
        <path id="DejaVuSans-31" d="M 794 531 
L 1825 531 
L 1825 4091 
L 703 3866 
L 703 4441 
L 1819 4666 
L 2450 4666 
L 2450 531 
L 3481 531 
L 3481 0 
L 794 0 
L 794 531 
z
" transform="scale(0.015625)"/>
        <path id="DejaVuSans-30" d="M 2034 4250 
Q 1547 4250 1301 3770 
Q 1056 3291 1056 2328 
Q 1056 1369 1301 889 
Q 1547 409 2034 409 
Q 2525 409 2770 889 
Q 3016 1369 3016 2328 
Q 3016 3291 2770 3770 
Q 2525 4250 2034 4250 
z
M 2034 4750 
Q 2819 4750 3233 4129 
Q 3647 3509 3647 2328 
Q 3647 1150 3233 529 
Q 2819 -91 2034 -91 
Q 1250 -91 836 529 
Q 422 1150 422 2328 
Q 422 3509 836 4129 
Q 1250 4750 2034 4750 
z
" transform="scale(0.015625)"/>
        <path id="DejaVuSans-2212" d="M 678 2272 
L 4684 2272 
L 4684 1741 
L 678 1741 
L 678 2272 
z
" transform="scale(0.015625)"/>
        <path id="DejaVuSans-39" d="M 703 97 
L 703 672 
Q 941 559 1184 500 
Q 1428 441 1663 441 
Q 2288 441 2617 861 
Q 2947 1281 2994 2138 
Q 2813 1869 2534 1725 
Q 2256 1581 1919 1581 
Q 1219 1581 811 2004 
Q 403 2428 403 3163 
Q 403 3881 828 4315 
Q 1253 4750 1959 4750 
Q 2769 4750 3195 4129 
Q 3622 3509 3622 2328 
Q 3622 1225 3098 567 
Q 2575 -91 1691 -91 
Q 1453 -91 1209 -44 
Q 966 3 703 97 
z
M 1959 2075 
Q 2384 2075 2632 2365 
Q 2881 2656 2881 3163 
Q 2881 3666 2632 3958 
Q 2384 4250 1959 4250 
Q 1534 4250 1286 3958 
Q 1038 3666 1038 3163 
Q 1038 2656 1286 2365 
Q 1534 2075 1959 2075 
z
" transform="scale(0.015625)"/>
       </defs>
       <use xlink:href="#DejaVuSans-31" transform="translate(0 0.765625)"/>
       <use xlink:href="#DejaVuSans-30" transform="translate(63.623047 0.765625)"/>
       <use xlink:href="#DejaVuSans-2212" transform="translate(128.203125 39.046875) scale(0.7)"/>
       <use xlink:href="#DejaVuSans-39" transform="translate(186.855469 39.046875) scale(0.7)"/>
      </g>
     </g>
    </g>
    <g id="xtick_2">
     <g id="line2d_2">
      <g>
       <use xlink:href="#mb5645d930d" x="344.949065" y="561.6" style="stroke: #000000; stroke-width: 0.8"/>
      </g>
     </g>
     <g id="text_2">
      <!-- $\mathdefault{10^{-8}}$ -->
      <g transform="translate(330.849065 577.718125) scale(0.12 -0.12)">
       <defs>
        <path id="DejaVuSans-38" d="M 2034 2216 
Q 1584 2216 1326 1975 
Q 1069 1734 1069 1313 
Q 1069 891 1326 650 
Q 1584 409 2034 409 
Q 2484 409 2743 651 
Q 3003 894 3003 1313 
Q 3003 1734 2745 1975 
Q 2488 2216 2034 2216 
z
M 1403 2484 
Q 997 2584 770 2862 
Q 544 3141 544 3541 
Q 544 4100 942 4425 
Q 1341 4750 2034 4750 
Q 2731 4750 3128 4425 
Q 3525 4100 3525 3541 
Q 3525 3141 3298 2862 
Q 3072 2584 2669 2484 
Q 3125 2378 3379 2068 
Q 3634 1759 3634 1313 
Q 3634 634 3220 271 
Q 2806 -91 2034 -91 
Q 1263 -91 848 271 
Q 434 634 434 1313 
Q 434 1759 690 2068 
Q 947 2378 1403 2484 
z
M 1172 3481 
Q 1172 3119 1398 2916 
Q 1625 2713 2034 2713 
Q 2441 2713 2670 2916 
Q 2900 3119 2900 3481 
Q 2900 3844 2670 4047 
Q 2441 4250 2034 4250 
Q 1625 4250 1398 4047 
Q 1172 3844 1172 3481 
z
" transform="scale(0.015625)"/>
       </defs>
       <use xlink:href="#DejaVuSans-31" transform="translate(0 0.765625)"/>
       <use xlink:href="#DejaVuSans-30" transform="translate(63.623047 0.765625)"/>
       <use xlink:href="#DejaVuSans-2212" transform="translate(128.203125 39.046875) scale(0.7)"/>
       <use xlink:href="#DejaVuSans-38" transform="translate(186.855469 39.046875) scale(0.7)"/>
      </g>
     </g>
    </g>
    <g id="xtick_3">
     <g id="line2d_3">
      <g>
       <use xlink:href="#mb5645d930d" x="518.826256" y="561.6" style="stroke: #000000; stroke-width: 0.8"/>
      </g>
     </g>
     <g id="text_3">
      <!-- $\mathdefault{10^{-7}}$ -->
      <g transform="translate(504.726256 577.718125) scale(0.12 -0.12)">
       <defs>
        <path id="DejaVuSans-37" d="M 525 4666 
L 3525 4666 
L 3525 4397 
L 1831 0 
L 1172 0 
L 2766 4134 
L 525 4134 
L 525 4666 
z
" transform="scale(0.015625)"/>
       </defs>
       <use xlink:href="#DejaVuSans-31" transform="translate(0 0.684375)"/>
       <use xlink:href="#DejaVuSans-30" transform="translate(63.623047 0.684375)"/>
       <use xlink:href="#DejaVuSans-2212" transform="translate(128.203125 38.965625) scale(0.7)"/>
       <use xlink:href="#DejaVuSans-37" transform="translate(186.855469 38.965625) scale(0.7)"/>
      </g>
     </g>
    </g>
    <g id="xtick_4">
     <g id="line2d_4">
      <g>
       <use xlink:href="#mb5645d930d" x="692.703447" y="561.6" style="stroke: #000000; stroke-width: 0.8"/>
      </g>
     </g>
     <g id="text_4">
      <!-- $\mathdefault{10^{-6}}$ -->
      <g transform="translate(678.603447 577.718125) scale(0.12 -0.12)">
       <defs>
        <path id="DejaVuSans-36" d="M 2113 2584 
Q 1688 2584 1439 2293 
Q 1191 2003 1191 1497 
Q 1191 994 1439 701 
Q 1688 409 2113 409 
Q 2538 409 2786 701 
Q 3034 994 3034 1497 
Q 3034 2003 2786 2293 
Q 2538 2584 2113 2584 
z
M 3366 4563 
L 3366 3988 
Q 3128 4100 2886 4159 
Q 2644 4219 2406 4219 
Q 1781 4219 1451 3797 
Q 1122 3375 1075 2522 
Q 1259 2794 1537 2939 
Q 1816 3084 2150 3084 
Q 2853 3084 3261 2657 
Q 3669 2231 3669 1497 
Q 3669 778 3244 343 
Q 2819 -91 2113 -91 
Q 1303 -91 875 529 
Q 447 1150 447 2328 
Q 447 3434 972 4092 
Q 1497 4750 2381 4750 
Q 2619 4750 2861 4703 
Q 3103 4656 3366 4563 
z
" transform="scale(0.015625)"/>
       </defs>
       <use xlink:href="#DejaVuSans-31" transform="translate(0 0.765625)"/>
       <use xlink:href="#DejaVuSans-30" transform="translate(63.623047 0.765625)"/>
       <use xlink:href="#DejaVuSans-2212" transform="translate(128.203125 39.046875) scale(0.7)"/>
       <use xlink:href="#DejaVuSans-36" transform="translate(186.855469 39.046875) scale(0.7)"/>
      </g>
     </g>
    </g>
    <g id="xtick_5">
     <g id="line2d_5">
      <defs>
       <path id="me07ee7de62" d="M 0 0 
L 0 2 
" style="stroke: #000000; stroke-width: 0.6"/>
      </defs>
      <g>
       <use xlink:href="#me07ee7de62" x="223.414124" y="561.6" style="stroke: #000000; stroke-width: 0.6"/>
      </g>
     </g>
    </g>
    <g id="xtick_6">
     <g id="line2d_6">
      <g>
       <use xlink:href="#me07ee7de62" x="254.032377" y="561.6" style="stroke: #000000; stroke-width: 0.6"/>
      </g>
     </g>
    </g>
    <g id="xtick_7">
     <g id="line2d_7">
      <g>
       <use xlink:href="#me07ee7de62" x="275.756374" y="561.6" style="stroke: #000000; stroke-width: 0.6"/>
      </g>
     </g>
    </g>
    <g id="xtick_8">
     <g id="line2d_8">
      <g>
       <use xlink:href="#me07ee7de62" x="292.606815" y="561.6" style="stroke: #000000; stroke-width: 0.6"/>
      </g>
     </g>
    </g>
    <g id="xtick_9">
     <g id="line2d_9">
      <g>
       <use xlink:href="#me07ee7de62" x="306.374627" y="561.6" style="stroke: #000000; stroke-width: 0.6"/>
      </g>
     </g>
    </g>
    <g id="xtick_10">
     <g id="line2d_10">
      <g>
       <use xlink:href="#me07ee7de62" x="318.015147" y="561.6" style="stroke: #000000; stroke-width: 0.6"/>
      </g>
     </g>
    </g>
    <g id="xtick_11">
     <g id="line2d_11">
      <g>
       <use xlink:href="#me07ee7de62" x="328.098624" y="561.6" style="stroke: #000000; stroke-width: 0.6"/>
      </g>
     </g>
    </g>
    <g id="xtick_12">
     <g id="line2d_12">
      <g>
       <use xlink:href="#me07ee7de62" x="336.992881" y="561.6" style="stroke: #000000; stroke-width: 0.6"/>
      </g>
     </g>
    </g>
    <g id="xtick_13">
     <g id="line2d_13">
      <g>
       <use xlink:href="#me07ee7de62" x="397.291315" y="561.6" style="stroke: #000000; stroke-width: 0.6"/>
      </g>
     </g>
    </g>
    <g id="xtick_14">
     <g id="line2d_14">
      <g>
       <use xlink:href="#me07ee7de62" x="427.909568" y="561.6" style="stroke: #000000; stroke-width: 0.6"/>
      </g>
     </g>
    </g>
    <g id="xtick_15">
     <g id="line2d_15">
      <g>
       <use xlink:href="#me07ee7de62" x="449.633565" y="561.6" style="stroke: #000000; stroke-width: 0.6"/>
      </g>
     </g>
    </g>
    <g id="xtick_16">
     <g id="line2d_16">
      <g>
       <use xlink:href="#me07ee7de62" x="466.484006" y="561.6" style="stroke: #000000; stroke-width: 0.6"/>
      </g>
     </g>
    </g>
    <g id="xtick_17">
     <g id="line2d_17">
      <g>
       <use xlink:href="#me07ee7de62" x="480.251818" y="561.6" style="stroke: #000000; stroke-width: 0.6"/>
      </g>
     </g>
    </g>
    <g id="xtick_18">
     <g id="line2d_18">
      <g>
       <use xlink:href="#me07ee7de62" x="491.892338" y="561.6" style="stroke: #000000; stroke-width: 0.6"/>
      </g>
     </g>
    </g>
    <g id="xtick_19">
     <g id="line2d_19">
      <g>
       <use xlink:href="#me07ee7de62" x="501.975815" y="561.6" style="stroke: #000000; stroke-width: 0.6"/>
      </g>
     </g>
    </g>
    <g id="xtick_20">
     <g id="line2d_20">
      <g>
       <use xlink:href="#me07ee7de62" x="510.870072" y="561.6" style="stroke: #000000; stroke-width: 0.6"/>
      </g>
     </g>
    </g>
    <g id="xtick_21">
     <g id="line2d_21">
      <g>
       <use xlink:href="#me07ee7de62" x="571.168506" y="561.6" style="stroke: #000000; stroke-width: 0.6"/>
      </g>
     </g>
    </g>
    <g id="xtick_22">
     <g id="line2d_22">
      <g>
       <use xlink:href="#me07ee7de62" x="601.78676" y="561.6" style="stroke: #000000; stroke-width: 0.6"/>
      </g>
     </g>
    </g>
    <g id="xtick_23">
     <g id="line2d_23">
      <g>
       <use xlink:href="#me07ee7de62" x="623.510756" y="561.6" style="stroke: #000000; stroke-width: 0.6"/>
      </g>
     </g>
    </g>
    <g id="xtick_24">
     <g id="line2d_24">
      <g>
       <use xlink:href="#me07ee7de62" x="640.361197" y="561.6" style="stroke: #000000; stroke-width: 0.6"/>
      </g>
     </g>
    </g>
    <g id="xtick_25">
     <g id="line2d_25">
      <g>
       <use xlink:href="#me07ee7de62" x="654.12901" y="561.6" style="stroke: #000000; stroke-width: 0.6"/>
      </g>
     </g>
    </g>
    <g id="xtick_26">
     <g id="line2d_26">
      <g>
       <use xlink:href="#me07ee7de62" x="665.769529" y="561.6" style="stroke: #000000; stroke-width: 0.6"/>
      </g>
     </g>
    </g>
    <g id="xtick_27">
     <g id="line2d_27">
      <g>
       <use xlink:href="#me07ee7de62" x="675.853006" y="561.6" style="stroke: #000000; stroke-width: 0.6"/>
      </g>
     </g>
    </g>
    <g id="xtick_28">
     <g id="line2d_28">
      <g>
       <use xlink:href="#me07ee7de62" x="684.747263" y="561.6" style="stroke: #000000; stroke-width: 0.6"/>
      </g>
     </g>
    </g>
    <g id="text_5">
     <!-- $\log_{10}$ Self-interaction -->
     <g transform="translate(370.899375 594.85375) scale(0.14 -0.14)">
      <defs>
       <path id="DejaVuSans-6c" d="M 603 4863 
L 1178 4863 
L 1178 0 
L 603 0 
L 603 4863 
z
" transform="scale(0.015625)"/>
       <path id="DejaVuSans-6f" d="M 1959 3097 
Q 1497 3097 1228 2736 
Q 959 2375 959 1747 
Q 959 1119 1226 758 
Q 1494 397 1959 397 
Q 2419 397 2687 759 
Q 2956 1122 2956 1747 
Q 2956 2369 2687 2733 
Q 2419 3097 1959 3097 
z
M 1959 3584 
Q 2709 3584 3137 3096 
Q 3566 2609 3566 1747 
Q 3566 888 3137 398 
Q 2709 -91 1959 -91 
Q 1206 -91 779 398 
Q 353 888 353 1747 
Q 353 2609 779 3096 
Q 1206 3584 1959 3584 
z
" transform="scale(0.015625)"/>
       <path id="DejaVuSans-67" d="M 2906 1791 
Q 2906 2416 2648 2759 
Q 2391 3103 1925 3103 
Q 1463 3103 1205 2759 
Q 947 2416 947 1791 
Q 947 1169 1205 825 
Q 1463 481 1925 481 
Q 2391 481 2648 825 
Q 2906 1169 2906 1791 
z
M 3481 434 
Q 3481 -459 3084 -895 
Q 2688 -1331 1869 -1331 
Q 1566 -1331 1297 -1286 
Q 1028 -1241 775 -1147 
L 775 -588 
Q 1028 -725 1275 -790 
Q 1522 -856 1778 -856 
Q 2344 -856 2625 -561 
Q 2906 -266 2906 331 
L 2906 616 
Q 2728 306 2450 153 
Q 2172 0 1784 0 
Q 1141 0 747 490 
Q 353 981 353 1791 
Q 353 2603 747 3093 
Q 1141 3584 1784 3584 
Q 2172 3584 2450 3431 
Q 2728 3278 2906 2969 
L 2906 3500 
L 3481 3500 
L 3481 434 
z
" transform="scale(0.015625)"/>
       <path id="DejaVuSans-20" transform="scale(0.015625)"/>
       <path id="DejaVuSans-53" d="M 3425 4513 
L 3425 3897 
Q 3066 4069 2747 4153 
Q 2428 4238 2131 4238 
Q 1616 4238 1336 4038 
Q 1056 3838 1056 3469 
Q 1056 3159 1242 3001 
Q 1428 2844 1947 2747 
L 2328 2669 
Q 3034 2534 3370 2195 
Q 3706 1856 3706 1288 
Q 3706 609 3251 259 
Q 2797 -91 1919 -91 
Q 1588 -91 1214 -16 
Q 841 59 441 206 
L 441 856 
Q 825 641 1194 531 
Q 1563 422 1919 422 
Q 2459 422 2753 634 
Q 3047 847 3047 1241 
Q 3047 1584 2836 1778 
Q 2625 1972 2144 2069 
L 1759 2144 
Q 1053 2284 737 2584 
Q 422 2884 422 3419 
Q 422 4038 858 4394 
Q 1294 4750 2059 4750 
Q 2388 4750 2728 4690 
Q 3069 4631 3425 4513 
z
" transform="scale(0.015625)"/>
       <path id="DejaVuSans-65" d="M 3597 1894 
L 3597 1613 
L 953 1613 
Q 991 1019 1311 708 
Q 1631 397 2203 397 
Q 2534 397 2845 478 
Q 3156 559 3463 722 
L 3463 178 
Q 3153 47 2828 -22 
Q 2503 -91 2169 -91 
Q 1331 -91 842 396 
Q 353 884 353 1716 
Q 353 2575 817 3079 
Q 1281 3584 2069 3584 
Q 2775 3584 3186 3129 
Q 3597 2675 3597 1894 
z
M 3022 2063 
Q 3016 2534 2758 2815 
Q 2500 3097 2075 3097 
Q 1594 3097 1305 2825 
Q 1016 2553 972 2059 
L 3022 2063 
z
" transform="scale(0.015625)"/>
       <path id="DejaVuSans-66" d="M 2375 4863 
L 2375 4384 
L 1825 4384 
Q 1516 4384 1395 4259 
Q 1275 4134 1275 3809 
L 1275 3500 
L 2222 3500 
L 2222 3053 
L 1275 3053 
L 1275 0 
L 697 0 
L 697 3053 
L 147 3053 
L 147 3500 
L 697 3500 
L 697 3744 
Q 697 4328 969 4595 
Q 1241 4863 1831 4863 
L 2375 4863 
z
" transform="scale(0.015625)"/>
       <path id="DejaVuSans-2d" d="M 313 2009 
L 1997 2009 
L 1997 1497 
L 313 1497 
L 313 2009 
z
" transform="scale(0.015625)"/>
       <path id="DejaVuSans-69" d="M 603 3500 
L 1178 3500 
L 1178 0 
L 603 0 
L 603 3500 
z
M 603 4863 
L 1178 4863 
L 1178 4134 
L 603 4134 
L 603 4863 
z
" transform="scale(0.015625)"/>
       <path id="DejaVuSans-6e" d="M 3513 2113 
L 3513 0 
L 2938 0 
L 2938 2094 
Q 2938 2591 2744 2837 
Q 2550 3084 2163 3084 
Q 1697 3084 1428 2787 
Q 1159 2491 1159 1978 
L 1159 0 
L 581 0 
L 581 3500 
L 1159 3500 
L 1159 2956 
Q 1366 3272 1645 3428 
Q 1925 3584 2291 3584 
Q 2894 3584 3203 3211 
Q 3513 2838 3513 2113 
z
" transform="scale(0.015625)"/>
       <path id="DejaVuSans-74" d="M 1172 4494 
L 1172 3500 
L 2356 3500 
L 2356 3053 
L 1172 3053 
L 1172 1153 
Q 1172 725 1289 603 
Q 1406 481 1766 481 
L 2356 481 
L 2356 0 
L 1766 0 
Q 1100 0 847 248 
Q 594 497 594 1153 
L 594 3053 
L 172 3053 
L 172 3500 
L 594 3500 
L 594 4494 
L 1172 4494 
z
" transform="scale(0.015625)"/>
       <path id="DejaVuSans-72" d="M 2631 2963 
Q 2534 3019 2420 3045 
Q 2306 3072 2169 3072 
Q 1681 3072 1420 2755 
Q 1159 2438 1159 1844 
L 1159 0 
L 581 0 
L 581 3500 
L 1159 3500 
L 1159 2956 
Q 1341 3275 1631 3429 
Q 1922 3584 2338 3584 
Q 2397 3584 2469 3576 
Q 2541 3569 2628 3553 
L 2631 2963 
z
" transform="scale(0.015625)"/>
       <path id="DejaVuSans-61" d="M 2194 1759 
Q 1497 1759 1228 1600 
Q 959 1441 959 1056 
Q 959 750 1161 570 
Q 1363 391 1709 391 
Q 2188 391 2477 730 
Q 2766 1069 2766 1631 
L 2766 1759 
L 2194 1759 
z
M 3341 1997 
L 3341 0 
L 2766 0 
L 2766 531 
Q 2569 213 2275 61 
Q 1981 -91 1556 -91 
Q 1019 -91 701 211 
Q 384 513 384 1019 
Q 384 1609 779 1909 
Q 1175 2209 1959 2209 
L 2766 2209 
L 2766 2266 
Q 2766 2663 2505 2880 
Q 2244 3097 1772 3097 
Q 1472 3097 1187 3025 
Q 903 2953 641 2809 
L 641 3341 
Q 956 3463 1253 3523 
Q 1550 3584 1831 3584 
Q 2591 3584 2966 3190 
Q 3341 2797 3341 1997 
z
" transform="scale(0.015625)"/>
       <path id="DejaVuSans-63" d="M 3122 3366 
L 3122 2828 
Q 2878 2963 2633 3030 
Q 2388 3097 2138 3097 
Q 1578 3097 1268 2742 
Q 959 2388 959 1747 
Q 959 1106 1268 751 
Q 1578 397 2138 397 
Q 2388 397 2633 464 
Q 2878 531 3122 666 
L 3122 134 
Q 2881 22 2623 -34 
Q 2366 -91 2075 -91 
Q 1284 -91 818 406 
Q 353 903 353 1747 
Q 353 2603 823 3093 
Q 1294 3584 2113 3584 
Q 2378 3584 2631 3529 
Q 2884 3475 3122 3366 
z
" transform="scale(0.015625)"/>
      </defs>
      <use xlink:href="#DejaVuSans-6c" transform="translate(0 0.015625)"/>
      <use xlink:href="#DejaVuSans-6f" transform="translate(27.783203 0.015625)"/>
      <use xlink:href="#DejaVuSans-67" transform="translate(88.964844 0.015625)"/>
      <use xlink:href="#DejaVuSans-31" transform="translate(153.398438 -16.390625) scale(0.7)"/>
      <use xlink:href="#DejaVuSans-30" transform="translate(197.93457 -16.390625) scale(0.7)"/>
      <use xlink:href="#DejaVuSans-20" transform="translate(261.440754 0.015625)"/>
      <use xlink:href="#DejaVuSans-53" transform="translate(293.227864 0.015625)"/>
      <use xlink:href="#DejaVuSans-65" transform="translate(356.704426 0.015625)"/>
      <use xlink:href="#DejaVuSans-6c" transform="translate(418.227864 0.015625)"/>
      <use xlink:href="#DejaVuSans-66" transform="translate(446.011067 0.015625)"/>
      <use xlink:href="#DejaVuSans-2d" transform="translate(481.216145 0.015625)"/>
      <use xlink:href="#DejaVuSans-69" transform="translate(517.300129 0.015625)"/>
      <use xlink:href="#DejaVuSans-6e" transform="translate(545.083333 0.015625)"/>
      <use xlink:href="#DejaVuSans-74" transform="translate(608.462239 0.015625)"/>
      <use xlink:href="#DejaVuSans-65" transform="translate(647.671223 0.015625)"/>
      <use xlink:href="#DejaVuSans-72" transform="translate(709.194661 0.015625)"/>
      <use xlink:href="#DejaVuSans-61" transform="translate(750.307942 0.015625)"/>
      <use xlink:href="#DejaVuSans-63" transform="translate(811.587239 0.015625)"/>
      <use xlink:href="#DejaVuSans-74" transform="translate(866.567708 0.015625)"/>
      <use xlink:href="#DejaVuSans-69" transform="translate(905.776692 0.015625)"/>
      <use xlink:href="#DejaVuSans-6f" transform="translate(933.559895 0.015625)"/>
      <use xlink:href="#DejaVuSans-6e" transform="translate(994.741536 0.015625)"/>
     </g>
    </g>
   </g>
   <g id="matplotlib.axis_2">
    <g id="ytick_1">
     <g id="line2d_29">
      <defs>
       <path id="m185ef4e35c" d="M 0 0 
L -3.5 0 
" style="stroke: #000000; stroke-width: 0.8"/>
      </defs>
      <g>
       <use xlink:href="#m185ef4e35c" x="166.029375" y="527.557895" style="stroke: #000000; stroke-width: 0.8"/>
      </g>
     </g>
     <g id="text_6">
      <!-- $C. spiroforme$ -->
      <g transform="translate(79.349375 532.117895) scale(0.12 -0.12)">
       <defs>
        <path id="DejaVuSans-Oblique-43" d="M 4447 4306 
L 4319 3641 
Q 4019 3944 3683 4091 
Q 3347 4238 2956 4238 
Q 2422 4238 2017 3981 
Q 1613 3725 1319 3200 
Q 1131 2863 1032 2486 
Q 934 2109 934 1728 
Q 934 1091 1264 756 
Q 1594 422 2222 422 
Q 2656 422 3056 561 
Q 3456 700 3834 978 
L 3688 231 
Q 3316 72 2936 -9 
Q 2556 -91 2175 -91 
Q 1278 -91 773 396 
Q 269 884 269 1753 
Q 269 2309 461 2846 
Q 653 3384 1013 3828 
Q 1394 4300 1883 4525 
Q 2372 4750 3022 4750 
Q 3422 4750 3780 4639 
Q 4138 4528 4447 4306 
z
" transform="scale(0.015625)"/>
        <path id="DejaVuSans-2e" d="M 684 794 
L 1344 794 
L 1344 0 
L 684 0 
L 684 794 
z
" transform="scale(0.015625)"/>
        <path id="DejaVuSans-Oblique-73" d="M 3200 3397 
L 3091 2853 
Q 2863 2978 2609 3040 
Q 2356 3103 2088 3103 
Q 1634 3103 1373 2948 
Q 1113 2794 1113 2528 
Q 1113 2219 1719 2053 
Q 1766 2041 1788 2034 
L 1972 1978 
Q 2547 1819 2739 1644 
Q 2931 1469 2931 1166 
Q 2931 609 2489 259 
Q 2047 -91 1331 -91 
Q 1053 -91 747 -37 
Q 441 16 72 128 
L 184 722 
Q 500 559 806 475 
Q 1113 391 1394 391 
Q 1816 391 2080 572 
Q 2344 753 2344 1031 
Q 2344 1331 1650 1516 
L 1591 1531 
L 1394 1581 
Q 956 1697 753 1886 
Q 550 2075 550 2369 
Q 550 2928 970 3256 
Q 1391 3584 2113 3584 
Q 2397 3584 2667 3537 
Q 2938 3491 3200 3397 
z
" transform="scale(0.015625)"/>
        <path id="DejaVuSans-Oblique-70" d="M 3175 2156 
Q 3175 2616 2975 2859 
Q 2775 3103 2400 3103 
Q 2144 3103 1911 2972 
Q 1678 2841 1497 2591 
Q 1319 2344 1212 1994 
Q 1106 1644 1106 1300 
Q 1106 863 1306 627 
Q 1506 391 1875 391 
Q 2147 391 2380 519 
Q 2613 647 2778 891 
Q 2956 1147 3065 1494 
Q 3175 1841 3175 2156 
z
M 1394 2969 
Q 1625 3272 1939 3428 
Q 2253 3584 2638 3584 
Q 3175 3584 3472 3232 
Q 3769 2881 3769 2247 
Q 3769 1728 3584 1258 
Q 3400 788 3053 416 
Q 2822 169 2531 39 
Q 2241 -91 1919 -91 
Q 1547 -91 1294 64 
Q 1041 219 916 525 
L 556 -1331 
L -19 -1331 
L 922 3500 
L 1497 3500 
L 1394 2969 
z
" transform="scale(0.015625)"/>
        <path id="DejaVuSans-Oblique-69" d="M 1172 4863 
L 1747 4863 
L 1606 4134 
L 1031 4134 
L 1172 4863 
z
M 909 3500 
L 1484 3500 
L 800 0 
L 225 0 
L 909 3500 
z
" transform="scale(0.015625)"/>
        <path id="DejaVuSans-Oblique-72" d="M 2853 2969 
Q 2766 3016 2653 3041 
Q 2541 3066 2413 3066 
Q 1953 3066 1609 2717 
Q 1266 2369 1153 1784 
L 800 0 
L 225 0 
L 909 3500 
L 1484 3500 
L 1375 2956 
Q 1603 3259 1920 3421 
Q 2238 3584 2597 3584 
Q 2691 3584 2781 3573 
Q 2872 3563 2963 3538 
L 2853 2969 
z
" transform="scale(0.015625)"/>
        <path id="DejaVuSans-Oblique-6f" d="M 1625 -91 
Q 1009 -91 651 289 
Q 294 669 294 1325 
Q 294 1706 417 2101 
Q 541 2497 738 2766 
Q 1047 3184 1428 3384 
Q 1809 3584 2291 3584 
Q 2888 3584 3255 3212 
Q 3622 2841 3622 2241 
Q 3622 1825 3500 1412 
Q 3378 1000 3181 728 
Q 2875 309 2494 109 
Q 2113 -91 1625 -91 
z
M 891 1344 
Q 891 869 1089 633 
Q 1288 397 1691 397 
Q 2269 397 2648 901 
Q 3028 1406 3028 2181 
Q 3028 2634 2825 2865 
Q 2622 3097 2228 3097 
Q 1903 3097 1650 2945 
Q 1397 2794 1197 2484 
Q 1050 2253 970 1956 
Q 891 1659 891 1344 
z
" transform="scale(0.015625)"/>
        <path id="DejaVuSans-Oblique-66" d="M 3059 4863 
L 2969 4384 
L 2419 4384 
Q 2106 4384 1964 4261 
Q 1822 4138 1753 3809 
L 1691 3500 
L 2638 3500 
L 2553 3053 
L 1606 3053 
L 1013 0 
L 434 0 
L 1031 3053 
L 481 3053 
L 563 3500 
L 1113 3500 
L 1159 3744 
Q 1278 4363 1576 4613 
Q 1875 4863 2516 4863 
L 3059 4863 
z
" transform="scale(0.015625)"/>
        <path id="DejaVuSans-Oblique-6d" d="M 5747 2113 
L 5338 0 
L 4763 0 
L 5166 2094 
Q 5191 2228 5203 2325 
Q 5216 2422 5216 2491 
Q 5216 2772 5059 2928 
Q 4903 3084 4622 3084 
Q 4203 3084 3875 2770 
Q 3547 2456 3450 1953 
L 3066 0 
L 2491 0 
L 2900 2094 
Q 2925 2209 2937 2307 
Q 2950 2406 2950 2484 
Q 2950 2769 2794 2926 
Q 2638 3084 2363 3084 
Q 1938 3084 1609 2770 
Q 1281 2456 1184 1953 
L 800 0 
L 225 0 
L 909 3500 
L 1484 3500 
L 1375 2956 
Q 1609 3263 1923 3423 
Q 2238 3584 2597 3584 
Q 2978 3584 3223 3384 
Q 3469 3184 3519 2828 
Q 3781 3197 4126 3390 
Q 4472 3584 4856 3584 
Q 5306 3584 5551 3325 
Q 5797 3066 5797 2591 
Q 5797 2488 5784 2364 
Q 5772 2241 5747 2113 
z
" transform="scale(0.015625)"/>
        <path id="DejaVuSans-Oblique-65" d="M 3078 2063 
Q 3088 2113 3092 2166 
Q 3097 2219 3097 2272 
Q 3097 2653 2873 2875 
Q 2650 3097 2266 3097 
Q 1838 3097 1509 2826 
Q 1181 2556 1013 2059 
L 3078 2063 
z
M 3578 1613 
L 903 1613 
Q 884 1494 878 1425 
Q 872 1356 872 1306 
Q 872 872 1139 634 
Q 1406 397 1894 397 
Q 2269 397 2603 481 
Q 2938 566 3225 728 
L 3116 159 
Q 2806 34 2476 -28 
Q 2147 -91 1806 -91 
Q 1078 -91 686 257 
Q 294 606 294 1247 
Q 294 1794 489 2264 
Q 684 2734 1063 3103 
Q 1306 3334 1642 3459 
Q 1978 3584 2356 3584 
Q 2950 3584 3301 3228 
Q 3653 2872 3653 2272 
Q 3653 2128 3634 1964 
Q 3616 1800 3578 1613 
z
" transform="scale(0.015625)"/>
       </defs>
       <use xlink:href="#DejaVuSans-Oblique-43" transform="translate(0 0.015625)"/>
       <use xlink:href="#DejaVuSans-2e" transform="translate(69.824219 0.015625)"/>
       <use xlink:href="#DejaVuSans-Oblique-73" transform="translate(121.09375 0.015625)"/>
       <use xlink:href="#DejaVuSans-Oblique-70" transform="translate(173.193359 0.015625)"/>
       <use xlink:href="#DejaVuSans-Oblique-69" transform="translate(236.669922 0.015625)"/>
       <use xlink:href="#DejaVuSans-Oblique-72" transform="translate(264.453125 0.015625)"/>
       <use xlink:href="#DejaVuSans-Oblique-6f" transform="translate(305.566406 0.015625)"/>
       <use xlink:href="#DejaVuSans-Oblique-66" transform="translate(366.748047 0.015625)"/>
       <use xlink:href="#DejaVuSans-Oblique-6f" transform="translate(401.953125 0.015625)"/>
       <use xlink:href="#DejaVuSans-Oblique-72" transform="translate(463.134766 0.015625)"/>
       <use xlink:href="#DejaVuSans-Oblique-6d" transform="translate(504.248047 0.015625)"/>
       <use xlink:href="#DejaVuSans-Oblique-65" transform="translate(601.660156 0.015625)"/>
      </g>
     </g>
    </g>
    <g id="ytick_2">
     <g id="line2d_30">
      <g>
       <use xlink:href="#m185ef4e35c" x="166.029375" y="478.926316" style="stroke: #000000; stroke-width: 0.8"/>
      </g>
     </g>
     <g id="text_7">
      <!-- $C. aerofaciens$ -->
      <g transform="translate(74.669375 483.485378) scale(0.12 -0.12)">
       <defs>
        <path id="DejaVuSans-Oblique-61" d="M 3438 1997 
L 3047 0 
L 2472 0 
L 2578 531 
Q 2325 219 2001 64 
Q 1678 -91 1281 -91 
Q 834 -91 548 182 
Q 263 456 263 884 
Q 263 1497 752 1853 
Q 1241 2209 2100 2209 
L 2900 2209 
L 2931 2363 
Q 2938 2388 2941 2417 
Q 2944 2447 2944 2509 
Q 2944 2788 2717 2942 
Q 2491 3097 2081 3097 
Q 1800 3097 1504 3025 
Q 1209 2953 897 2809 
L 997 3341 
Q 1322 3463 1633 3523 
Q 1944 3584 2234 3584 
Q 2853 3584 3176 3315 
Q 3500 3047 3500 2534 
Q 3500 2431 3484 2292 
Q 3469 2153 3438 1997 
z
M 2816 1759 
L 2241 1759 
Q 1534 1759 1195 1570 
Q 856 1381 856 984 
Q 856 709 1029 553 
Q 1203 397 1509 397 
Q 1978 397 2328 733 
Q 2678 1069 2791 1631 
L 2816 1759 
z
" transform="scale(0.015625)"/>
        <path id="DejaVuSans-Oblique-63" d="M 3431 3366 
L 3316 2797 
Q 3109 2947 2876 3022 
Q 2644 3097 2394 3097 
Q 2119 3097 1870 3000 
Q 1622 2903 1453 2725 
Q 1184 2453 1037 2087 
Q 891 1722 891 1331 
Q 891 859 1127 628 
Q 1363 397 1844 397 
Q 2081 397 2348 469 
Q 2616 541 2906 684 
L 2797 116 
Q 2547 13 2283 -39 
Q 2019 -91 1741 -91 
Q 1044 -91 669 257 
Q 294 606 294 1253 
Q 294 1797 489 2255 
Q 684 2713 1069 3078 
Q 1331 3328 1684 3456 
Q 2038 3584 2456 3584 
Q 2700 3584 2940 3529 
Q 3181 3475 3431 3366 
z
" transform="scale(0.015625)"/>
        <path id="DejaVuSans-Oblique-6e" d="M 3566 2113 
L 3156 0 
L 2578 0 
L 2988 2091 
Q 3016 2238 3031 2350 
Q 3047 2463 3047 2528 
Q 3047 2791 2881 2937 
Q 2716 3084 2419 3084 
Q 1956 3084 1622 2776 
Q 1288 2469 1184 1941 
L 800 0 
L 225 0 
L 903 3500 
L 1478 3500 
L 1363 2950 
Q 1603 3253 1940 3418 
Q 2278 3584 2650 3584 
Q 3113 3584 3367 3334 
Q 3622 3084 3622 2631 
Q 3622 2519 3608 2391 
Q 3594 2263 3566 2113 
z
" transform="scale(0.015625)"/>
       </defs>
       <use xlink:href="#DejaVuSans-Oblique-43" transform="translate(0 0.015625)"/>
       <use xlink:href="#DejaVuSans-2e" transform="translate(69.824219 0.015625)"/>
       <use xlink:href="#DejaVuSans-Oblique-61" transform="translate(121.09375 0.015625)"/>
       <use xlink:href="#DejaVuSans-Oblique-65" transform="translate(182.373047 0.015625)"/>
       <use xlink:href="#DejaVuSans-Oblique-72" transform="translate(243.896484 0.015625)"/>
       <use xlink:href="#DejaVuSans-Oblique-6f" transform="translate(285.009766 0.015625)"/>
       <use xlink:href="#DejaVuSans-Oblique-66" transform="translate(346.191406 0.015625)"/>
       <use xlink:href="#DejaVuSans-Oblique-61" transform="translate(381.396484 0.015625)"/>
       <use xlink:href="#DejaVuSans-Oblique-63" transform="translate(442.675781 0.015625)"/>
       <use xlink:href="#DejaVuSans-Oblique-69" transform="translate(497.65625 0.015625)"/>
       <use xlink:href="#DejaVuSans-Oblique-65" transform="translate(525.439453 0.015625)"/>
       <use xlink:href="#DejaVuSans-Oblique-6e" transform="translate(586.962891 0.015625)"/>
       <use xlink:href="#DejaVuSans-Oblique-73" transform="translate(650.341797 0.015625)"/>
      </g>
     </g>
    </g>
    <g id="ytick_3">
     <g id="line2d_31">
      <g>
       <use xlink:href="#m185ef4e35c" x="166.029375" y="430.294737" style="stroke: #000000; stroke-width: 0.8"/>
      </g>
     </g>
     <g id="text_8">
      <!-- $C. scindens$ -->
      <g transform="translate(91.829375 434.853799) scale(0.12 -0.12)">
       <defs>
        <path id="DejaVuSans-Oblique-64" d="M 2675 525 
Q 2444 222 2128 65 
Q 1813 -91 1428 -91 
Q 903 -91 598 267 
Q 294 625 294 1247 
Q 294 1766 478 2236 
Q 663 2706 1013 3078 
Q 1244 3325 1534 3454 
Q 1825 3584 2144 3584 
Q 2481 3584 2739 3421 
Q 2997 3259 3138 2956 
L 3513 4863 
L 4091 4863 
L 3144 0 
L 2566 0 
L 2675 525 
z
M 891 1350 
Q 891 897 1095 644 
Q 1300 391 1663 391 
Q 1931 391 2161 520 
Q 2391 650 2566 903 
Q 2750 1166 2856 1509 
Q 2963 1853 2963 2188 
Q 2963 2622 2758 2865 
Q 2553 3109 2194 3109 
Q 1922 3109 1687 2981 
Q 1453 2853 1288 2613 
Q 1106 2353 998 2009 
Q 891 1666 891 1350 
z
" transform="scale(0.015625)"/>
       </defs>
       <use xlink:href="#DejaVuSans-Oblique-43" transform="translate(0 0.015625)"/>
       <use xlink:href="#DejaVuSans-2e" transform="translate(69.824219 0.015625)"/>
       <use xlink:href="#DejaVuSans-Oblique-73" transform="translate(121.09375 0.015625)"/>
       <use xlink:href="#DejaVuSans-Oblique-63" transform="translate(173.193359 0.015625)"/>
       <use xlink:href="#DejaVuSans-Oblique-69" transform="translate(228.173828 0.015625)"/>
       <use xlink:href="#DejaVuSans-Oblique-6e" transform="translate(255.957031 0.015625)"/>
       <use xlink:href="#DejaVuSans-Oblique-64" transform="translate(319.335938 0.015625)"/>
       <use xlink:href="#DejaVuSans-Oblique-65" transform="translate(382.8125 0.015625)"/>
       <use xlink:href="#DejaVuSans-Oblique-6e" transform="translate(444.335938 0.015625)"/>
       <use xlink:href="#DejaVuSans-Oblique-73" transform="translate(507.714844 0.015625)"/>
      </g>
     </g>
    </g>
    <g id="ytick_4">
     <g id="line2d_32">
      <g>
       <use xlink:href="#m185ef4e35c" x="166.029375" y="381.663158" style="stroke: #000000; stroke-width: 0.8"/>
      </g>
     </g>
     <g id="text_9">
      <!-- $P. distasonis$ -->
      <g transform="translate(85.589375 386.22222) scale(0.12 -0.12)">
       <defs>
        <path id="DejaVuSans-Oblique-50" d="M 1081 4666 
L 2541 4666 
Q 3178 4666 3512 4369 
Q 3847 4072 3847 3500 
Q 3847 2731 3353 2303 
Q 2859 1875 1966 1875 
L 1172 1875 
L 806 0 
L 172 0 
L 1081 4666 
z
M 1613 4147 
L 1275 2394 
L 2069 2394 
Q 2606 2394 2893 2669 
Q 3181 2944 3181 3456 
Q 3181 3784 2986 3965 
Q 2791 4147 2438 4147 
L 1613 4147 
z
" transform="scale(0.015625)"/>
        <path id="DejaVuSans-Oblique-74" d="M 2706 3500 
L 2619 3053 
L 1472 3053 
L 1100 1153 
Q 1081 1047 1072 975 
Q 1063 903 1063 863 
Q 1063 663 1183 572 
Q 1303 481 1569 481 
L 2150 481 
L 2053 0 
L 1503 0 
Q 991 0 739 200 
Q 488 400 488 806 
Q 488 878 497 964 
Q 506 1050 525 1153 
L 897 3053 
L 409 3053 
L 500 3500 
L 978 3500 
L 1172 4494 
L 1747 4494 
L 1556 3500 
L 2706 3500 
z
" transform="scale(0.015625)"/>
       </defs>
       <use xlink:href="#DejaVuSans-Oblique-50" transform="translate(0 0.015625)"/>
       <use xlink:href="#DejaVuSans-2e" transform="translate(60.302734 0.015625)"/>
       <use xlink:href="#DejaVuSans-Oblique-64" transform="translate(111.572266 0.015625)"/>
       <use xlink:href="#DejaVuSans-Oblique-69" transform="translate(175.048828 0.015625)"/>
       <use xlink:href="#DejaVuSans-Oblique-73" transform="translate(202.832031 0.015625)"/>
       <use xlink:href="#DejaVuSans-Oblique-74" transform="translate(254.931641 0.015625)"/>
       <use xlink:href="#DejaVuSans-Oblique-61" transform="translate(294.140625 0.015625)"/>
       <use xlink:href="#DejaVuSans-Oblique-73" transform="translate(355.419922 0.015625)"/>
       <use xlink:href="#DejaVuSans-Oblique-6f" transform="translate(407.519531 0.015625)"/>
       <use xlink:href="#DejaVuSans-Oblique-6e" transform="translate(468.701172 0.015625)"/>
       <use xlink:href="#DejaVuSans-Oblique-69" transform="translate(532.080078 0.015625)"/>
       <use xlink:href="#DejaVuSans-Oblique-73" transform="translate(559.863281 0.015625)"/>
      </g>
     </g>
    </g>
    <g id="ytick_5">
     <g id="line2d_33">
      <g>
       <use xlink:href="#m185ef4e35c" x="166.029375" y="333.031579" style="stroke: #000000; stroke-width: 0.8"/>
      </g>
     </g>
     <g id="text_10">
      <!-- $B. uniformis$ -->
      <g transform="translate(88.229375 337.590641) scale(0.12 -0.12)">
       <defs>
        <path id="DejaVuSans-Oblique-42" d="M 1081 4666 
L 2694 4666 
Q 3350 4666 3675 4422 
Q 4000 4178 4000 3688 
Q 4000 3238 3720 2911 
Q 3441 2584 2988 2516 
Q 3375 2428 3569 2181 
Q 3763 1934 3763 1522 
Q 3763 819 3242 409 
Q 2722 0 1819 0 
L 172 0 
L 1081 4666 
z
M 1234 2228 
L 903 519 
L 1919 519 
Q 2491 519 2800 781 
Q 3109 1044 3109 1522 
Q 3109 1891 2904 2059 
Q 2700 2228 2247 2228 
L 1234 2228 
z
M 1606 4147 
L 1331 2741 
L 2272 2741 
Q 2775 2741 3058 2959 
Q 3341 3178 3341 3566 
Q 3341 3869 3150 4008 
Q 2959 4147 2541 4147 
L 1606 4147 
z
" transform="scale(0.015625)"/>
        <path id="DejaVuSans-Oblique-75" d="M 428 1388 
L 838 3500 
L 1416 3500 
L 1006 1409 
Q 975 1256 961 1147 
Q 947 1038 947 966 
Q 947 700 1109 554 
Q 1272 409 1569 409 
Q 2031 409 2368 721 
Q 2706 1034 2809 1563 
L 3194 3500 
L 3769 3500 
L 3091 0 
L 2516 0 
L 2631 550 
Q 2388 244 2052 76 
Q 1716 -91 1338 -91 
Q 878 -91 622 161 
Q 366 413 366 863 
Q 366 956 381 1097 
Q 397 1238 428 1388 
z
" transform="scale(0.015625)"/>
       </defs>
       <use xlink:href="#DejaVuSans-Oblique-42" transform="translate(0 0.015625)"/>
       <use xlink:href="#DejaVuSans-2e" transform="translate(68.603516 0.015625)"/>
       <use xlink:href="#DejaVuSans-Oblique-75" transform="translate(119.873047 0.015625)"/>
       <use xlink:href="#DejaVuSans-Oblique-6e" transform="translate(183.251953 0.015625)"/>
       <use xlink:href="#DejaVuSans-Oblique-69" transform="translate(246.630859 0.015625)"/>
       <use xlink:href="#DejaVuSans-Oblique-66" transform="translate(274.414062 0.015625)"/>
       <use xlink:href="#DejaVuSans-Oblique-6f" transform="translate(309.619141 0.015625)"/>
       <use xlink:href="#DejaVuSans-Oblique-72" transform="translate(370.800781 0.015625)"/>
       <use xlink:href="#DejaVuSans-Oblique-6d" transform="translate(411.914062 0.015625)"/>
       <use xlink:href="#DejaVuSans-Oblique-69" transform="translate(509.326172 0.015625)"/>
       <use xlink:href="#DejaVuSans-Oblique-73" transform="translate(537.109375 0.015625)"/>
      </g>
     </g>
    </g>
    <g id="ytick_6">
     <g id="line2d_34">
      <g>
       <use xlink:href="#m185ef4e35c" x="166.029375" y="284.4" style="stroke: #000000; stroke-width: 0.8"/>
      </g>
     </g>
     <g id="text_11">
      <!-- $R. obeum$ -->
      <g transform="translate(102.869375 288.959062) scale(0.12 -0.12)">
       <defs>
        <path id="DejaVuSans-Oblique-52" d="M 1613 4147 
L 1294 2491 
L 2106 2491 
Q 2584 2491 2879 2755 
Q 3175 3019 3175 3444 
Q 3175 3784 2976 3965 
Q 2778 4147 2406 4147 
L 1613 4147 
z
M 2772 2241 
Q 2972 2194 3105 2009 
Q 3238 1825 3413 1275 
L 3809 0 
L 3144 0 
L 2778 1197 
Q 2638 1659 2453 1815 
Q 2269 1972 1888 1972 
L 1191 1972 
L 806 0 
L 172 0 
L 1081 4666 
L 2503 4666 
Q 3150 4666 3495 4373 
Q 3841 4081 3841 3531 
Q 3841 3044 3547 2687 
Q 3253 2331 2772 2241 
z
" transform="scale(0.015625)"/>
        <path id="DejaVuSans-Oblique-62" d="M 3169 2138 
Q 3169 2591 2961 2847 
Q 2753 3103 2388 3103 
Q 2122 3103 1889 2973 
Q 1656 2844 1484 2597 
Q 1303 2338 1198 1995 
Q 1094 1653 1094 1313 
Q 1094 881 1298 636 
Q 1503 391 1863 391 
Q 2134 391 2365 517 
Q 2597 644 2772 891 
Q 2950 1147 3059 1487 
Q 3169 1828 3169 2138 
z
M 1381 2969 
Q 1594 3256 1914 3420 
Q 2234 3584 2584 3584 
Q 3122 3584 3439 3221 
Q 3756 2859 3756 2241 
Q 3756 1734 3570 1259 
Q 3384 784 3041 416 
Q 2816 172 2522 40 
Q 2228 -91 1906 -91 
Q 1566 -91 1316 65 
Q 1066 222 909 531 
L 806 0 
L 231 0 
L 1178 4863 
L 1753 4863 
L 1381 2969 
z
" transform="scale(0.015625)"/>
       </defs>
       <use xlink:href="#DejaVuSans-Oblique-52" transform="translate(0 0.015625)"/>
       <use xlink:href="#DejaVuSans-2e" transform="translate(69.482422 0.015625)"/>
       <use xlink:href="#DejaVuSans-Oblique-6f" transform="translate(120.751953 0.015625)"/>
       <use xlink:href="#DejaVuSans-Oblique-62" transform="translate(181.933594 0.015625)"/>
       <use xlink:href="#DejaVuSans-Oblique-65" transform="translate(245.410156 0.015625)"/>
       <use xlink:href="#DejaVuSans-Oblique-75" transform="translate(306.933594 0.015625)"/>
       <use xlink:href="#DejaVuSans-Oblique-6d" transform="translate(370.3125 0.015625)"/>
      </g>
     </g>
    </g>
    <g id="ytick_7">
     <g id="line2d_35">
      <g>
       <use xlink:href="#m185ef4e35c" x="166.029375" y="235.768421" style="stroke: #000000; stroke-width: 0.8"/>
      </g>
     </g>
     <g id="text_12">
      <!-- $B. ovatus$ -->
      <g transform="translate(104.189375 240.327484) scale(0.12 -0.12)">
       <defs>
        <path id="DejaVuSans-Oblique-76" d="M 459 3500 
L 1069 3500 
L 1581 525 
L 3256 3500 
L 3866 3500 
L 1875 0 
L 1100 0 
L 459 3500 
z
" transform="scale(0.015625)"/>
       </defs>
       <use xlink:href="#DejaVuSans-Oblique-42" transform="translate(0 0.09375)"/>
       <use xlink:href="#DejaVuSans-2e" transform="translate(68.603516 0.09375)"/>
       <use xlink:href="#DejaVuSans-Oblique-6f" transform="translate(119.873047 0.09375)"/>
       <use xlink:href="#DejaVuSans-Oblique-76" transform="translate(181.054688 0.09375)"/>
       <use xlink:href="#DejaVuSans-Oblique-61" transform="translate(240.234375 0.09375)"/>
       <use xlink:href="#DejaVuSans-Oblique-74" transform="translate(301.513672 0.09375)"/>
       <use xlink:href="#DejaVuSans-Oblique-75" transform="translate(340.722656 0.09375)"/>
       <use xlink:href="#DejaVuSans-Oblique-73" transform="translate(404.101562 0.09375)"/>
      </g>
     </g>
    </g>
    <g id="ytick_8">
     <g id="line2d_36">
      <g>
       <use xlink:href="#m185ef4e35c" x="166.029375" y="187.136842" style="stroke: #000000; stroke-width: 0.8"/>
      </g>
     </g>
     <g id="text_13">
      <!-- $B. thetaiotaomicron$ -->
      <g transform="translate(41.309375 191.695905) scale(0.12 -0.12)">
       <defs>
        <path id="DejaVuSans-Oblique-68" d="M 3566 2113 
L 3156 0 
L 2578 0 
L 2988 2091 
Q 3016 2238 3031 2350 
Q 3047 2463 3047 2528 
Q 3047 2791 2881 2937 
Q 2716 3084 2419 3084 
Q 1956 3084 1617 2771 
Q 1278 2459 1178 1941 
L 800 0 
L 225 0 
L 1172 4863 
L 1747 4863 
L 1375 2950 
Q 1594 3244 1934 3414 
Q 2275 3584 2650 3584 
Q 3113 3584 3367 3334 
Q 3622 3084 3622 2631 
Q 3622 2519 3608 2391 
Q 3594 2263 3566 2113 
z
" transform="scale(0.015625)"/>
       </defs>
       <use xlink:href="#DejaVuSans-Oblique-42" transform="translate(0 0.015625)"/>
       <use xlink:href="#DejaVuSans-2e" transform="translate(68.603516 0.015625)"/>
       <use xlink:href="#DejaVuSans-Oblique-74" transform="translate(119.873047 0.015625)"/>
       <use xlink:href="#DejaVuSans-Oblique-68" transform="translate(159.082031 0.015625)"/>
       <use xlink:href="#DejaVuSans-Oblique-65" transform="translate(222.460938 0.015625)"/>
       <use xlink:href="#DejaVuSans-Oblique-74" transform="translate(283.984375 0.015625)"/>
       <use xlink:href="#DejaVuSans-Oblique-61" transform="translate(323.193359 0.015625)"/>
       <use xlink:href="#DejaVuSans-Oblique-69" transform="translate(384.472656 0.015625)"/>
       <use xlink:href="#DejaVuSans-Oblique-6f" transform="translate(412.255859 0.015625)"/>
       <use xlink:href="#DejaVuSans-Oblique-74" transform="translate(473.4375 0.015625)"/>
       <use xlink:href="#DejaVuSans-Oblique-61" transform="translate(512.646484 0.015625)"/>
       <use xlink:href="#DejaVuSans-Oblique-6f" transform="translate(573.925781 0.015625)"/>
       <use xlink:href="#DejaVuSans-Oblique-6d" transform="translate(635.107422 0.015625)"/>
       <use xlink:href="#DejaVuSans-Oblique-69" transform="translate(732.519531 0.015625)"/>
       <use xlink:href="#DejaVuSans-Oblique-63" transform="translate(760.302734 0.015625)"/>
       <use xlink:href="#DejaVuSans-Oblique-72" transform="translate(815.283203 0.015625)"/>
       <use xlink:href="#DejaVuSans-Oblique-6f" transform="translate(856.396484 0.015625)"/>
       <use xlink:href="#DejaVuSans-Oblique-6e" transform="translate(917.578125 0.015625)"/>
      </g>
     </g>
    </g>
    <g id="ytick_9">
     <g id="line2d_37">
      <g>
       <use xlink:href="#m185ef4e35c" x="166.029375" y="138.505263" style="stroke: #000000; stroke-width: 0.8"/>
      </g>
     </g>
     <g id="text_14">
      <!-- $B. vulgatus$ -->
      <g transform="translate(93.029375 143.065263) scale(0.12 -0.12)">
       <defs>
        <path id="DejaVuSans-Oblique-6c" d="M 1172 4863 
L 1747 4863 
L 800 0 
L 225 0 
L 1172 4863 
z
" transform="scale(0.015625)"/>
        <path id="DejaVuSans-Oblique-67" d="M 3816 3500 
L 3219 434 
Q 3047 -456 2561 -893 
Q 2075 -1331 1253 -1331 
Q 950 -1331 690 -1286 
Q 431 -1241 206 -1147 
L 313 -588 
Q 525 -725 762 -790 
Q 1000 -856 1269 -856 
Q 1816 -856 2167 -557 
Q 2519 -259 2631 300 
L 2681 563 
Q 2441 288 2122 144 
Q 1803 0 1434 0 
Q 903 0 598 351 
Q 294 703 294 1319 
Q 294 1803 478 2267 
Q 663 2731 997 3091 
Q 1219 3328 1514 3456 
Q 1809 3584 2131 3584 
Q 2484 3584 2746 3420 
Q 3009 3256 3138 2956 
L 3238 3500 
L 3816 3500 
z
M 2950 2216 
Q 2950 2641 2750 2872 
Q 2550 3103 2181 3103 
Q 1953 3103 1747 3012 
Q 1541 2922 1394 2759 
Q 1156 2491 1023 2127 
Q 891 1763 891 1375 
Q 891 944 1092 712 
Q 1294 481 1672 481 
Q 2219 481 2584 976 
Q 2950 1472 2950 2216 
z
" transform="scale(0.015625)"/>
       </defs>
       <use xlink:href="#DejaVuSans-Oblique-42" transform="translate(0 0.015625)"/>
       <use xlink:href="#DejaVuSans-2e" transform="translate(68.603516 0.015625)"/>
       <use xlink:href="#DejaVuSans-Oblique-76" transform="translate(119.873047 0.015625)"/>
       <use xlink:href="#DejaVuSans-Oblique-75" transform="translate(179.052734 0.015625)"/>
       <use xlink:href="#DejaVuSans-Oblique-6c" transform="translate(242.431641 0.015625)"/>
       <use xlink:href="#DejaVuSans-Oblique-67" transform="translate(270.214844 0.015625)"/>
       <use xlink:href="#DejaVuSans-Oblique-61" transform="translate(333.691406 0.015625)"/>
       <use xlink:href="#DejaVuSans-Oblique-74" transform="translate(394.970703 0.015625)"/>
       <use xlink:href="#DejaVuSans-Oblique-75" transform="translate(434.179688 0.015625)"/>
       <use xlink:href="#DejaVuSans-Oblique-73" transform="translate(497.558594 0.015625)"/>
      </g>
     </g>
    </g>
    <g id="ytick_10">
     <g id="line2d_38">
      <g>
       <use xlink:href="#m185ef4e35c" x="166.029375" y="89.873684" style="stroke: #000000; stroke-width: 0.8"/>
      </g>
     </g>
     <g id="text_15">
      <!-- $B. caccae$ -->
      <g transform="translate(102.749375 94.432747) scale(0.12 -0.12)">
       <use xlink:href="#DejaVuSans-Oblique-42" transform="translate(0 0.09375)"/>
       <use xlink:href="#DejaVuSans-2e" transform="translate(68.603516 0.09375)"/>
       <use xlink:href="#DejaVuSans-Oblique-63" transform="translate(119.873047 0.09375)"/>
       <use xlink:href="#DejaVuSans-Oblique-61" transform="translate(174.853516 0.09375)"/>
       <use xlink:href="#DejaVuSans-Oblique-63" transform="translate(236.132812 0.09375)"/>
       <use xlink:href="#DejaVuSans-Oblique-63" transform="translate(291.113281 0.09375)"/>
       <use xlink:href="#DejaVuSans-Oblique-61" transform="translate(346.09375 0.09375)"/>
       <use xlink:href="#DejaVuSans-Oblique-65" transform="translate(407.373047 0.09375)"/>
      </g>
     </g>
    </g>
    <g id="ytick_11">
     <g id="line2d_39">
      <g>
       <use xlink:href="#m185ef4e35c" x="166.029375" y="41.242105" style="stroke: #000000; stroke-width: 0.8"/>
      </g>
     </g>
     <g id="text_16">
      <!-- $B. cellulosilyticus$ WH2 -->
      <g transform="translate(24.749375 45.802105) scale(0.12 -0.12)">
       <defs>
        <path id="DejaVuSans-Oblique-79" d="M 1588 -325 
Q 1188 -997 936 -1164 
Q 684 -1331 294 -1331 
L -159 -1331 
L -63 -850 
L 269 -850 
Q 509 -850 678 -719 
Q 847 -588 1056 -206 
L 1234 128 
L 459 3500 
L 1069 3500 
L 1650 819 
L 3256 3500 
L 3859 3500 
L 1588 -325 
z
" transform="scale(0.015625)"/>
        <path id="DejaVuSans-57" d="M 213 4666 
L 850 4666 
L 1831 722 
L 2809 4666 
L 3519 4666 
L 4500 722 
L 5478 4666 
L 6119 4666 
L 4947 0 
L 4153 0 
L 3169 4050 
L 2175 0 
L 1381 0 
L 213 4666 
z
" transform="scale(0.015625)"/>
        <path id="DejaVuSans-48" d="M 628 4666 
L 1259 4666 
L 1259 2753 
L 3553 2753 
L 3553 4666 
L 4184 4666 
L 4184 0 
L 3553 0 
L 3553 2222 
L 1259 2222 
L 1259 0 
L 628 0 
L 628 4666 
z
" transform="scale(0.015625)"/>
        <path id="DejaVuSans-32" d="M 1228 531 
L 3431 531 
L 3431 0 
L 469 0 
L 469 531 
Q 828 903 1448 1529 
Q 2069 2156 2228 2338 
Q 2531 2678 2651 2914 
Q 2772 3150 2772 3378 
Q 2772 3750 2511 3984 
Q 2250 4219 1831 4219 
Q 1534 4219 1204 4116 
Q 875 4013 500 3803 
L 500 4441 
Q 881 4594 1212 4672 
Q 1544 4750 1819 4750 
Q 2544 4750 2975 4387 
Q 3406 4025 3406 3419 
Q 3406 3131 3298 2873 
Q 3191 2616 2906 2266 
Q 2828 2175 2409 1742 
Q 1991 1309 1228 531 
z
" transform="scale(0.015625)"/>
       </defs>
       <use xlink:href="#DejaVuSans-Oblique-42" transform="translate(0 0.015625)"/>
       <use xlink:href="#DejaVuSans-2e" transform="translate(68.603516 0.015625)"/>
       <use xlink:href="#DejaVuSans-Oblique-63" transform="translate(119.873047 0.015625)"/>
       <use xlink:href="#DejaVuSans-Oblique-65" transform="translate(174.853516 0.015625)"/>
       <use xlink:href="#DejaVuSans-Oblique-6c" transform="translate(236.376953 0.015625)"/>
       <use xlink:href="#DejaVuSans-Oblique-6c" transform="translate(264.160156 0.015625)"/>
       <use xlink:href="#DejaVuSans-Oblique-75" transform="translate(291.943359 0.015625)"/>
       <use xlink:href="#DejaVuSans-Oblique-6c" transform="translate(355.322266 0.015625)"/>
       <use xlink:href="#DejaVuSans-Oblique-6f" transform="translate(383.105469 0.015625)"/>
       <use xlink:href="#DejaVuSans-Oblique-73" transform="translate(444.287109 0.015625)"/>
       <use xlink:href="#DejaVuSans-Oblique-69" transform="translate(496.386719 0.015625)"/>
       <use xlink:href="#DejaVuSans-Oblique-6c" transform="translate(524.169922 0.015625)"/>
       <use xlink:href="#DejaVuSans-Oblique-79" transform="translate(551.953125 0.015625)"/>
       <use xlink:href="#DejaVuSans-Oblique-74" transform="translate(611.132812 0.015625)"/>
       <use xlink:href="#DejaVuSans-Oblique-69" transform="translate(650.341797 0.015625)"/>
       <use xlink:href="#DejaVuSans-Oblique-63" transform="translate(678.125 0.015625)"/>
       <use xlink:href="#DejaVuSans-Oblique-75" transform="translate(733.105469 0.015625)"/>
       <use xlink:href="#DejaVuSans-Oblique-73" transform="translate(796.484375 0.015625)"/>
       <use xlink:href="#DejaVuSans-20" transform="translate(848.583984 0.015625)"/>
       <use xlink:href="#DejaVuSans-57" transform="translate(880.371094 0.015625)"/>
       <use xlink:href="#DejaVuSans-48" transform="translate(979.248047 0.015625)"/>
       <use xlink:href="#DejaVuSans-32" transform="translate(1054.443359 0.015625)"/>
      </g>
     </g>
    </g>
    <g id="text_17">
     <!-- Species -->
     <g transform="translate(17.837813 311.342344) rotate(-90) scale(0.14 -0.14)">
      <defs>
       <path id="DejaVuSans-70" d="M 1159 525 
L 1159 -1331 
L 581 -1331 
L 581 3500 
L 1159 3500 
L 1159 2969 
Q 1341 3281 1617 3432 
Q 1894 3584 2278 3584 
Q 2916 3584 3314 3078 
Q 3713 2572 3713 1747 
Q 3713 922 3314 415 
Q 2916 -91 2278 -91 
Q 1894 -91 1617 61 
Q 1341 213 1159 525 
z
M 3116 1747 
Q 3116 2381 2855 2742 
Q 2594 3103 2138 3103 
Q 1681 3103 1420 2742 
Q 1159 2381 1159 1747 
Q 1159 1113 1420 752 
Q 1681 391 2138 391 
Q 2594 391 2855 752 
Q 3116 1113 3116 1747 
z
" transform="scale(0.015625)"/>
       <path id="DejaVuSans-73" d="M 2834 3397 
L 2834 2853 
Q 2591 2978 2328 3040 
Q 2066 3103 1784 3103 
Q 1356 3103 1142 2972 
Q 928 2841 928 2578 
Q 928 2378 1081 2264 
Q 1234 2150 1697 2047 
L 1894 2003 
Q 2506 1872 2764 1633 
Q 3022 1394 3022 966 
Q 3022 478 2636 193 
Q 2250 -91 1575 -91 
Q 1294 -91 989 -36 
Q 684 19 347 128 
L 347 722 
Q 666 556 975 473 
Q 1284 391 1588 391 
Q 1994 391 2212 530 
Q 2431 669 2431 922 
Q 2431 1156 2273 1281 
Q 2116 1406 1581 1522 
L 1381 1569 
Q 847 1681 609 1914 
Q 372 2147 372 2553 
Q 372 3047 722 3315 
Q 1072 3584 1716 3584 
Q 2034 3584 2315 3537 
Q 2597 3491 2834 3397 
z
" transform="scale(0.015625)"/>
      </defs>
      <use xlink:href="#DejaVuSans-53"/>
      <use xlink:href="#DejaVuSans-70" x="63.476562"/>
      <use xlink:href="#DejaVuSans-65" x="126.953125"/>
      <use xlink:href="#DejaVuSans-63" x="188.476562"/>
      <use xlink:href="#DejaVuSans-69" x="243.457031"/>
      <use xlink:href="#DejaVuSans-65" x="271.240234"/>
      <use xlink:href="#DejaVuSans-73" x="332.763672"/>
     </g>
    </g>
   </g>
   <g id="patch_25">
    <path d="M 166.029375 561.6 
L 166.029375 7.2 
" style="fill: none; stroke: #000000; stroke-width: 0.8; stroke-linejoin: miter; stroke-linecap: square"/>
   </g>
   <g id="patch_26">
    <path d="M 724.029375 561.6 
L 724.029375 7.2 
" style="fill: none; stroke: #000000; stroke-width: 0.8; stroke-linejoin: miter; stroke-linecap: square"/>
   </g>
   <g id="patch_27">
    <path d="M 166.029375 561.6 
L 724.029375 561.6 
" style="fill: none; stroke: #000000; stroke-width: 0.8; stroke-linejoin: miter; stroke-linecap: square"/>
   </g>
   <g id="patch_28">
    <path d="M 166.029375 7.2 
L 724.029375 7.2 
" style="fill: none; stroke: #000000; stroke-width: 0.8; stroke-linejoin: miter; stroke-linecap: square"/>
   </g>
   <g id="legend_1">
    <g id="patch_29">
     <path d="M 559.95 52.0275 
L 715.629375 52.0275 
Q 718.029375 52.0275 718.029375 49.6275 
L 718.029375 15.6 
Q 718.029375 13.2 715.629375 13.2 
L 559.95 13.2 
Q 557.55 13.2 557.55 15.6 
L 557.55 49.6275 
Q 557.55 52.0275 559.95 52.0275 
z
" style="fill: #ffffff; opacity: 0.8; stroke: #cccccc; stroke-linejoin: miter"/>
    </g>
    <g id="patch_30">
     <path d="M 562.35 27.118125 
L 586.35 27.118125 
L 586.35 18.718125 
L 562.35 18.718125 
z
" style="fill: #6a3d9a; opacity: 0.9; stroke: #000000; stroke-width: 0.8; stroke-linejoin: miter"/>
    </g>
    <g id="text_18">
     <!-- LF0 self interaction -->
     <g transform="translate(595.95 27.118125) scale(0.12 -0.12)">
      <defs>
       <path id="DejaVuSans-4c" d="M 628 4666 
L 1259 4666 
L 1259 531 
L 3531 531 
L 3531 0 
L 628 0 
L 628 4666 
z
" transform="scale(0.015625)"/>
       <path id="DejaVuSans-46" d="M 628 4666 
L 3309 4666 
L 3309 4134 
L 1259 4134 
L 1259 2759 
L 3109 2759 
L 3109 2228 
L 1259 2228 
L 1259 0 
L 628 0 
L 628 4666 
z
" transform="scale(0.015625)"/>
      </defs>
      <use xlink:href="#DejaVuSans-4c"/>
      <use xlink:href="#DejaVuSans-46" x="55.712891"/>
      <use xlink:href="#DejaVuSans-30" x="113.232422"/>
      <use xlink:href="#DejaVuSans-20" x="176.855469"/>
      <use xlink:href="#DejaVuSans-73" x="208.642578"/>
      <use xlink:href="#DejaVuSans-65" x="260.742188"/>
      <use xlink:href="#DejaVuSans-6c" x="322.265625"/>
      <use xlink:href="#DejaVuSans-66" x="350.048828"/>
      <use xlink:href="#DejaVuSans-20" x="385.253906"/>
      <use xlink:href="#DejaVuSans-69" x="417.041016"/>
      <use xlink:href="#DejaVuSans-6e" x="444.824219"/>
      <use xlink:href="#DejaVuSans-74" x="508.203125"/>
      <use xlink:href="#DejaVuSans-65" x="547.412109"/>
      <use xlink:href="#DejaVuSans-72" x="608.935547"/>
      <use xlink:href="#DejaVuSans-61" x="650.048828"/>
      <use xlink:href="#DejaVuSans-63" x="711.328125"/>
      <use xlink:href="#DejaVuSans-74" x="766.308594"/>
      <use xlink:href="#DejaVuSans-69" x="805.517578"/>
      <use xlink:href="#DejaVuSans-6f" x="833.300781"/>
      <use xlink:href="#DejaVuSans-6e" x="894.482422"/>
     </g>
    </g>
    <g id="patch_31">
     <path d="M 562.35 44.731875 
L 586.35 44.731875 
L 586.35 36.331875 
L 562.35 36.331875 
z
" style="fill: #ff7f00; opacity: 0.9; stroke: #000000; stroke-width: 0.8; stroke-linejoin: miter"/>
    </g>
    <g id="text_19">
     <!-- HF0 self interaction -->
     <g transform="translate(595.95 44.731875) scale(0.12 -0.12)">
      <use xlink:href="#DejaVuSans-48"/>
      <use xlink:href="#DejaVuSans-46" x="75.195312"/>
      <use xlink:href="#DejaVuSans-30" x="132.714844"/>
      <use xlink:href="#DejaVuSans-20" x="196.337891"/>
      <use xlink:href="#DejaVuSans-73" x="228.125"/>
      <use xlink:href="#DejaVuSans-65" x="280.224609"/>
      <use xlink:href="#DejaVuSans-6c" x="341.748047"/>
      <use xlink:href="#DejaVuSans-66" x="369.53125"/>
      <use xlink:href="#DejaVuSans-20" x="404.736328"/>
      <use xlink:href="#DejaVuSans-69" x="436.523438"/>
      <use xlink:href="#DejaVuSans-6e" x="464.306641"/>
      <use xlink:href="#DejaVuSans-74" x="527.685547"/>
      <use xlink:href="#DejaVuSans-65" x="566.894531"/>
      <use xlink:href="#DejaVuSans-72" x="628.417969"/>
      <use xlink:href="#DejaVuSans-61" x="669.53125"/>
      <use xlink:href="#DejaVuSans-63" x="730.810547"/>
      <use xlink:href="#DejaVuSans-74" x="785.791016"/>
      <use xlink:href="#DejaVuSans-69" x="825"/>
      <use xlink:href="#DejaVuSans-6f" x="852.783203"/>
      <use xlink:href="#DejaVuSans-6e" x="913.964844"/>
     </g>
    </g>
   </g>
  </g>
 </g>
 <defs>
  <clipPath id="pbc62d934c5">
   <rect x="166.029375" y="7.2" width="558" height="554.4"/>
  </clipPath>
 </defs>
</svg>
