<?xml version="1.0" encoding="UTF-8" standalone="no"?>
<svg
   width="271.5925pt"
   height="485.67062pt"
   viewBox="0 0 271.5925 485.67062"
   version="1.1"
   id="svg117"
   sodipodi:docname="perturbation.svg"
   inkscape:version="1.3 (1:1.3+202307231459+0e150ed6c4)"
   xmlns:inkscape="http://www.inkscape.org/namespaces/inkscape"
   xmlns:sodipodi="http://sodipodi.sourceforge.net/DTD/sodipodi-0.dtd"
   xmlns:xlink="http://www.w3.org/1999/xlink"
   xmlns="http://www.w3.org/2000/svg"
   xmlns:svg="http://www.w3.org/2000/svg"
   xmlns:rdf="http://www.w3.org/1999/02/22-rdf-syntax-ns#"
   xmlns:cc="http://creativecommons.org/ns#"
   xmlns:dc="http://purl.org/dc/elements/1.1/">
  <sodipodi:namedview
     id="namedview117"
     pagecolor="#ffffff"
     bordercolor="#999999"
     borderopacity="1"
     inkscape:showpageshadow="2"
     inkscape:pageopacity="0"
     inkscape:pagecheckerboard="0"
     inkscape:deskcolor="#d1d1d1"
     inkscape:document-units="pt"
     inkscape:zoom="1.2249963"
     inkscape:cx="-106.53093"
     inkscape:cy="323.67445"
     inkscape:window-width="1848"
     inkscape:window-height="1016"
     inkscape:window-x="72"
     inkscape:window-y="27"
     inkscape:window-maximized="1"
     inkscape:current-layer="svg117" />
  <metadata
     id="metadata1">
    <rdf:RDF>
      <cc:Work>
        <dc:type
           rdf:resource="http://purl.org/dc/dcmitype/StillImage" />
        <dc:date>2023-08-02T15:55:26.372558</dc:date>
        <dc:format>image/svg+xml</dc:format>
        <dc:creator>
          <cc:Agent>
            <dc:title>Matplotlib v3.7.1, https://matplotlib.org/</dc:title>
          </cc:Agent>
        </dc:creator>
      </cc:Work>
    </rdf:RDF>
  </metadata>
  <defs
     id="defs1">
    <style
       type="text/css"
       id="style1">*{stroke-linejoin: round; stroke-linecap: butt}</style>
    <clipPath
       id="p4b49c86a48-6">
      <rect
         x="55.192501"
         y="7.1999998"
         width="223.2"
         height="443.51999"
         id="rect117-2" />
    </clipPath>
  </defs>
  <path
     d="m 133.96897,440.99368 v 0 -17.50736 0 z"
     clip-path="url(#p4b49c86a48)"
     style="opacity:0.9;fill:#ff7f00;stroke:#000000;stroke-width:0.8;stroke-linejoin:miter"
     id="path3"
     transform="translate(-7.2000005,1.4999875)" />
  <path
     d="m 133.96897,402.08842 v 0 -17.50737 0 z"
     clip-path="url(#p4b49c86a48)"
     style="opacity:0.9;fill:#ff7f00;stroke:#000000;stroke-width:0.8;stroke-linejoin:miter"
     id="path4"
     transform="translate(-7.2000005,1.4999875)" />
  <path
     d="m 133.96897,363.18316 v 0 -17.50737 0 z"
     clip-path="url(#p4b49c86a48)"
     style="opacity:0.9;fill:#ff7f00;stroke:#000000;stroke-width:0.8;stroke-linejoin:miter"
     id="path5"
     transform="translate(-7.2000005,1.4999875)" />
  <path
     d="m 133.96897,324.27789 v 0 -17.50736 0 z"
     clip-path="url(#p4b49c86a48)"
     style="opacity:0.9;fill:#ff7f00;stroke:#000000;stroke-width:0.8;stroke-linejoin:miter"
     id="path6"
     transform="translate(-7.2000005,1.4999875)" />
  <path
     d="m 133.96897,285.37263 h 98.45491 v -17.50737 h -98.45491 z"
     clip-path="url(#p4b49c86a48)"
     style="opacity:0.9;fill:#ff7f00;stroke:#000000;stroke-width:0.8;stroke-linejoin:miter"
     id="path7"
     transform="translate(-7.2000005,1.4999875)" />
  <path
     d="m 133.96897,246.46737 h 88.47997 V 228.96 h -88.47997 z"
     clip-path="url(#p4b49c86a48)"
     style="opacity:0.9;fill:#ff7f00;stroke:#000000;stroke-width:0.8;stroke-linejoin:miter"
     id="path8"
     transform="translate(-7.2000005,1.4999875)" />
  <path
     d="M 133.96897,207.5621 H 1902.9533 V 190.05474 H 133.96897 Z"
     clip-path="url(#p4b49c86a48)"
     style="opacity:0.9;fill:#ff7f00;stroke:#000000;stroke-width:0.8;stroke-linejoin:miter"
     id="path9"
     transform="matrix(0.97472225,0,0,1,-3.8236778,1.4999875)" />
  <path
     d="m 133.96897,168.65684 v 0 -17.50737 0 z"
     clip-path="url(#p4b49c86a48)"
     style="opacity:0.9;fill:#ff7f00;stroke:#000000;stroke-width:0.8;stroke-linejoin:miter"
     id="path10"
     transform="translate(-7.2000005,1.4999875)" />
  <path
     d="m 133.96897,129.75158 v 0 -17.50737 0 z"
     clip-path="url(#p4b49c86a48)"
     style="opacity:0.9;fill:#ff7f00;stroke:#000000;stroke-width:0.8;stroke-linejoin:miter"
     id="path11"
     transform="translate(-7.2000005,1.4999875)" />
  <path
     d="M 133.96897,90.846316 H 108.98826 V 73.338947 h 24.98071 z"
     clip-path="url(#p4b49c86a48)"
     style="opacity:0.9;fill:#ff7f00;stroke:#000000;stroke-width:0.8;stroke-linejoin:miter"
     id="path12"
     transform="translate(-7.2000005,1.4999875)" />
  <path
     d="M 133.96897,51.941053 H 247.85958 V 34.433684 H 133.96897 Z"
     clip-path="url(#p4b49c86a48)"
     style="opacity:0.9;fill:#ff7f00;stroke:#000000;stroke-width:0.8;stroke-linejoin:miter"
     id="path13"
     transform="translate(-7.2000005,1.4999875)" />
  <path
     d="m 133.96897,423.48632 v 0 -17.50737 0 z"
     clip-path="url(#p4b49c86a48)"
     style="opacity:0.9;fill:#6a3d9a;stroke:#000000;stroke-width:0.8;stroke-linejoin:miter"
     id="path14"
     transform="translate(-7.2000005,1.4999875)" />
  <path
     d="m 133.96897,384.58105 v 0 -17.50737 0 z"
     clip-path="url(#p4b49c86a48)"
     style="opacity:0.9;fill:#6a3d9a;stroke:#000000;stroke-width:0.8;stroke-linejoin:miter"
     id="path15"
     transform="translate(-7.2000005,1.4999875)" />
  <path
     d="m 133.96897,345.67579 v 0 -17.50737 0 z"
     clip-path="url(#p4b49c86a48)"
     style="opacity:0.9;fill:#6a3d9a;stroke:#000000;stroke-width:0.8;stroke-linejoin:miter"
     id="path16"
     transform="translate(-7.2000005,1.4999875)" />
  <path
     d="m 133.96897,306.77053 v 0 -17.50737 0 z"
     clip-path="url(#p4b49c86a48)"
     style="opacity:0.9;fill:#6a3d9a;stroke:#000000;stroke-width:0.8;stroke-linejoin:miter"
     id="path17"
     transform="translate(-7.2000005,1.4999875)" />
  <path
     d="m 133.96897,267.86526 v 0 -17.50736 0 z"
     clip-path="url(#p4b49c86a48)"
     style="opacity:0.9;fill:#6a3d9a;stroke:#000000;stroke-width:0.8;stroke-linejoin:miter"
     id="path18"
     transform="translate(-7.2000005,1.4999875)" />
  <path
     d="M 133.96897,228.96 H 81.682156 v -17.50737 h 52.286814 z"
     clip-path="url(#p4b49c86a48)"
     style="opacity:0.9;fill:#6a3d9a;stroke:#000000;stroke-width:0.8;stroke-linejoin:miter"
     id="path19"
     transform="translate(-7.2000005,1.4999875)" />
  <path
     d="M 133.96897,190.05474 H 67.538677 v -17.50737 h 66.430293 z"
     clip-path="url(#p4b49c86a48)"
     style="opacity:0.9;fill:#6a3d9a;stroke:#000000;stroke-width:0.8;stroke-linejoin:miter"
     id="path20"
     transform="translate(-7.2000005,1.4999875)" />
  <path
     d="m 133.96897,151.14947 v 0 -17.50737 0 z"
     clip-path="url(#p4b49c86a48)"
     style="opacity:0.9;fill:#6a3d9a;stroke:#000000;stroke-width:0.8;stroke-linejoin:miter"
     id="path21"
     transform="translate(-7.2000005,1.4999875)" />
  <path
     d="m 133.96897,112.24421 v 0 -17.507368 0 z"
     clip-path="url(#p4b49c86a48)"
     style="opacity:0.9;fill:#6a3d9a;stroke:#000000;stroke-width:0.8;stroke-linejoin:miter"
     id="path22"
     transform="translate(-7.2000005,1.4999875)" />
  <path
     d="m 133.96897,73.338947 v 0 -17.507368 0 z"
     clip-path="url(#p4b49c86a48)"
     style="opacity:0.9;fill:#6a3d9a;stroke:#000000;stroke-width:0.8;stroke-linejoin:miter"
     id="path23"
     transform="translate(-7.2000005,1.4999875)" />
  <path
     d="M 133.96897,34.433684 H 84.805635 V 16.926316 h 49.163335 z"
     clip-path="url(#p4b49c86a48)"
     style="opacity:0.9;fill:#6a3d9a;stroke:#000000;stroke-width:0.8;stroke-linejoin:miter"
     id="path24"
     transform="translate(-7.2000005,1.4999875)" />
  <g
     id="line2d_1"
     transform="translate(-7.2000005,1.4999875)">
    <defs
       id="defs24">
      <path
         id="m98f8df846e"
         d="M 0,0 V 3.5"
         style="stroke:#000000;stroke-width:0.8" />
    </defs>
    <g
       id="g24">
      <use
         xlink:href="#m98f8df846e"
         x="68.321915"
         y="450.72"
         style="stroke:#000000;stroke-width:0.8"
         id="use24" />
    </g>
  </g>
  <g
     id="text_1"
     transform="translate(-7.2000005,1.4999875)">
    <!-- −1 -->
    <g
       transform="matrix(0.12,0,0,-0.12,59.476599,466.83812)"
       id="g26">
      <defs
         id="defs25">
        <path
           id="DejaVuSans-2212"
           d="M 678,2272 H 4684 V 1741 H 678 Z"
           transform="scale(0.015625)" />
        <path
           id="DejaVuSans-31"
           d="M 794,531 H 1825 V 4091 L 703,3866 v 575 l 1116,225 h 631 V 531 H 3481 V 0 H 794 Z"
           transform="scale(0.015625)" />
      </defs>
      <use
         xlink:href="#DejaVuSans-2212"
         id="use25" />
      <use
         xlink:href="#DejaVuSans-31"
         x="83.789062"
         id="use26" />
    </g>
  </g>
  <g
     id="line2d_2"
     transform="translate(-7.2000005,1.4999875)">
    <g
       id="g27">
      <use
         xlink:href="#m98f8df846e"
         x="133.96896"
         y="450.72"
         style="stroke:#000000;stroke-width:0.8"
         id="use27" />
    </g>
  </g>
  <g
     id="text_2"
     transform="translate(-7.2000005,1.4999875)">
    <!-- 0 -->
    <g
       transform="matrix(0.12,0,0,-0.12,130.15147,466.83812)"
       id="g28">
      <defs
         id="defs27">
        <path
           id="DejaVuSans-30"
           d="m 2034,4250 q -487,0 -733,-480 -245,-479 -245,-1442 0,-959 245,-1439 246,-480 733,-480 491,0 736,480 246,480 246,1439 0,963 -246,1442 -245,480 -736,480 z m 0,500 q 785,0 1199,-621 414,-620 414,-1801 0,-1178 -414,-1799 -414,-620 -1199,-620 -784,0 -1198,620 -414,621 -414,1799 0,1181 414,1801 414,621 1198,621 z"
           transform="scale(0.015625)" />
      </defs>
      <use
         xlink:href="#DejaVuSans-30"
         id="use28" />
    </g>
  </g>
  <g
     id="line2d_3"
     transform="translate(-7.2000005,1.4999875)">
    <g
       id="g29">
      <use
         xlink:href="#m98f8df846e"
         x="199.61603"
         y="450.72"
         style="stroke:#000000;stroke-width:0.8"
         id="use29" />
    </g>
  </g>
  <g
     id="text_3"
     transform="translate(-7.2000005,1.4999875)">
    <!-- 1 -->
    <g
       transform="matrix(0.12,0,0,-0.12,195.79853,466.83812)"
       id="g30">
      <use
         xlink:href="#DejaVuSans-31"
         id="use30" />
    </g>
  </g>
  <g
     id="line2d_4"
     transform="translate(-1.2000005,1.4999875)">
    <g
       id="g31">
      <use
         xlink:href="#m98f8df846e"
         x="265.26309"
         y="450.72"
         style="stroke:#000000;stroke-width:0.8"
         id="use31" />
    </g>
  </g>
  <g
     id="text_4"
     transform="translate(-4.2000005,1.4999875)">
    <!-- 2 -->
    <g
       transform="matrix(0.12,0,0,-0.12,261.44559,466.83812)"
       id="g32">
      <defs
         id="defs31">
        <path
           id="DejaVuSans-32"
           d="M 1228,531 H 3431 V 0 H 469 v 531 q 359,372 979,998 621,627 780,809 303,340 423,576 121,236 121,464 0,372 -261,606 -261,235 -680,235 -297,0 -627,-103 -329,-103 -704,-313 v 638 q 381,153 712,231 332,78 607,78 725,0 1156,-363 431,-362 431,-968 0,-288 -108,-546 -107,-257 -392,-607 -78,-91 -497,-524 Q 1991,1309 1228,531 Z"
           transform="scale(0.015625)" />
      </defs>
      <use
         xlink:href="#DejaVuSans-32"
         id="use32" />
    </g>
  </g>
  <g
     transform="matrix(0.14,0,0,-0.14,55.061719,485.47155)"
     id="g63">
    <defs
       id="defs32">
      <path
         id="DejaVuSans-50"
         d="M 1259,4147 V 2394 h 794 q 441,0 681,228 241,228 241,650 0,419 -241,647 -240,228 -681,228 z m -631,519 h 1425 q 785,0 1186,-355 402,-355 402,-1039 0,-691 -402,-1044 -401,-353 -1186,-353 H 1259 V 0 H 628 Z"
         transform="scale(0.015625)" />
      <path
         id="DejaVuSans-65"
         d="M 3597,1894 V 1613 H 953 q 38,-594 358,-905 320,-311 892,-311 331,0 642,81 311,81 618,244 V 178 Q 3153,47 2828,-22 2503,-91 2169,-91 1331,-91 842,396 353,884 353,1716 q 0,859 464,1363 464,505 1252,505 706,0 1117,-455 411,-454 411,-1235 z m -575,169 q -6,471 -264,752 -258,282 -683,282 -481,0 -770,-272 -289,-272 -333,-766 z"
         transform="scale(0.015625)" />
      <path
         id="DejaVuSans-72"
         d="m 2631,2963 q -97,56 -211,82 -114,27 -251,27 -488,0 -749,-317 -261,-317 -261,-911 V 0 H 581 v 3500 h 578 v -544 q 182,319 472,473 291,155 707,155 59,0 131,-8 72,-7 159,-23 z"
         transform="scale(0.015625)" />
      <path
         id="DejaVuSans-74"
         d="M 1172,4494 V 3500 H 2356 V 3053 H 1172 V 1153 q 0,-428 117,-550 117,-122 477,-122 h 590 V 0 H 1766 Q 1100,0 847,248 594,497 594,1153 V 3053 H 172 v 447 h 422 v 994 z"
         transform="scale(0.015625)" />
      <path
         id="DejaVuSans-75"
         d="m 544,1381 v 2119 h 575 V 1403 q 0,-497 193,-746 194,-248 582,-248 465,0 735,297 271,297 271,810 v 1984 h 575 V 0 H 2900 V 538 Q 2691,219 2414,64 2138,-91 1772,-91 1169,-91 856,284 544,659 544,1381 Z m 1447,2203 z"
         transform="scale(0.015625)" />
      <path
         id="DejaVuSans-62"
         d="m 3116,1747 q 0,634 -261,995 -261,361 -717,361 -457,0 -718,-361 -261,-361 -261,-995 0,-634 261,-995 261,-361 718,-361 456,0 717,361 261,361 261,995 z M 1159,2969 q 182,312 458,463 277,152 661,152 638,0 1036,-506 399,-506 399,-1331 Q 3713,922 3314,415 2916,-91 2278,-91 1894,-91 1617,61 1341,213 1159,525 V 0 H 581 v 4863 h 578 z"
         transform="scale(0.015625)" />
      <path
         id="DejaVuSans-61"
         d="m 2194,1759 q -697,0 -966,-159 -269,-159 -269,-544 0,-306 202,-486 202,-179 548,-179 479,0 768,339 289,339 289,901 v 128 z m 1147,238 V 0 H 2766 V 531 Q 2569,213 2275,61 1981,-91 1556,-91 q -537,0 -855,302 -317,302 -317,808 0,590 395,890 396,300 1180,300 h 807 v 57 q 0,397 -261,614 -261,217 -733,217 -300,0 -585,-72 -284,-72 -546,-216 v 532 q 315,122 612,182 297,61 578,61 760,0 1135,-394 375,-393 375,-1193 z"
         transform="scale(0.015625)" />
      <path
         id="DejaVuSans-69"
         d="m 603,3500 h 575 V 0 H 603 Z m 0,1363 h 575 V 4134 H 603 Z"
         transform="scale(0.015625)" />
      <path
         id="DejaVuSans-6f"
         d="m 1959,3097 q -462,0 -731,-361 -269,-361 -269,-989 0,-628 267,-989 268,-361 733,-361 460,0 728,362 269,363 269,988 0,622 -269,986 -268,364 -728,364 z m 0,487 q 750,0 1178,-488 429,-487 429,-1349 Q 3566,888 3137,398 2709,-91 1959,-91 1206,-91 779,398 353,888 353,1747 q 0,862 426,1349 427,488 1180,488 z"
         transform="scale(0.015625)" />
      <path
         id="DejaVuSans-6e"
         d="M 3513,2113 V 0 h -575 v 2094 q 0,497 -194,743 -194,247 -581,247 -466,0 -735,-297 -269,-296 -269,-809 V 0 H 581 v 3500 h 578 v -544 q 207,316 486,472 280,156 646,156 603,0 912,-373 310,-373 310,-1098 z"
         transform="scale(0.015625)" />
      <path
         id="DejaVuSans-20"
         transform="scale(0.015625)"
         d="" />
      <path
         id="DejaVuSans-66"
         d="m 2375,4863 v -479 h -550 q -309,0 -430,-125 -120,-125 -120,-450 v -309 h 947 V 3053 H 1275 V 0 H 697 V 3053 H 147 v 447 h 550 v 244 q 0,584 272,851 272,268 862,268 z"
         transform="scale(0.015625)" />
      <path
         id="DejaVuSans-63"
         d="m 3122,3366 v -538 q -244,135 -489,202 -245,67 -495,67 -560,0 -870,-355 -309,-354 -309,-995 0,-641 309,-996 310,-354 870,-354 250,0 495,67 245,67 489,202 V 134 Q 2881,22 2623,-34 2366,-91 2075,-91 1284,-91 818,406 353,903 353,1747 q 0,856 470,1346 471,491 1290,491 265,0 518,-55 253,-54 491,-163 z"
         transform="scale(0.015625)" />
    </defs>
    <use
       xlink:href="#DejaVuSans-50"
       id="use33" />
    <use
       xlink:href="#DejaVuSans-65"
       x="56.677734"
       id="use34" />
    <use
       xlink:href="#DejaVuSans-72"
       x="118.20117"
       id="use35" />
    <use
       xlink:href="#DejaVuSans-74"
       x="159.31445"
       id="use36" />
    <use
       xlink:href="#DejaVuSans-75"
       x="198.52344"
       id="use37" />
    <use
       xlink:href="#DejaVuSans-72"
       x="261.90234"
       id="use38" />
    <use
       xlink:href="#DejaVuSans-62"
       x="303.01562"
       id="use39" />
    <use
       xlink:href="#DejaVuSans-61"
       x="366.49219"
       id="use40" />
    <use
       xlink:href="#DejaVuSans-74"
       x="427.77148"
       id="use41" />
    <use
       xlink:href="#DejaVuSans-69"
       x="466.98047"
       id="use42" />
    <use
       xlink:href="#DejaVuSans-6f"
       x="494.76367"
       id="use43" />
    <use
       xlink:href="#DejaVuSans-6e"
       x="555.94531"
       id="use44" />
    <use
       xlink:href="#DejaVuSans-20"
       x="619.32422"
       id="use45" />
    <use
       xlink:href="#DejaVuSans-65"
       x="651.11133"
       id="use46" />
    <use
       xlink:href="#DejaVuSans-66"
       x="712.63477"
       id="use47" />
    <use
       xlink:href="#DejaVuSans-66"
       x="747.83984"
       id="use48" />
    <use
       xlink:href="#DejaVuSans-65"
       x="783.04492"
       id="use49" />
    <use
       xlink:href="#DejaVuSans-63"
       x="844.56836"
       id="use50" />
    <use
       xlink:href="#DejaVuSans-74"
       x="899.54883"
       id="use51" />
    <use
       xlink:href="#DejaVuSans-20"
       x="938.75781"
       id="use52" />
    <use
       xlink:href="#DejaVuSans-63"
       x="970.54492"
       id="use53" />
    <use
       xlink:href="#DejaVuSans-6f"
       x="1025.5254"
       id="use54" />
    <use
       xlink:href="#DejaVuSans-65"
       x="1086.707"
       id="use55" />
    <use
       xlink:href="#DejaVuSans-66"
       x="1148.2305"
       id="use56" />
    <use
       xlink:href="#DejaVuSans-66"
       x="1183.4355"
       id="use57" />
    <use
       xlink:href="#DejaVuSans-69"
       x="1218.6406"
       id="use58" />
    <use
       xlink:href="#DejaVuSans-63"
       x="1246.4238"
       id="use59" />
    <use
       xlink:href="#DejaVuSans-69"
       x="1301.4043"
       id="use60" />
    <use
       xlink:href="#DejaVuSans-65"
       x="1329.1875"
       id="use61" />
    <use
       xlink:href="#DejaVuSans-6e"
       x="1390.7109"
       id="use62" />
    <use
       xlink:href="#DejaVuSans-74"
       x="1454.0898"
       id="use63" />
  </g>
  <g
     id="line2d_5"
     transform="translate(-7.2000005,1.4999875)">
    <defs
       id="defs63">
      <path
         id="m95726f8582"
         d="M 0,0 H -3.5"
         style="stroke:#000000;stroke-width:0.8" />
    </defs>
    <g
       id="g64">
      <use
         xlink:href="#m95726f8582"
         x="55.192501"
         y="423.48633"
         style="stroke:#000000;stroke-width:0.8"
         id="use64" />
    </g>
  </g>
  <g
     id="text_6"
     transform="translate(-7.2000005,1.4999875)">
    <!-- Csp -->
    <g
       transform="matrix(0.12,0,0,-0.12,25.94375,428.04538)"
       id="g67">
      <defs
         id="defs64">
        <path
           id="DejaVuSans-43"
           d="m 4122,4306 v -665 q -319,297 -680,443 -361,147 -767,147 -800,0 -1225,-489 -425,-489 -425,-1414 0,-922 425,-1411 425,-489 1225,-489 406,0 767,147 361,147 680,444 V 359 Q 3791,134 3420,21 3050,-91 2638,-91 1578,-91 968,557 359,1206 359,2328 q 0,1125 609,1773 610,649 1670,649 418,0 788,-111 371,-111 696,-333 z"
           transform="scale(0.015625)" />
        <path
           id="DejaVuSans-73"
           d="m 2834,3397 v -544 q -243,125 -506,187 -262,63 -544,63 -428,0 -642,-131 -214,-131 -214,-394 0,-200 153,-314 153,-114 616,-217 l 197,-44 q 612,-131 870,-370 258,-239 258,-667 0,-488 -386,-773 Q 2250,-91 1575,-91 1294,-91 989,-36 684,19 347,128 v 594 q 319,-166 628,-249 309,-82 613,-82 406,0 624,139 219,139 219,392 0,234 -158,359 -157,125 -692,241 l -200,47 q -534,112 -772,345 -237,233 -237,639 0,494 350,762 350,269 994,269 318,0 599,-47 282,-46 519,-140 z"
           transform="scale(0.015625)" />
        <path
           id="DejaVuSans-70"
           d="M 1159,525 V -1331 H 581 v 4831 h 578 v -531 q 182,312 458,463 277,152 661,152 638,0 1036,-506 399,-506 399,-1331 0,-825 -399,-1332 -398,-506 -1036,-506 -384,0 -661,152 -276,152 -458,464 z m 1957,1222 q 0,634 -261,995 -261,361 -717,361 -457,0 -718,-361 -261,-361 -261,-995 0,-634 261,-995 261,-361 718,-361 456,0 717,361 261,361 261,995 z"
           transform="scale(0.015625)" />
      </defs>
      <use
         xlink:href="#DejaVuSans-43"
         id="use65" />
      <use
         xlink:href="#DejaVuSans-73"
         x="69.824219"
         id="use66" />
      <use
         xlink:href="#DejaVuSans-70"
         x="121.92383"
         id="use67" />
    </g>
  </g>
  <g
     id="line2d_6"
     transform="translate(-7.2000005,1.4999875)">
    <g
       id="g68">
      <use
         xlink:href="#m95726f8582"
         x="55.192501"
         y="384.58105"
         style="stroke:#000000;stroke-width:0.8"
         id="use68" />
    </g>
  </g>
  <g
     id="text_7"
     transform="translate(-7.2000005,1.4999875)">
    <!-- Cae -->
    <g
       transform="matrix(0.12,0,0,-0.12,25.075625,389.14011)"
       id="g71">
      <use
         xlink:href="#DejaVuSans-43"
         id="use69" />
      <use
         xlink:href="#DejaVuSans-61"
         x="69.824219"
         id="use70" />
      <use
         xlink:href="#DejaVuSans-65"
         x="131.10352"
         id="use71" />
    </g>
  </g>
  <g
     id="line2d_7"
     transform="translate(-7.2000005,1.4999875)">
    <g
       id="g72">
      <use
         xlink:href="#m95726f8582"
         x="55.192501"
         y="345.67578"
         style="stroke:#000000;stroke-width:0.8"
         id="use72" />
    </g>
  </g>
  <g
     id="text_8"
     transform="translate(-7.2000005,1.4999875)">
    <!-- Csc -->
    <g
       transform="matrix(0.12,0,0,-0.12,26.96375,350.23485)"
       id="g75">
      <use
         xlink:href="#DejaVuSans-43"
         id="use73" />
      <use
         xlink:href="#DejaVuSans-73"
         x="69.824219"
         id="use74" />
      <use
         xlink:href="#DejaVuSans-63"
         x="121.92383"
         id="use75" />
    </g>
  </g>
  <g
     id="line2d_8"
     transform="translate(-7.2000005,1.4999875)">
    <g
       id="g76">
      <use
         xlink:href="#m95726f8582"
         x="55.192501"
         y="306.77054"
         style="stroke:#000000;stroke-width:0.8"
         id="use76" />
    </g>
  </g>
  <g
     id="text_9"
     transform="translate(-7.2000005,1.4999875)">
    <!-- Pdi -->
    <g
       transform="matrix(0.12,0,0,-0.12,30.005,311.32959)"
       id="g79">
      <defs
         id="defs76">
        <path
           id="DejaVuSans-64"
           d="m 2906,2969 v 1894 h 575 V 0 H 2906 V 525 Q 2725,213 2448,61 2172,-91 1784,-91 1150,-91 751,415 353,922 353,1747 q 0,825 398,1331 399,506 1033,506 388,0 664,-152 277,-151 458,-463 z M 947,1747 q 0,-634 261,-995 261,-361 717,-361 456,0 718,361 263,361 263,995 0,634 -263,995 -262,361 -718,361 -456,0 -717,-361 -261,-361 -261,-995 z"
           transform="scale(0.015625)" />
      </defs>
      <use
         xlink:href="#DejaVuSans-50"
         id="use77" />
      <use
         xlink:href="#DejaVuSans-64"
         x="60.302734"
         id="use78" />
      <use
         xlink:href="#DejaVuSans-69"
         x="123.7793"
         id="use79" />
    </g>
  </g>
  <g
     id="line2d_9"
     transform="translate(-7.2000005,1.4999875)">
    <g
       id="g80">
      <use
         xlink:href="#m95726f8582"
         x="55.192501"
         y="267.86526"
         style="stroke:#000000;stroke-width:0.8"
         id="use80" />
    </g>
  </g>
  <g
     id="text_10"
     transform="translate(-7.2000005,1.4999875)">
    <!-- Bun -->
    <g
       transform="matrix(0.12,0,0,-0.12,24.749375,272.42433)"
       id="g83">
      <defs
         id="defs80">
        <path
           id="DejaVuSans-42"
           d="M 1259,2228 V 519 h 1013 q 509,0 754,211 246,211 246,645 0,438 -246,645 -245,208 -754,208 z m 0,1919 V 2741 h 935 q 462,0 688,173 227,174 227,530 0,353 -227,528 -226,175 -688,175 z m -631,519 h 1613 q 722,0 1112,-300 391,-300 391,-853 0,-429 -200,-682 -200,-253 -588,-315 466,-100 724,-418 258,-317 258,-792 0,-625 -425,-966 Q 3088,0 2303,0 H 628 Z"
           transform="scale(0.015625)" />
      </defs>
      <use
         xlink:href="#DejaVuSans-42"
         id="use81" />
      <use
         xlink:href="#DejaVuSans-75"
         x="68.603516"
         id="use82" />
      <use
         xlink:href="#DejaVuSans-6e"
         x="131.98242"
         id="use83" />
    </g>
  </g>
  <g
     id="line2d_10"
     transform="translate(-7.2000005,1.4999875)">
    <g
       id="g84">
      <use
         xlink:href="#m95726f8582"
         x="55.192501"
         y="228.96001"
         style="stroke:#000000;stroke-width:0.8"
         id="use84" />
    </g>
  </g>
  <g
     id="text_11"
     transform="translate(-7.2000005,1.4999875)">
    <!-- Rob -->
    <g
       transform="matrix(0.12,0,0,-0.12,25.43375,233.51906)"
       id="g87">
      <defs
         id="defs84">
        <path
           id="DejaVuSans-52"
           d="m 2841,2188 q 203,-69 395,-294 192,-225 386,-619 L 4263,0 h -679 l -596,1197 q -232,469 -449,622 -217,153 -592,153 H 1259 V 0 H 628 v 4666 h 1425 q 800,0 1194,-335 394,-334 394,-1009 0,-441 -205,-732 -205,-290 -595,-402 z M 1259,4147 V 2491 h 794 q 456,0 689,211 233,211 233,620 0,409 -233,617 -233,208 -689,208 z"
           transform="scale(0.015625)" />
      </defs>
      <use
         xlink:href="#DejaVuSans-52"
         id="use85" />
      <use
         xlink:href="#DejaVuSans-6f"
         x="64.982422"
         id="use86" />
      <use
         xlink:href="#DejaVuSans-62"
         x="126.16406"
         id="use87" />
    </g>
  </g>
  <g
     id="line2d_11"
     transform="translate(-7.2000005,1.4999875)">
    <g
       id="g88">
      <use
         xlink:href="#m95726f8582"
         x="55.192501"
         y="190.05473"
         style="stroke:#000000;stroke-width:0.8"
         id="use88" />
    </g>
  </g>
  <g
     id="text_12"
     transform="translate(-7.2000005,1.4999875)">
    <!-- Bov -->
    <g
       transform="matrix(0.12,0,0,-0.12,25.514375,194.6138)"
       id="g91">
      <defs
         id="defs88">
        <path
           id="DejaVuSans-76"
           d="M 191,3500 H 800 L 1894,563 2988,3500 h 609 L 2284,0 h -781 z"
           transform="scale(0.015625)" />
      </defs>
      <use
         xlink:href="#DejaVuSans-42"
         id="use89" />
      <use
         xlink:href="#DejaVuSans-6f"
         x="68.603516"
         id="use90" />
      <use
         xlink:href="#DejaVuSans-76"
         x="129.78516"
         id="use91" />
    </g>
  </g>
  <g
     id="line2d_12"
     transform="translate(-7.2000005,1.4999875)">
    <g
       id="g92">
      <use
         xlink:href="#m95726f8582"
         x="55.192501"
         y="151.14948"
         style="stroke:#000000;stroke-width:0.8"
         id="use92" />
    </g>
  </g>
  <g
     id="text_13"
     transform="translate(-7.2000005,1.4999875)">
    <!-- Bth -->
    <g
       transform="matrix(0.12,0,0,-0.12,27.65,155.70854)"
       id="g95">
      <defs
         id="defs92">
        <path
           id="DejaVuSans-68"
           d="M 3513,2113 V 0 h -575 v 2094 q 0,497 -194,743 -194,247 -581,247 -466,0 -735,-297 -269,-296 -269,-809 V 0 H 581 v 4863 h 578 V 2956 q 207,316 486,472 280,156 646,156 603,0 912,-373 310,-373 310,-1098 z"
           transform="scale(0.015625)" />
      </defs>
      <use
         xlink:href="#DejaVuSans-42"
         id="use93" />
      <use
         xlink:href="#DejaVuSans-74"
         x="68.603516"
         id="use94" />
      <use
         xlink:href="#DejaVuSans-68"
         x="107.8125"
         id="use95" />
    </g>
  </g>
  <g
     id="line2d_13"
     transform="translate(-7.2000005,1.4999875)">
    <g
       id="g96">
      <use
         xlink:href="#m95726f8582"
         x="55.192501"
         y="112.24421"
         style="stroke:#000000;stroke-width:0.8"
         id="use96" />
    </g>
  </g>
  <g
     id="text_14"
     transform="translate(-7.2000005,1.4999875)">
    <!-- Bvu -->
    <g
       transform="matrix(0.12,0,0,-0.12,25.251875,116.80327)"
       id="g99">
      <use
         xlink:href="#DejaVuSans-42"
         id="use97" />
      <use
         xlink:href="#DejaVuSans-76"
         x="68.603516"
         id="use98" />
      <use
         xlink:href="#DejaVuSans-75"
         x="127.7832"
         id="use99" />
    </g>
  </g>
  <g
     id="line2d_14"
     transform="translate(-7.2000005,1.4999875)">
    <g
       id="g100">
      <use
         xlink:href="#m95726f8582"
         x="55.192501"
         y="73.338943"
         style="stroke:#000000;stroke-width:0.8"
         id="use100" />
    </g>
  </g>
  <g
     id="text_15"
     transform="translate(-7.2000005,1.4999875)">
    <!-- Bca -->
    <g
       transform="matrix(0.12,0,0,-0.12,26.0075,77.89801)"
       id="g103">
      <use
         xlink:href="#DejaVuSans-42"
         id="use101" />
      <use
         xlink:href="#DejaVuSans-63"
         x="68.603516"
         id="use102" />
      <use
         xlink:href="#DejaVuSans-61"
         x="123.58398"
         id="use103" />
    </g>
  </g>
  <g
     id="line2d_15"
     transform="translate(-7.2000005,1.4999875)">
    <g
       id="g104">
      <use
         xlink:href="#m95726f8582"
         x="55.192501"
         y="34.433685"
         style="stroke:#000000;stroke-width:0.8"
         id="use104" />
    </g>
  </g>
  <g
     id="text_16"
     transform="translate(-7.2000005,1.4999875)">
    <!-- Bce -->
    <g
       transform="matrix(0.12,0,0,-0.12,25.9775,38.992747)"
       id="g107">
      <use
         xlink:href="#DejaVuSans-42"
         id="use105" />
      <use
         xlink:href="#DejaVuSans-63"
         x="68.603516"
         id="use106" />
      <use
         xlink:href="#DejaVuSans-65"
         x="123.58398"
         id="use107" />
    </g>
  </g>
  <g
     transform="matrix(0,-0.14,-0.14,0,10.637813,257.40233)"
     id="g114">
    <defs
       id="defs107">
      <path
         id="DejaVuSans-53"
         d="m 3425,4513 v -616 q -359,172 -678,256 -319,85 -616,85 -515,0 -795,-200 -280,-200 -280,-569 0,-310 186,-468 186,-157 705,-254 l 381,-78 q 706,-135 1042,-474 336,-339 336,-907 0,-679 -455,-1029 -454,-350 -1332,-350 -331,0 -705,75 -373,75 -773,222 v 650 q 384,-215 753,-325 369,-109 725,-109 540,0 834,212 294,213 294,607 0,343 -211,537 -211,194 -692,291 l -385,75 q -706,140 -1022,440 -315,300 -315,835 0,619 436,975 436,356 1201,356 329,0 669,-60 341,-59 697,-177 z"
         transform="scale(0.015625)" />
    </defs>
    <use
       xlink:href="#DejaVuSans-53"
       id="use108" />
    <use
       xlink:href="#DejaVuSans-70"
       x="63.476562"
       id="use109" />
    <use
       xlink:href="#DejaVuSans-65"
       x="126.95312"
       id="use110" />
    <use
       xlink:href="#DejaVuSans-63"
       x="188.47656"
       id="use111" />
    <use
       xlink:href="#DejaVuSans-69"
       x="243.45703"
       id="use112" />
    <use
       xlink:href="#DejaVuSans-65"
       x="271.24023"
       id="use113" />
    <use
       xlink:href="#DejaVuSans-73"
       x="332.76367"
       id="use114" />
  </g>
  <path
     d="M 47.992499,452.21999 V 8.6999875"
     style="fill:none;stroke:#000000;stroke-width:0.8;stroke-linecap:square;stroke-linejoin:miter"
     id="path114" />
  <path
     d="M 271.1925,452.21999 V 8.6999875"
     style="fill:none;stroke:#000000;stroke-width:0.8;stroke-linecap:square;stroke-linejoin:miter"
     id="path115" />
  <path
     d="M 47.992499,452.21999 H 271.1925"
     style="fill:none;stroke:#000000;stroke-width:0.8;stroke-linecap:square;stroke-linejoin:miter"
     id="path116" />
  <path
     d="M 47.992499,8.6999875 H 271.1925"
     style="fill:none;stroke:#000000;stroke-width:0.8;stroke-linecap:square;stroke-linejoin:miter"
     id="path117" />
  <defs
     id="defs117">
    <clipPath
       id="p4b49c86a48">
      <rect
         x="55.192501"
         y="7.1999998"
         width="223.2"
         height="443.51999"
         id="rect117" />
    </clipPath>
  </defs>
  <path
     id="use39-6"
     d="m 267.59654,463.54757 q -0.79687,0 -1.26375,0.54562 -0.465,0.54375 -0.465,1.49251 0,0.94312 0.465,1.4925 0.46688,0.54749 1.26375,0.54749 0.79688,0 1.26188,-0.54749 0.465,-0.54938 0.465,-1.4925 0,-0.94876 -0.465,-1.49251 -0.465,-0.54562 -1.26188,-0.54562 z m 2.34938,-3.71063 v 1.07813 q -0.44625,-0.21 -0.9,-0.32063 -0.45375,-0.11249 -0.9,-0.11249 -1.17188,0 -1.79063,0.79125 -0.61687,0.79124 -0.705,2.39062 0.345,-0.51 0.86625,-0.78188 0.52313,-0.27187 1.14938,-0.27187 1.31812,0 2.08312,0.80062 0.765,0.79875 0.765,2.17501 0,1.34812 -0.79687,2.16374 -0.79688,0.81375 -2.12063,0.81375 -1.51875,0 -2.32125,-1.1625 -0.8025,-1.16437 -0.8025,-3.37312 0,-2.07375 0.98438,-3.3075 0.98437,-1.23375 2.64187,-1.23375 0.44625,0 0.9,0.0881 0.45375,0.0881 0.94688,0.2625 z"
     style="stroke-width:0.001875;stroke-linecap:butt;stroke-linejoin:round" />
  <g
     id="patch_2-7-6-6"
     transform="matrix(0.0161158,0.00562518,-0.02302622,0.05669348,249.46992,181.00043)"
     style="stroke-width:30.8345;stroke-linecap:butt;stroke-linejoin:round">
    <path
       d="m 166.02937,561.6 h 558 V 7.2 h -558 z"
       style="fill:#ffffff;stroke-width:30.8345;stroke-linecap:butt;stroke-linejoin:round"
       id="path11491-5-0-2" />
  </g>
  <path
     d="m 237.99158,215.68673 13.95621,-31.37581"
     style="fill:none;stroke:#000000;stroke-width:0.707572;stroke-linecap:square;stroke-linejoin:miter"
     id="path12234-0-6-8-7-6-3-5" />
  <path
     d="m 248.06974,215.50209 13.95621,-31.37581"
     style="fill:none;stroke:#000000;stroke-width:0.707572;stroke-linecap:square;stroke-linejoin:miter"
     id="path12234-0-6-8-7-6-3-5-6" />
  <g
     id="patch_2-7-6"
     transform="matrix(0.01526647,0,0,0.00656025,243.26767,451.0476)"
     style="stroke-width:99.9257;stroke-linecap:butt;stroke-linejoin:round">
    <path
       d="m 166.02937,561.6 h 558 V 7.2 h -558 z"
       style="fill:#ffffff;stroke-width:99.9257;stroke-linecap:butt;stroke-linejoin:round"
       id="path11491-5-0" />
  </g>
  <g
     id="patch_48-6-9-7-5-7-3"
     transform="matrix(0.01894059,0.00898118,-0.01430949,0.03017752,244.35956,438.07889)"
     style="stroke-width:37.794;stroke-linecap:butt;stroke-linejoin:round">
    <path
       d="M 724.02937,561.6 V 7.2"
       style="fill:none;stroke:#000000;stroke-width:30.2352;stroke-linecap:square;stroke-linejoin:miter"
       id="path12234-0-6-8-7-5-6" />
  </g>
  <path
     d="m 242.00905,461.44658 7.93318,-16.73042"
     style="fill:none;stroke:#000000;stroke-width:0.800002;stroke-linecap:square;stroke-linejoin:miter"
     id="path12234-0-6-8-7-6-3-7" />
  <g
     id="patch_2-7-6-7"
     transform="matrix(0.01526647,0,0,0.00656025,242.84143,6.8642475)"
     style="stroke-width:99.9257;stroke-linecap:butt;stroke-linejoin:round">
    <path
       d="m 166.02937,561.6 h 558 V 7.2 h -558 z"
       style="fill:#ffffff;stroke-width:99.9257;stroke-linecap:butt;stroke-linejoin:round"
       id="path11491-5-0-0" />
  </g>
  <g
     id="patch_48-6-9-7-5-7-3-9"
     transform="matrix(0.01894059,0.00898118,-0.01430949,0.03017752,243.93332,-6.1044625)"
     style="stroke-width:37.794;stroke-linecap:butt;stroke-linejoin:round">
    <path
       d="M 724.02937,561.6 V 7.2"
       style="fill:none;stroke:#000000;stroke-width:30.2352;stroke-linecap:square;stroke-linejoin:miter"
       id="path12234-0-6-8-7-5-6-3" />
  </g>
  <path
     d="M 241.58281,17.263228 249.51599,0.53280751"
     style="fill:none;stroke:#000000;stroke-width:0.800002;stroke-linecap:square;stroke-linejoin:miter"
     id="path12234-0-6-8-7-6-3-7-6" />
  <path
     d="m 133.96897,129.75158 v 0 -17.50737 0 z"
     clip-path="url(#p4b49c86a48-6)"
     style="opacity:0.9;fill:#ff7f00;stroke:#000000;stroke-width:0.8;stroke-linecap:butt;stroke-linejoin:miter"
     id="path11-6"
     transform="translate(133.16609,79.25309)" />
</svg>
