<?xml version="1.0" encoding="UTF-8" standalone="no"?>
<svg
   width="274.19061pt"
   height="480.08313pt"
   viewBox="0 0 274.19062 480.08314"
   version="1.1"
   id="svg131"
   sodipodi:docname="self_interactions.svg"
   inkscape:version="1.3 (1:1.3+202307231459+0e150ed6c4)"
   xmlns:inkscape="http://www.inkscape.org/namespaces/inkscape"
   xmlns:sodipodi="http://sodipodi.sourceforge.net/DTD/sodipodi-0.dtd"
   xmlns:xlink="http://www.w3.org/1999/xlink"
   xmlns="http://www.w3.org/2000/svg"
   xmlns:svg="http://www.w3.org/2000/svg"
   xmlns:rdf="http://www.w3.org/1999/02/22-rdf-syntax-ns#"
   xmlns:cc="http://creativecommons.org/ns#"
   xmlns:dc="http://purl.org/dc/elements/1.1/">
  <sodipodi:namedview
     id="namedview131"
     pagecolor="#ffffff"
     bordercolor="#999999"
     borderopacity="1"
     inkscape:showpageshadow="2"
     inkscape:pageopacity="0"
     inkscape:pagecheckerboard="0"
     inkscape:deskcolor="#d1d1d1"
     inkscape:document-units="pt"
     inkscape:zoom="1.2249204"
     inkscape:cx="183.27722"
     inkscape:cy="320.42898"
     inkscape:window-width="1848"
     inkscape:window-height="1016"
     inkscape:window-x="72"
     inkscape:window-y="27"
     inkscape:window-maximized="1"
     inkscape:current-layer="svg131" />
  <metadata
     id="metadata1">
    <rdf:RDF>
      <cc:Work>
        <dc:type
           rdf:resource="http://purl.org/dc/dcmitype/StillImage" />
        <dc:date>2023-08-02T15:55:27.056066</dc:date>
        <dc:format>image/svg+xml</dc:format>
        <dc:creator>
          <cc:Agent>
            <dc:title>Matplotlib v3.7.1, https://matplotlib.org/</dc:title>
          </cc:Agent>
        </dc:creator>
      </cc:Work>
    </rdf:RDF>
  </metadata>
  <defs
     id="defs1">
    <style
       type="text/css"
       id="style1">*{stroke-linejoin: round; stroke-linecap: butt}</style>
  </defs>
  <g
     id="patch_3"
     transform="translate(-7.2000005,-6.8)">
    <path
       d="M 278.3925,440.99368 H 80.1172 v -17.50736 h 198.2753 z"
       clip-path="url(#pb151d88d07)"
       style="opacity:0.9;fill:#ff7f00;stroke:#000000;stroke-width:0.8;stroke-linejoin:miter"
       id="path3" />
  </g>
  <g
     id="patch_4"
     transform="translate(-7.2000005,-6.8)">
    <path
       d="M 278.3925,402.08842 H 123.36763 V 384.58105 H 278.3925 Z"
       clip-path="url(#pb151d88d07)"
       style="opacity:0.9;fill:#ff7f00;stroke:#000000;stroke-width:0.8;stroke-linejoin:miter"
       id="path4" />
  </g>
  <g
     id="patch_5"
     transform="translate(-7.2000005,-6.8)">
    <path
       d="M 278.3925,363.18316 H 155.80909 V 345.67579 H 278.3925 Z"
       clip-path="url(#pb151d88d07)"
       style="opacity:0.9;fill:#ff7f00;stroke:#000000;stroke-width:0.8;stroke-linejoin:miter"
       id="path5" />
  </g>
  <g
     id="patch_6"
     transform="translate(-7.2000005,-6.8)">
    <path
       d="M 278.3925,324.27789 H 186.21922 V 306.77053 H 278.3925 Z"
       clip-path="url(#pb151d88d07)"
       style="opacity:0.9;fill:#ff7f00;stroke:#000000;stroke-width:0.8;stroke-linejoin:miter"
       id="path6" />
  </g>
  <g
     id="patch_7"
     transform="translate(-7.2000005,-6.8)">
    <path
       d="M 278.3925,285.37263 H 188.83725 V 267.86526 H 278.3925 Z"
       clip-path="url(#pb151d88d07)"
       style="opacity:0.9;fill:#ff7f00;stroke:#000000;stroke-width:0.8;stroke-linejoin:miter"
       id="path7" />
  </g>
  <g
     id="patch_8"
     transform="translate(-7.2000005,-6.8)">
    <path
       d="M 278.3925,246.46737 H 175.26897 V 228.96 H 278.3925 Z"
       clip-path="url(#pb151d88d07)"
       style="opacity:0.9;fill:#ff7f00;stroke:#000000;stroke-width:0.8;stroke-linejoin:miter"
       id="path8" />
  </g>
  <g
     id="patch_9"
     transform="translate(-7.2000005,-6.8)">
    <path
       d="M 278.3925,207.5621 H 201.07114 V 190.05474 H 278.3925 Z"
       clip-path="url(#pb151d88d07)"
       style="opacity:0.9;fill:#ff7f00;stroke:#000000;stroke-width:0.8;stroke-linejoin:miter"
       id="path9" />
  </g>
  <g
     id="patch_10"
     transform="translate(-7.2000005,-6.8)">
    <path
       d="M 278.3925,168.65684 H 224.20079 V 151.14947 H 278.3925 Z"
       clip-path="url(#pb151d88d07)"
       style="opacity:0.9;fill:#ff7f00;stroke:#000000;stroke-width:0.8;stroke-linejoin:miter"
       id="path10" />
  </g>
  <g
     id="patch_11"
     transform="translate(-7.2000005,-6.8)">
    <path
       d="M 278.3925,129.75158 H 248.46455 V 112.24421 H 278.3925 Z"
       clip-path="url(#pb151d88d07)"
       style="opacity:0.9;fill:#ff7f00;stroke:#000000;stroke-width:0.8;stroke-linejoin:miter"
       id="path11" />
  </g>
  <g
     id="patch_12"
     transform="translate(-7.2000005,-6.8)">
    <path
       d="M 278.3925,90.846316 H 202.12595 V 73.338947 h 76.26655 z"
       clip-path="url(#pb151d88d07)"
       style="opacity:0.9;fill:#ff7f00;stroke:#000000;stroke-width:0.8;stroke-linejoin:miter"
       id="path12" />
  </g>
  <g
     id="patch_13"
     transform="translate(-7.2000005,-6.8)">
    <path
       d="M 278.3925,51.941053 H 259.26821 V 34.433684 h 19.12429 z"
       clip-path="url(#pb151d88d07)"
       style="opacity:0.9;fill:#ff7f00;stroke:#000000;stroke-width:0.8;stroke-linejoin:miter"
       id="path13" />
  </g>
  <g
     id="patch_14"
     transform="translate(-7.2000005,-6.8)">
    <path
       d="M 278.3925,423.48632 H 67.294705 V 405.97895 H 278.3925 Z"
       clip-path="url(#pb151d88d07)"
       style="opacity:0.9;fill:#6a3d9a;stroke:#000000;stroke-width:0.8;stroke-linejoin:miter"
       id="path14" />
  </g>
  <g
     id="patch_15"
     transform="translate(-7.2000005,-6.8)">
    <path
       d="M 278.3925,384.58105 H 107.25113 V 367.07368 H 278.3925 Z"
       clip-path="url(#pb151d88d07)"
       style="opacity:0.9;fill:#6a3d9a;stroke:#000000;stroke-width:0.8;stroke-linejoin:miter"
       id="path15" />
  </g>
  <g
     id="patch_16"
     transform="translate(-7.2000005,-6.8)">
    <path
       d="M 278.3925,345.67579 H 146.17995 V 328.16842 H 278.3925 Z"
       clip-path="url(#pb151d88d07)"
       style="opacity:0.9;fill:#6a3d9a;stroke:#000000;stroke-width:0.8;stroke-linejoin:miter"
       id="path16" />
  </g>
  <g
     id="patch_17"
     transform="translate(-7.2000005,-6.8)">
    <path
       d="M 278.3925,306.77053 H 170.12291 V 289.26316 H 278.3925 Z"
       clip-path="url(#pb151d88d07)"
       style="opacity:0.9;fill:#6a3d9a;stroke:#000000;stroke-width:0.8;stroke-linejoin:miter"
       id="path17" />
  </g>
  <g
     id="patch_18"
     transform="translate(-7.2000005,-6.8)">
    <path
       d="M 278.3925,267.86526 H 192.31815 V 250.3579 h 86.07435 z"
       clip-path="url(#pb151d88d07)"
       style="opacity:0.9;fill:#6a3d9a;stroke:#000000;stroke-width:0.8;stroke-linejoin:miter"
       id="path18" />
  </g>
  <g
     id="patch_19"
     transform="translate(-7.2000005,-6.8)">
    <path
       d="M 278.3925,228.96 H 158.26471 V 211.45263 H 278.3925 Z"
       clip-path="url(#pb151d88d07)"
       style="opacity:0.9;fill:#6a3d9a;stroke:#000000;stroke-width:0.8;stroke-linejoin:miter"
       id="path19" />
  </g>
  <g
     id="patch_20"
     transform="translate(-7.2000005,-6.8)">
    <path
       d="M 278.3925,190.05474 H 184.79722 V 172.54737 H 278.3925 Z"
       clip-path="url(#pb151d88d07)"
       style="opacity:0.9;fill:#6a3d9a;stroke:#000000;stroke-width:0.8;stroke-linejoin:miter"
       id="path20" />
  </g>
  <g
     id="patch_21"
     transform="translate(-7.2000005,-6.8)">
    <path
       d="M 278.3925,151.14947 H 195.05483 V 133.6421 h 83.33767 z"
       clip-path="url(#pb151d88d07)"
       style="opacity:0.9;fill:#6a3d9a;stroke:#000000;stroke-width:0.8;stroke-linejoin:miter"
       id="path21" />
  </g>
  <g
     id="patch_22"
     transform="translate(-7.2000005,-6.8)">
    <path
       d="M 278.3925,112.24421 H 246.45081 V 94.736842 h 31.94169 z"
       clip-path="url(#pb151d88d07)"
       style="opacity:0.9;fill:#6a3d9a;stroke:#000000;stroke-width:0.8;stroke-linejoin:miter"
       id="path22" />
  </g>
  <g
     id="patch_23"
     transform="translate(-7.2000005,-6.8)">
    <path
       d="M 278.3925,73.338947 H 240.76134 V 55.831579 h 37.63116 z"
       clip-path="url(#pb151d88d07)"
       style="opacity:0.9;fill:#6a3d9a;stroke:#000000;stroke-width:0.8;stroke-linejoin:miter"
       id="path23" />
  </g>
  <g
     id="patch_24"
     transform="translate(-7.2000005,-6.8)">
    <path
       d="M 278.3925,34.433684 H 267.218 V 16.926316 h 11.1745 z"
       clip-path="url(#pb151d88d07)"
       style="opacity:0.9;fill:#6a3d9a;stroke:#000000;stroke-width:0.8;stroke-linejoin:miter"
       id="path24" />
  </g>
  <g
     id="matplotlib.axis_1"
     transform="translate(-7.2000005,-6.8)">
    <g
       id="xtick_1">
      <g
         id="line2d_1">
        <defs
           id="defs24">
          <path
             id="m534e318c9e"
             d="M 0,0 V 3.5"
             style="stroke:#000000;stroke-width:0.8" />
        </defs>
        <g
           id="g24">
          <use
             xlink:href="#m534e318c9e"
             x="74.883919"
             y="450.72"
             style="stroke:#000000;stroke-width:0.8"
             id="use24" />
        </g>
      </g>
      <g
         id="text_1">
        <!-- $\mathdefault{-10^{-6}}$ -->
        <g
           transform="matrix(0.12,0,0,-0.12,55.803917,466.83812)"
           id="g29">
          <defs
             id="defs25">
            <path
               id="DejaVuSans-2212"
               d="M 678,2272 H 4684 V 1741 H 678 Z"
               transform="scale(0.015625)" />
            <path
               id="DejaVuSans-31"
               d="M 794,531 H 1825 V 4091 L 703,3866 v 575 l 1116,225 h 631 V 531 H 3481 V 0 H 794 Z"
               transform="scale(0.015625)" />
            <path
               id="DejaVuSans-30"
               d="m 2034,4250 q -487,0 -733,-480 -245,-479 -245,-1442 0,-959 245,-1439 246,-480 733,-480 491,0 736,480 246,480 246,1439 0,963 -246,1442 -245,480 -736,480 z m 0,500 q 785,0 1199,-621 414,-620 414,-1801 0,-1178 -414,-1799 -414,-620 -1199,-620 -784,0 -1198,620 -414,621 -414,1799 0,1181 414,1801 414,621 1198,621 z"
               transform="scale(0.015625)" />
            <path
               id="DejaVuSans-36"
               d="m 2113,2584 q -425,0 -674,-291 -248,-290 -248,-796 0,-503 248,-796 249,-292 674,-292 425,0 673,292 248,293 248,796 0,506 -248,796 -248,291 -673,291 z m 1253,1979 v -575 q -238,112 -480,171 -242,60 -480,60 -625,0 -955,-422 -329,-422 -376,-1275 184,272 462,417 279,145 613,145 703,0 1111,-427 408,-426 408,-1160 0,-719 -425,-1154 -425,-434 -1131,-434 -810,0 -1238,620 -428,621 -428,1799 0,1106 525,1764 525,658 1409,658 238,0 480,-47 242,-47 505,-140 z"
               transform="scale(0.015625)" />
          </defs>
          <use
             xlink:href="#DejaVuSans-2212"
             transform="translate(0,0.765625)"
             id="use25" />
          <use
             xlink:href="#DejaVuSans-31"
             transform="translate(83.789062,0.765625)"
             id="use26" />
          <use
             xlink:href="#DejaVuSans-30"
             transform="translate(147.41211,0.765625)"
             id="use27" />
          <use
             xlink:href="#DejaVuSans-2212"
             transform="matrix(0.7,0,0,0.7,211.99219,39.046875)"
             id="use28" />
          <use
             xlink:href="#DejaVuSans-36"
             transform="matrix(0.7,0,0,0.7,270.64453,39.046875)"
             id="use29" />
        </g>
      </g>
    </g>
    <g
       id="xtick_2">
      <g
         id="line2d_2">
        <g
           id="g30">
          <use
             xlink:href="#m534e318c9e"
             x="140.29739"
             y="450.72"
             style="stroke:#000000;stroke-width:0.8"
             id="use30" />
        </g>
      </g>
      <g
         id="text_2">
        <!-- $\mathdefault{-10^{-7}}$ -->
        <g
           transform="matrix(0.12,0,0,-0.12,121.21739,466.83812)"
           id="g35">
          <defs
             id="defs30">
            <path
               id="DejaVuSans-37"
               d="M 525,4666 H 3525 V 4397 L 1831,0 H 1172 L 2766,4134 H 525 Z"
               transform="scale(0.015625)" />
          </defs>
          <use
             xlink:href="#DejaVuSans-2212"
             transform="translate(0,0.684375)"
             id="use31" />
          <use
             xlink:href="#DejaVuSans-31"
             transform="translate(83.789062,0.684375)"
             id="use32" />
          <use
             xlink:href="#DejaVuSans-30"
             transform="translate(147.41211,0.684375)"
             id="use33" />
          <use
             xlink:href="#DejaVuSans-2212"
             transform="matrix(0.7,0,0,0.7,211.99219,38.965625)"
             id="use34" />
          <use
             xlink:href="#DejaVuSans-37"
             transform="matrix(0.7,0,0,0.7,270.64453,38.965625)"
             id="use35" />
        </g>
      </g>
    </g>
    <g
       id="xtick_3">
      <g
         id="line2d_3">
        <g
           id="g36">
          <use
             xlink:href="#m534e318c9e"
             x="205.71086"
             y="450.72"
             style="stroke:#000000;stroke-width:0.8"
             id="use36" />
        </g>
      </g>
      <g
         id="text_3">
        <!-- $\mathdefault{-10^{-8}}$ -->
        <g
           transform="matrix(0.12,0,0,-0.12,186.63086,466.83812)"
           id="g41">
          <defs
             id="defs36">
            <path
               id="DejaVuSans-38"
               d="m 2034,2216 q -450,0 -708,-241 -257,-241 -257,-662 0,-422 257,-663 258,-241 708,-241 450,0 709,242 260,243 260,662 0,421 -258,662 -257,241 -711,241 z m -631,268 q -406,100 -633,378 -226,279 -226,679 0,559 398,884 399,325 1092,325 697,0 1094,-325 397,-325 397,-884 0,-400 -227,-679 -226,-278 -629,-378 456,-106 710,-416 255,-309 255,-755 Q 3634,634 3220,271 2806,-91 2034,-91 1263,-91 848,271 434,634 434,1313 q 0,446 256,755 257,310 713,416 z m -231,997 q 0,-362 226,-565 227,-203 636,-203 407,0 636,203 230,203 230,565 0,363 -230,566 -229,203 -636,203 -409,0 -636,-203 -226,-203 -226,-566 z"
               transform="scale(0.015625)" />
          </defs>
          <use
             xlink:href="#DejaVuSans-2212"
             transform="translate(0,0.765625)"
             id="use37" />
          <use
             xlink:href="#DejaVuSans-31"
             transform="translate(83.789062,0.765625)"
             id="use38" />
          <use
             xlink:href="#DejaVuSans-30"
             transform="translate(147.41211,0.765625)"
             id="use39" />
          <use
             xlink:href="#DejaVuSans-2212"
             transform="matrix(0.7,0,0,0.7,211.99219,39.046875)"
             id="use40" />
          <use
             xlink:href="#DejaVuSans-38"
             transform="matrix(0.7,0,0,0.7,270.64453,39.046875)"
             id="use41" />
        </g>
      </g>
    </g>
    <g
       id="xtick_4">
      <g
         id="line2d_4">
        <g
           id="g42">
          <use
             xlink:href="#m534e318c9e"
             x="278.39249"
             y="450.72"
             style="stroke:#000000;stroke-width:0.8"
             id="use42" />
        </g>
      </g>
      <g
         id="text_4">
        <!-- $\mathdefault{0}$ -->
        <g
           transform="matrix(0.12,0,0,-0.12,274.5525,466.83812)"
           id="g43">
          <use
             xlink:href="#DejaVuSans-30"
             transform="translate(0,0.78125)"
             id="use43" />
        </g>
      </g>
    </g>
    <g
       id="text_5">
      <!-- $\log_{10}$ Self-interaction coefficient -->
      <g
         transform="matrix(0.14,0,0,-0.14,53.8825,483.97375)"
         id="g77">
        <defs
           id="defs43">
          <path
             id="DejaVuSans-6c"
             d="m 603,4863 h 575 V 0 H 603 Z"
             transform="scale(0.015625)" />
          <path
             id="DejaVuSans-6f"
             d="m 1959,3097 q -462,0 -731,-361 -269,-361 -269,-989 0,-628 267,-989 268,-361 733,-361 460,0 728,362 269,363 269,988 0,622 -269,986 -268,364 -728,364 z m 0,487 q 750,0 1178,-488 429,-487 429,-1349 Q 3566,888 3137,398 2709,-91 1959,-91 1206,-91 779,398 353,888 353,1747 q 0,862 426,1349 427,488 1180,488 z"
             transform="scale(0.015625)" />
          <path
             id="DejaVuSans-67"
             d="m 2906,1791 q 0,625 -258,968 -257,344 -723,344 -462,0 -720,-344 -258,-343 -258,-968 0,-622 258,-966 258,-344 720,-344 466,0 723,344 258,344 258,966 z M 3481,434 q 0,-893 -397,-1329 -396,-436 -1215,-436 -303,0 -572,45 -269,45 -522,139 v 559 q 253,-137 500,-202 247,-66 503,-66 566,0 847,295 281,295 281,892 V 616 Q 2728,306 2450,153 2172,0 1784,0 1141,0 747,490 353,981 353,1791 q 0,812 394,1302 394,491 1037,491 388,0 666,-153 278,-153 456,-462 v 531 h 575 z"
             transform="scale(0.015625)" />
          <path
             id="DejaVuSans-20"
             transform="scale(0.015625)"
             d="" />
          <path
             id="DejaVuSans-53"
             d="m 3425,4513 v -616 q -359,172 -678,256 -319,85 -616,85 -515,0 -795,-200 -280,-200 -280,-569 0,-310 186,-468 186,-157 705,-254 l 381,-78 q 706,-135 1042,-474 336,-339 336,-907 0,-679 -455,-1029 -454,-350 -1332,-350 -331,0 -705,75 -373,75 -773,222 v 650 q 384,-215 753,-325 369,-109 725,-109 540,0 834,212 294,213 294,607 0,343 -211,537 -211,194 -692,291 l -385,75 q -706,140 -1022,440 -315,300 -315,835 0,619 436,975 436,356 1201,356 329,0 669,-60 341,-59 697,-177 z"
             transform="scale(0.015625)" />
          <path
             id="DejaVuSans-65"
             d="M 3597,1894 V 1613 H 953 q 38,-594 358,-905 320,-311 892,-311 331,0 642,81 311,81 618,244 V 178 Q 3153,47 2828,-22 2503,-91 2169,-91 1331,-91 842,396 353,884 353,1716 q 0,859 464,1363 464,505 1252,505 706,0 1117,-455 411,-454 411,-1235 z m -575,169 q -6,471 -264,752 -258,282 -683,282 -481,0 -770,-272 -289,-272 -333,-766 z"
             transform="scale(0.015625)" />
          <path
             id="DejaVuSans-66"
             d="m 2375,4863 v -479 h -550 q -309,0 -430,-125 -120,-125 -120,-450 v -309 h 947 V 3053 H 1275 V 0 H 697 V 3053 H 147 v 447 h 550 v 244 q 0,584 272,851 272,268 862,268 z"
             transform="scale(0.015625)" />
          <path
             id="DejaVuSans-2d"
             d="M 313,2009 H 1997 V 1497 H 313 Z"
             transform="scale(0.015625)" />
          <path
             id="DejaVuSans-69"
             d="m 603,3500 h 575 V 0 H 603 Z m 0,1363 h 575 V 4134 H 603 Z"
             transform="scale(0.015625)" />
          <path
             id="DejaVuSans-6e"
             d="M 3513,2113 V 0 h -575 v 2094 q 0,497 -194,743 -194,247 -581,247 -466,0 -735,-297 -269,-296 -269,-809 V 0 H 581 v 3500 h 578 v -544 q 207,316 486,472 280,156 646,156 603,0 912,-373 310,-373 310,-1098 z"
             transform="scale(0.015625)" />
          <path
             id="DejaVuSans-74"
             d="M 1172,4494 V 3500 H 2356 V 3053 H 1172 V 1153 q 0,-428 117,-550 117,-122 477,-122 h 590 V 0 H 1766 Q 1100,0 847,248 594,497 594,1153 V 3053 H 172 v 447 h 422 v 994 z"
             transform="scale(0.015625)" />
          <path
             id="DejaVuSans-72"
             d="m 2631,2963 q -97,56 -211,82 -114,27 -251,27 -488,0 -749,-317 -261,-317 -261,-911 V 0 H 581 v 3500 h 578 v -544 q 182,319 472,473 291,155 707,155 59,0 131,-8 72,-7 159,-23 z"
             transform="scale(0.015625)" />
          <path
             id="DejaVuSans-61"
             d="m 2194,1759 q -697,0 -966,-159 -269,-159 -269,-544 0,-306 202,-486 202,-179 548,-179 479,0 768,339 289,339 289,901 v 128 z m 1147,238 V 0 H 2766 V 531 Q 2569,213 2275,61 1981,-91 1556,-91 q -537,0 -855,302 -317,302 -317,808 0,590 395,890 396,300 1180,300 h 807 v 57 q 0,397 -261,614 -261,217 -733,217 -300,0 -585,-72 -284,-72 -546,-216 v 532 q 315,122 612,182 297,61 578,61 760,0 1135,-394 375,-393 375,-1193 z"
             transform="scale(0.015625)" />
          <path
             id="DejaVuSans-63"
             d="m 3122,3366 v -538 q -244,135 -489,202 -245,67 -495,67 -560,0 -870,-355 -309,-354 -309,-995 0,-641 309,-996 310,-354 870,-354 250,0 495,67 245,67 489,202 V 134 Q 2881,22 2623,-34 2366,-91 2075,-91 1284,-91 818,406 353,903 353,1747 q 0,856 470,1346 471,491 1290,491 265,0 518,-55 253,-54 491,-163 z"
             transform="scale(0.015625)" />
        </defs>
        <use
           xlink:href="#DejaVuSans-6c"
           transform="translate(0,0.015625)"
           id="use44" />
        <use
           xlink:href="#DejaVuSans-6f"
           transform="translate(27.783203,0.015625)"
           id="use45" />
        <use
           xlink:href="#DejaVuSans-67"
           transform="translate(88.964844,0.015625)"
           id="use46" />
        <use
           xlink:href="#DejaVuSans-31"
           transform="matrix(0.7,0,0,0.7,153.39844,-16.390625)"
           id="use47" />
        <use
           xlink:href="#DejaVuSans-30"
           transform="matrix(0.7,0,0,0.7,197.93457,-16.390625)"
           id="use48" />
        <use
           xlink:href="#DejaVuSans-20"
           transform="translate(261.44075,0.015625)"
           id="use49" />
        <use
           xlink:href="#DejaVuSans-53"
           transform="translate(293.22786,0.015625)"
           id="use50" />
        <use
           xlink:href="#DejaVuSans-65"
           transform="translate(356.70443,0.015625)"
           id="use51" />
        <use
           xlink:href="#DejaVuSans-6c"
           transform="translate(418.22786,0.015625)"
           id="use52" />
        <use
           xlink:href="#DejaVuSans-66"
           transform="translate(446.01107,0.015625)"
           id="use53" />
        <use
           xlink:href="#DejaVuSans-2d"
           transform="translate(481.21614,0.015625)"
           id="use54" />
        <use
           xlink:href="#DejaVuSans-69"
           transform="translate(517.30013,0.015625)"
           id="use55" />
        <use
           xlink:href="#DejaVuSans-6e"
           transform="translate(545.08333,0.015625)"
           id="use56" />
        <use
           xlink:href="#DejaVuSans-74"
           transform="translate(608.46224,0.015625)"
           id="use57" />
        <use
           xlink:href="#DejaVuSans-65"
           transform="translate(647.67122,0.015625)"
           id="use58" />
        <use
           xlink:href="#DejaVuSans-72"
           transform="translate(709.19466,0.015625)"
           id="use59" />
        <use
           xlink:href="#DejaVuSans-61"
           transform="translate(750.30794,0.015625)"
           id="use60" />
        <use
           xlink:href="#DejaVuSans-63"
           transform="translate(811.58724,0.015625)"
           id="use61" />
        <use
           xlink:href="#DejaVuSans-74"
           transform="translate(866.56771,0.015625)"
           id="use62" />
        <use
           xlink:href="#DejaVuSans-69"
           transform="translate(905.77669,0.015625)"
           id="use63" />
        <use
           xlink:href="#DejaVuSans-6f"
           transform="translate(933.55989,0.015625)"
           id="use64" />
        <use
           xlink:href="#DejaVuSans-6e"
           transform="translate(994.74154,0.015625)"
           id="use65" />
        <use
           xlink:href="#DejaVuSans-20"
           transform="translate(1058.1204,0.015625)"
           id="use66" />
        <use
           xlink:href="#DejaVuSans-63"
           transform="translate(1089.9076,0.015625)"
           id="use67" />
        <use
           xlink:href="#DejaVuSans-6f"
           transform="translate(1144.888,0.015625)"
           id="use68" />
        <use
           xlink:href="#DejaVuSans-65"
           transform="translate(1206.0697,0.015625)"
           id="use69" />
        <use
           xlink:href="#DejaVuSans-66"
           transform="translate(1267.5931,0.015625)"
           id="use70" />
        <use
           xlink:href="#DejaVuSans-66"
           transform="translate(1302.7982,0.015625)"
           id="use71" />
        <use
           xlink:href="#DejaVuSans-69"
           transform="translate(1338.0033,0.015625)"
           id="use72" />
        <use
           xlink:href="#DejaVuSans-63"
           transform="translate(1365.7865,0.015625)"
           id="use73" />
        <use
           xlink:href="#DejaVuSans-69"
           transform="translate(1420.7669,0.015625)"
           id="use74" />
        <use
           xlink:href="#DejaVuSans-65"
           transform="translate(1448.5501,0.015625)"
           id="use75" />
        <use
           xlink:href="#DejaVuSans-6e"
           transform="translate(1510.0736,0.015625)"
           id="use76" />
        <use
           xlink:href="#DejaVuSans-74"
           transform="translate(1573.4525,0.015625)"
           id="use77" />
      </g>
    </g>
  </g>
  <g
     id="matplotlib.axis_2"
     transform="translate(-7.2000005,-6.8)">
    <g
       id="ytick_1">
      <g
         id="line2d_5">
        <defs
           id="defs77">
          <path
             id="m283d463f1d"
             d="M 0,0 H -3.5"
             style="stroke:#000000;stroke-width:0.8" />
        </defs>
        <g
           id="g78">
          <use
             xlink:href="#m283d463f1d"
             x="55.192501"
             y="423.48633"
             style="stroke:#000000;stroke-width:0.8"
             id="use78" />
        </g>
      </g>
      <g
         id="text_6">
        <!-- Csp -->
        <g
           transform="matrix(0.12,0,0,-0.12,25.94375,428.04538)"
           id="g81">
          <defs
             id="defs78">
            <path
               id="DejaVuSans-43"
               d="m 4122,4306 v -665 q -319,297 -680,443 -361,147 -767,147 -800,0 -1225,-489 -425,-489 -425,-1414 0,-922 425,-1411 425,-489 1225,-489 406,0 767,147 361,147 680,444 V 359 Q 3791,134 3420,21 3050,-91 2638,-91 1578,-91 968,557 359,1206 359,2328 q 0,1125 609,1773 610,649 1670,649 418,0 788,-111 371,-111 696,-333 z"
               transform="scale(0.015625)" />
            <path
               id="DejaVuSans-73"
               d="m 2834,3397 v -544 q -243,125 -506,187 -262,63 -544,63 -428,0 -642,-131 -214,-131 -214,-394 0,-200 153,-314 153,-114 616,-217 l 197,-44 q 612,-131 870,-370 258,-239 258,-667 0,-488 -386,-773 Q 2250,-91 1575,-91 1294,-91 989,-36 684,19 347,128 v 594 q 319,-166 628,-249 309,-82 613,-82 406,0 624,139 219,139 219,392 0,234 -158,359 -157,125 -692,241 l -200,47 q -534,112 -772,345 -237,233 -237,639 0,494 350,762 350,269 994,269 318,0 599,-47 282,-46 519,-140 z"
               transform="scale(0.015625)" />
            <path
               id="DejaVuSans-70"
               d="M 1159,525 V -1331 H 581 v 4831 h 578 v -531 q 182,312 458,463 277,152 661,152 638,0 1036,-506 399,-506 399,-1331 0,-825 -399,-1332 -398,-506 -1036,-506 -384,0 -661,152 -276,152 -458,464 z m 1957,1222 q 0,634 -261,995 -261,361 -717,361 -457,0 -718,-361 -261,-361 -261,-995 0,-634 261,-995 261,-361 718,-361 456,0 717,361 261,361 261,995 z"
               transform="scale(0.015625)" />
          </defs>
          <use
             xlink:href="#DejaVuSans-43"
             id="use79" />
          <use
             xlink:href="#DejaVuSans-73"
             x="69.824219"
             id="use80" />
          <use
             xlink:href="#DejaVuSans-70"
             x="121.92383"
             id="use81" />
        </g>
      </g>
    </g>
    <g
       id="ytick_2">
      <g
         id="line2d_6">
        <g
           id="g82">
          <use
             xlink:href="#m283d463f1d"
             x="55.192501"
             y="384.58105"
             style="stroke:#000000;stroke-width:0.8"
             id="use82" />
        </g>
      </g>
      <g
         id="text_7">
        <!-- Cae -->
        <g
           transform="matrix(0.12,0,0,-0.12,25.075625,389.14011)"
           id="g85">
          <use
             xlink:href="#DejaVuSans-43"
             id="use83" />
          <use
             xlink:href="#DejaVuSans-61"
             x="69.824219"
             id="use84" />
          <use
             xlink:href="#DejaVuSans-65"
             x="131.10352"
             id="use85" />
        </g>
      </g>
    </g>
    <g
       id="ytick_3">
      <g
         id="line2d_7">
        <g
           id="g86">
          <use
             xlink:href="#m283d463f1d"
             x="55.192501"
             y="345.67578"
             style="stroke:#000000;stroke-width:0.8"
             id="use86" />
        </g>
      </g>
      <g
         id="text_8">
        <!-- Csc -->
        <g
           transform="matrix(0.12,0,0,-0.12,26.96375,350.23485)"
           id="g89">
          <use
             xlink:href="#DejaVuSans-43"
             id="use87" />
          <use
             xlink:href="#DejaVuSans-73"
             x="69.824219"
             id="use88" />
          <use
             xlink:href="#DejaVuSans-63"
             x="121.92383"
             id="use89" />
        </g>
      </g>
    </g>
    <g
       id="ytick_4">
      <g
         id="line2d_8">
        <g
           id="g90">
          <use
             xlink:href="#m283d463f1d"
             x="55.192501"
             y="306.77054"
             style="stroke:#000000;stroke-width:0.8"
             id="use90" />
        </g>
      </g>
      <g
         id="text_9">
        <!-- Pdi -->
        <g
           transform="matrix(0.12,0,0,-0.12,30.005,311.32959)"
           id="g93">
          <defs
             id="defs90">
            <path
               id="DejaVuSans-50"
               d="M 1259,4147 V 2394 h 794 q 441,0 681,228 241,228 241,650 0,419 -241,647 -240,228 -681,228 z m -631,519 h 1425 q 785,0 1186,-355 402,-355 402,-1039 0,-691 -402,-1044 -401,-353 -1186,-353 H 1259 V 0 H 628 Z"
               transform="scale(0.015625)" />
            <path
               id="DejaVuSans-64"
               d="m 2906,2969 v 1894 h 575 V 0 H 2906 V 525 Q 2725,213 2448,61 2172,-91 1784,-91 1150,-91 751,415 353,922 353,1747 q 0,825 398,1331 399,506 1033,506 388,0 664,-152 277,-151 458,-463 z M 947,1747 q 0,-634 261,-995 261,-361 717,-361 456,0 718,361 263,361 263,995 0,634 -263,995 -262,361 -718,361 -456,0 -717,-361 -261,-361 -261,-995 z"
               transform="scale(0.015625)" />
          </defs>
          <use
             xlink:href="#DejaVuSans-50"
             id="use91" />
          <use
             xlink:href="#DejaVuSans-64"
             x="60.302734"
             id="use92" />
          <use
             xlink:href="#DejaVuSans-69"
             x="123.7793"
             id="use93" />
        </g>
      </g>
    </g>
    <g
       id="ytick_5">
      <g
         id="line2d_9">
        <g
           id="g94">
          <use
             xlink:href="#m283d463f1d"
             x="55.192501"
             y="267.86526"
             style="stroke:#000000;stroke-width:0.8"
             id="use94" />
        </g>
      </g>
      <g
         id="text_10">
        <!-- Bun -->
        <g
           transform="matrix(0.12,0,0,-0.12,24.749375,272.42433)"
           id="g97">
          <defs
             id="defs94">
            <path
               id="DejaVuSans-42"
               d="M 1259,2228 V 519 h 1013 q 509,0 754,211 246,211 246,645 0,438 -246,645 -245,208 -754,208 z m 0,1919 V 2741 h 935 q 462,0 688,173 227,174 227,530 0,353 -227,528 -226,175 -688,175 z m -631,519 h 1613 q 722,0 1112,-300 391,-300 391,-853 0,-429 -200,-682 -200,-253 -588,-315 466,-100 724,-418 258,-317 258,-792 0,-625 -425,-966 Q 3088,0 2303,0 H 628 Z"
               transform="scale(0.015625)" />
            <path
               id="DejaVuSans-75"
               d="m 544,1381 v 2119 h 575 V 1403 q 0,-497 193,-746 194,-248 582,-248 465,0 735,297 271,297 271,810 v 1984 h 575 V 0 H 2900 V 538 Q 2691,219 2414,64 2138,-91 1772,-91 1169,-91 856,284 544,659 544,1381 Z m 1447,2203 z"
               transform="scale(0.015625)" />
          </defs>
          <use
             xlink:href="#DejaVuSans-42"
             id="use95" />
          <use
             xlink:href="#DejaVuSans-75"
             x="68.603516"
             id="use96" />
          <use
             xlink:href="#DejaVuSans-6e"
             x="131.98242"
             id="use97" />
        </g>
      </g>
    </g>
    <g
       id="ytick_6">
      <g
         id="line2d_10">
        <g
           id="g98">
          <use
             xlink:href="#m283d463f1d"
             x="55.192501"
             y="228.96001"
             style="stroke:#000000;stroke-width:0.8"
             id="use98" />
        </g>
      </g>
      <g
         id="text_11">
        <!-- Rob -->
        <g
           transform="matrix(0.12,0,0,-0.12,25.43375,233.51906)"
           id="g101">
          <defs
             id="defs98">
            <path
               id="DejaVuSans-52"
               d="m 2841,2188 q 203,-69 395,-294 192,-225 386,-619 L 4263,0 h -679 l -596,1197 q -232,469 -449,622 -217,153 -592,153 H 1259 V 0 H 628 v 4666 h 1425 q 800,0 1194,-335 394,-334 394,-1009 0,-441 -205,-732 -205,-290 -595,-402 z M 1259,4147 V 2491 h 794 q 456,0 689,211 233,211 233,620 0,409 -233,617 -233,208 -689,208 z"
               transform="scale(0.015625)" />
            <path
               id="DejaVuSans-62"
               d="m 3116,1747 q 0,634 -261,995 -261,361 -717,361 -457,0 -718,-361 -261,-361 -261,-995 0,-634 261,-995 261,-361 718,-361 456,0 717,361 261,361 261,995 z M 1159,2969 q 182,312 458,463 277,152 661,152 638,0 1036,-506 399,-506 399,-1331 Q 3713,922 3314,415 2916,-91 2278,-91 1894,-91 1617,61 1341,213 1159,525 V 0 H 581 v 4863 h 578 z"
               transform="scale(0.015625)" />
          </defs>
          <use
             xlink:href="#DejaVuSans-52"
             id="use99" />
          <use
             xlink:href="#DejaVuSans-6f"
             x="64.982422"
             id="use100" />
          <use
             xlink:href="#DejaVuSans-62"
             x="126.16406"
             id="use101" />
        </g>
      </g>
    </g>
    <g
       id="ytick_7">
      <g
         id="line2d_11">
        <g
           id="g102">
          <use
             xlink:href="#m283d463f1d"
             x="55.192501"
             y="190.05473"
             style="stroke:#000000;stroke-width:0.8"
             id="use102" />
        </g>
      </g>
      <g
         id="text_12">
        <!-- Bov -->
        <g
           transform="matrix(0.12,0,0,-0.12,25.514375,194.6138)"
           id="g105">
          <defs
             id="defs102">
            <path
               id="DejaVuSans-76"
               d="M 191,3500 H 800 L 1894,563 2988,3500 h 609 L 2284,0 h -781 z"
               transform="scale(0.015625)" />
          </defs>
          <use
             xlink:href="#DejaVuSans-42"
             id="use103" />
          <use
             xlink:href="#DejaVuSans-6f"
             x="68.603516"
             id="use104" />
          <use
             xlink:href="#DejaVuSans-76"
             x="129.78516"
             id="use105" />
        </g>
      </g>
    </g>
    <g
       id="ytick_8">
      <g
         id="line2d_12">
        <g
           id="g106">
          <use
             xlink:href="#m283d463f1d"
             x="55.192501"
             y="151.14948"
             style="stroke:#000000;stroke-width:0.8"
             id="use106" />
        </g>
      </g>
      <g
         id="text_13">
        <!-- Bth -->
        <g
           transform="matrix(0.12,0,0,-0.12,27.65,155.70854)"
           id="g109">
          <defs
             id="defs106">
            <path
               id="DejaVuSans-68"
               d="M 3513,2113 V 0 h -575 v 2094 q 0,497 -194,743 -194,247 -581,247 -466,0 -735,-297 -269,-296 -269,-809 V 0 H 581 v 4863 h 578 V 2956 q 207,316 486,472 280,156 646,156 603,0 912,-373 310,-373 310,-1098 z"
               transform="scale(0.015625)" />
          </defs>
          <use
             xlink:href="#DejaVuSans-42"
             id="use107" />
          <use
             xlink:href="#DejaVuSans-74"
             x="68.603516"
             id="use108" />
          <use
             xlink:href="#DejaVuSans-68"
             x="107.8125"
             id="use109" />
        </g>
      </g>
    </g>
    <g
       id="ytick_9">
      <g
         id="line2d_13">
        <g
           id="g110">
          <use
             xlink:href="#m283d463f1d"
             x="55.192501"
             y="112.24421"
             style="stroke:#000000;stroke-width:0.8"
             id="use110" />
        </g>
      </g>
      <g
         id="text_14">
        <!-- Bvu -->
        <g
           transform="matrix(0.12,0,0,-0.12,25.251875,116.80327)"
           id="g113">
          <use
             xlink:href="#DejaVuSans-42"
             id="use111" />
          <use
             xlink:href="#DejaVuSans-76"
             x="68.603516"
             id="use112" />
          <use
             xlink:href="#DejaVuSans-75"
             x="127.7832"
             id="use113" />
        </g>
      </g>
    </g>
    <g
       id="ytick_10">
      <g
         id="line2d_14">
        <g
           id="g114">
          <use
             xlink:href="#m283d463f1d"
             x="55.192501"
             y="73.338943"
             style="stroke:#000000;stroke-width:0.8"
             id="use114" />
        </g>
      </g>
      <g
         id="text_15">
        <!-- Bca -->
        <g
           transform="matrix(0.12,0,0,-0.12,26.0075,77.89801)"
           id="g117">
          <use
             xlink:href="#DejaVuSans-42"
             id="use115" />
          <use
             xlink:href="#DejaVuSans-63"
             x="68.603516"
             id="use116" />
          <use
             xlink:href="#DejaVuSans-61"
             x="123.58398"
             id="use117" />
        </g>
      </g>
    </g>
    <g
       id="ytick_11">
      <g
         id="line2d_15">
        <g
           id="g118">
          <use
             xlink:href="#m283d463f1d"
             x="55.192501"
             y="34.433685"
             style="stroke:#000000;stroke-width:0.8"
             id="use118" />
        </g>
      </g>
      <g
         id="text_16">
        <!-- Bce -->
        <g
           transform="matrix(0.12,0,0,-0.12,25.9775,38.992747)"
           id="g121">
          <use
             xlink:href="#DejaVuSans-42"
             id="use119" />
          <use
             xlink:href="#DejaVuSans-63"
             x="68.603516"
             id="use120" />
          <use
             xlink:href="#DejaVuSans-65"
             x="123.58398"
             id="use121" />
        </g>
      </g>
    </g>
    <g
       id="text_17">
      <!-- Species -->
      <g
         transform="matrix(0,-0.14,-0.14,0,17.837813,255.90234)"
         id="g128">
        <use
           xlink:href="#DejaVuSans-53"
           id="use122" />
        <use
           xlink:href="#DejaVuSans-70"
           x="63.476562"
           id="use123" />
        <use
           xlink:href="#DejaVuSans-65"
           x="126.95312"
           id="use124" />
        <use
           xlink:href="#DejaVuSans-63"
           x="188.47656"
           id="use125" />
        <use
           xlink:href="#DejaVuSans-69"
           x="243.45703"
           id="use126" />
        <use
           xlink:href="#DejaVuSans-65"
           x="271.24023"
           id="use127" />
        <use
           xlink:href="#DejaVuSans-73"
           x="332.76367"
           id="use128" />
      </g>
    </g>
  </g>
  <g
     id="patch_25"
     transform="translate(-7.2000005,-6.8)">
    <path
       d="M 55.1925,450.72 V 7.2"
       style="fill:none;stroke:#000000;stroke-width:0.8;stroke-linecap:square;stroke-linejoin:miter"
       id="path128" />
  </g>
  <g
     id="patch_26"
     transform="translate(-7.2000005,-6.8)">
    <path
       d="M 278.3925,450.72 V 7.2"
       style="fill:none;stroke:#000000;stroke-width:0.8;stroke-linecap:square;stroke-linejoin:miter"
       id="path129" />
  </g>
  <g
     id="patch_27"
     transform="translate(-7.2000005,-6.8)">
    <path
       d="m 55.1925,450.72 h 223.2"
       style="fill:none;stroke:#000000;stroke-width:0.8;stroke-linecap:square;stroke-linejoin:miter"
       id="path130" />
  </g>
  <g
     id="patch_28"
     transform="translate(-7.2000005,-6.8)">
    <path
       d="m 55.1925,7.2 h 223.2"
       style="fill:none;stroke:#000000;stroke-width:0.8;stroke-linecap:square;stroke-linejoin:miter"
       id="path131" />
  </g>
  <defs
     id="defs131">
    <clipPath
       id="pb151d88d07">
      <rect
         x="55.192501"
         y="7.1999998"
         width="223.2"
         height="443.51999"
         id="rect131" />
    </clipPath>
  </defs>
</svg>
