<?xml version="1.0" encoding="UTF-8" standalone="no"?>
<svg
   width="442.08pt"
   height="334.072781pt"
   viewBox="0 0 442.08 334.072781"
   version="1.1"
   id="svg152"
   sodipodi:docname="Stability.svg"
   inkscape:version="1.3 (1:1.3+202307231459+0e150ed6c4)"
   inkscape:export-filename="Stability.png"
   inkscape:export-xdpi="300"
   inkscape:export-ydpi="300"
   xmlns:inkscape="http://www.inkscape.org/namespaces/inkscape"
   xmlns:sodipodi="http://sodipodi.sourceforge.net/DTD/sodipodi-0.dtd"
   xmlns:xlink="http://www.w3.org/1999/xlink"
   xmlns="http://www.w3.org/2000/svg"
   xmlns:svg="http://www.w3.org/2000/svg"
   xmlns:rdf="http://www.w3.org/1999/02/22-rdf-syntax-ns#"
   xmlns:cc="http://creativecommons.org/ns#"
   xmlns:dc="http://purl.org/dc/elements/1.1/">
  <sodipodi:namedview
     id="namedview152"
     pagecolor="#ffffff"
     bordercolor="#999999"
     borderopacity="1"
     inkscape:showpageshadow="2"
     inkscape:pageopacity="0"
     inkscape:pagecheckerboard="0"
     inkscape:deskcolor="#d1d1d1"
     inkscape:document-units="pt"
     inkscape:zoom="1.8723465"
     inkscape:cx="294.55018"
     inkscape:cy="223.51632"
     inkscape:window-width="1848"
     inkscape:window-height="1016"
     inkscape:window-x="72"
     inkscape:window-y="27"
     inkscape:window-maximized="1"
     inkscape:current-layer="svg152" />
  <metadata
     id="metadata1">
    <rdf:RDF>
      <cc:Work>
        <dc:type
           rdf:resource="http://purl.org/dc/dcmitype/StillImage" />
        <dc:date>2023-08-02T17:06:00.319724</dc:date>
        <dc:format>image/svg+xml</dc:format>
        <dc:creator>
          <cc:Agent>
            <dc:title>Matplotlib v3.7.1, https://matplotlib.org/</dc:title>
          </cc:Agent>
        </dc:creator>
      </cc:Work>
    </rdf:RDF>
  </metadata>
  <defs
     id="defs1">
    <style
       type="text/css"
       id="style1">*{stroke-linejoin: round; stroke-linecap: butt}</style>
    <defs
       id="defs2">
      <path
         id="mdd8f7c63e5"
         d="m 0,-4.609772 -1.034958,3.185274 H -4.384154 L -1.674598,0.54411 -2.709556,3.729384 0,1.760776 2.709556,3.729384 1.674598,0.54411 4.384154,-1.424498 H 1.034958 Z"
         style="stroke:#6a3d9a" />
    </defs>
    <defs
       id="defs12">
      <path
         id="m8d62e4cefb"
         d="m 0,-4.609772 -1.034958,3.185274 H -4.384154 L -1.674598,0.54411 -2.709556,3.729384 0,1.760776 2.709556,3.729384 1.674598,0.54411 4.384154,-1.424498 H 1.034958 Z"
         style="stroke:#ff7f00" />
    </defs>
  </defs>
  <g
     clip-path="url(#pdade882d61)"
     id="g12">
    <use
       xlink:href="#mdd8f7c63e5"
       x="25.602409"
       y="157.65366"
       style="fill:#6a3d9a;stroke:#6a3d9a"
       id="use2" />
    <use
       xlink:href="#mdd8f7c63e5"
       x="87.097107"
       y="157.65366"
       style="fill:#6a3d9a;stroke:#6a3d9a"
       id="use3" />
    <use
       xlink:href="#mdd8f7c63e5"
       x="148.47768"
       y="157.65366"
       style="fill:#6a3d9a;stroke:#6a3d9a"
       id="use4" />
    <use
       xlink:href="#mdd8f7c63e5"
       x="170.89079"
       y="157.65366"
       style="fill:#6a3d9a;stroke:#6a3d9a"
       id="use5" />
    <use
       xlink:href="#mdd8f7c63e5"
       x="188.92216"
       y="157.65366"
       style="fill:#6a3d9a;stroke:#6a3d9a"
       id="use6" />
    <use
       xlink:href="#mdd8f7c63e5"
       x="220.49605"
       y="47.310268"
       style="fill:#6a3d9a;stroke:#6a3d9a"
       id="use7" />
    <use
       xlink:href="#mdd8f7c63e5"
       x="220.49605"
       y="267.99704"
       style="fill:#6a3d9a;stroke:#6a3d9a"
       id="use8" />
    <use
       xlink:href="#mdd8f7c63e5"
       x="233.46617"
       y="157.65366"
       style="fill:#6a3d9a;stroke:#6a3d9a"
       id="use9" />
    <use
       xlink:href="#mdd8f7c63e5"
       x="272.52216"
       y="92.477791"
       style="fill:#6a3d9a;stroke:#6a3d9a"
       id="use10" />
    <use
       xlink:href="#mdd8f7c63e5"
       x="272.52216"
       y="222.82951"
       style="fill:#6a3d9a;stroke:#6a3d9a"
       id="use11" />
    <use
       xlink:href="#mdd8f7c63e5"
       x="322.61432"
       y="157.65366"
       style="fill:#6a3d9a;stroke:#6a3d9a"
       id="use12" />
  </g>
  <g
     clip-path="url(#pdade882d61)"
     id="g23">
    <use
       xlink:href="#m8d62e4cefb"
       x="253.35715"
       y="157.65366"
       style="fill:#ff7f00;stroke:#ff7f00"
       id="use13" />
    <use
       xlink:href="#m8d62e4cefb"
       x="279.49365"
       y="157.65366"
       style="fill:#ff7f00;stroke:#ff7f00"
       id="use14" />
    <use
       xlink:href="#m8d62e4cefb"
       x="113.11391"
       y="157.65366"
       style="fill:#ff7f00;stroke:#ff7f00"
       id="use15" />
    <use
       xlink:href="#m8d62e4cefb"
       x="221.26306"
       y="36.019497"
       style="fill:#ff7f00;stroke:#ff7f00"
       id="use16" />
    <use
       xlink:href="#m8d62e4cefb"
       x="221.26306"
       y="279.28781"
       style="fill:#ff7f00;stroke:#ff7f00"
       id="use17" />
    <use
       xlink:href="#m8d62e4cefb"
       x="190.59911"
       y="157.65366"
       style="fill:#ff7f00;stroke:#ff7f00"
       id="use18" />
    <use
       xlink:href="#m8d62e4cefb"
       x="163.09294"
       y="157.65366"
       style="fill:#ff7f00;stroke:#ff7f00"
       id="use19" />
    <use
       xlink:href="#m8d62e4cefb"
       x="299.20752"
       y="157.65366"
       style="fill:#ff7f00;stroke:#ff7f00"
       id="use20" />
    <use
       xlink:href="#m8d62e4cefb"
       x="234.87949"
       y="157.65366"
       style="fill:#ff7f00;stroke:#ff7f00"
       id="use21" />
    <use
       xlink:href="#m8d62e4cefb"
       x="214.2881"
       y="157.65366"
       style="fill:#ff7f00;stroke:#ff7f00"
       id="use22" />
    <use
       xlink:href="#m8d62e4cefb"
       x="45.821857"
       y="157.65366"
       style="fill:#ff7f00;stroke:#ff7f00"
       id="use23" />
  </g>
  <g
     id="xtick_1"
     transform="translate(0,-133.5)">
    <g
       id="line2d_1">
      <defs
         id="defs23">
        <path
           id="m24a947d441"
           d="M 0,0 V 3.5"
           style="stroke:#000000;stroke-width:0.8" />
      </defs>
      <g
         id="g24">
        <use
           xlink:href="#m24a947d441"
           x="37.712669"
           y="290.70966"
           style="stroke:#000000;stroke-width:0.8"
           id="use24" />
      </g>
    </g>
    <g
       id="text_1">
      <!-- $\mathdefault{-10^{-6}}$ -->
      <g
         transform="matrix(0.12,0,0,-0.12,18.63267,306.82778)"
         id="g29">
        <defs
           id="defs24">
          <path
             id="DejaVuSans-2212"
             d="M 678,2272 H 4684 V 1741 H 678 Z"
             transform="scale(0.015625)" />
          <path
             id="DejaVuSans-31"
             d="M 794,531 H 1825 V 4091 L 703,3866 v 575 l 1116,225 h 631 V 531 H 3481 V 0 H 794 Z"
             transform="scale(0.015625)" />
          <path
             id="DejaVuSans-30"
             d="m 2034,4250 q -487,0 -733,-480 -245,-479 -245,-1442 0,-959 245,-1439 246,-480 733,-480 491,0 736,480 246,480 246,1439 0,963 -246,1442 -245,480 -736,480 z m 0,500 q 785,0 1199,-621 414,-620 414,-1801 0,-1178 -414,-1799 -414,-620 -1199,-620 -784,0 -1198,620 -414,621 -414,1799 0,1181 414,1801 414,621 1198,621 z"
             transform="scale(0.015625)" />
          <path
             id="DejaVuSans-36"
             d="m 2113,2584 q -425,0 -674,-291 -248,-290 -248,-796 0,-503 248,-796 249,-292 674,-292 425,0 673,292 248,293 248,796 0,506 -248,796 -248,291 -673,291 z m 1253,1979 v -575 q -238,112 -480,171 -242,60 -480,60 -625,0 -955,-422 -329,-422 -376,-1275 184,272 462,417 279,145 613,145 703,0 1111,-427 408,-426 408,-1160 0,-719 -425,-1154 -425,-434 -1131,-434 -810,0 -1238,620 -428,621 -428,1799 0,1106 525,1764 525,658 1409,658 238,0 480,-47 242,-47 505,-140 z"
             transform="scale(0.015625)" />
        </defs>
        <use
           xlink:href="#DejaVuSans-2212"
           transform="translate(0,0.765625)"
           id="use25" />
        <use
           xlink:href="#DejaVuSans-31"
           transform="translate(83.789062,0.765625)"
           id="use26" />
        <use
           xlink:href="#DejaVuSans-30"
           transform="translate(147.41211,0.765625)"
           id="use27" />
        <use
           xlink:href="#DejaVuSans-2212"
           transform="matrix(0.7,0,0,0.7,211.99219,39.046875)"
           id="use28" />
        <use
           xlink:href="#DejaVuSans-36"
           transform="matrix(0.7,0,0,0.7,270.64453,39.046875)"
           id="use29" />
      </g>
    </g>
  </g>
  <g
     id="xtick_2"
     transform="translate(0,-133.5)">
    <g
       id="line2d_2">
      <g
         id="g30">
        <use
           xlink:href="#m24a947d441"
           x="139.07356"
           y="290.70966"
           style="stroke:#000000;stroke-width:0.8"
           id="use30" />
      </g>
    </g>
    <g
       id="text_2">
      <!-- $\mathdefault{-10^{-7}}$ -->
      <g
         transform="matrix(0.12,0,0,-0.12,119.99357,306.82778)"
         id="g35">
        <defs
           id="defs30">
          <path
             id="DejaVuSans-37"
             d="M 525,4666 H 3525 V 4397 L 1831,0 H 1172 L 2766,4134 H 525 Z"
             transform="scale(0.015625)" />
        </defs>
        <use
           xlink:href="#DejaVuSans-2212"
           transform="translate(0,0.684375)"
           id="use31" />
        <use
           xlink:href="#DejaVuSans-31"
           transform="translate(83.789062,0.684375)"
           id="use32" />
        <use
           xlink:href="#DejaVuSans-30"
           transform="translate(147.41211,0.684375)"
           id="use33" />
        <use
           xlink:href="#DejaVuSans-2212"
           transform="matrix(0.7,0,0,0.7,211.99219,38.965625)"
           id="use34" />
        <use
           xlink:href="#DejaVuSans-37"
           transform="matrix(0.7,0,0,0.7,270.64453,38.965625)"
           id="use35" />
      </g>
    </g>
  </g>
  <g
     id="xtick_3"
     transform="translate(0,-133.5)">
    <g
       id="line2d_3">
      <g
         id="g36">
        <use
           xlink:href="#m24a947d441"
           x="240.43446"
           y="290.70966"
           style="stroke:#000000;stroke-width:0.8"
           id="use36" />
      </g>
    </g>
    <g
       id="text_3">
      <!-- $\mathdefault{-10^{-8}}$ -->
      <g
         transform="matrix(0.12,0,0,-0.12,221.35446,306.82778)"
         id="g41">
        <defs
           id="defs36">
          <path
             id="DejaVuSans-38"
             d="m 2034,2216 q -450,0 -708,-241 -257,-241 -257,-662 0,-422 257,-663 258,-241 708,-241 450,0 709,242 260,243 260,662 0,421 -258,662 -257,241 -711,241 z m -631,268 q -406,100 -633,378 -226,279 -226,679 0,559 398,884 399,325 1092,325 697,0 1094,-325 397,-325 397,-884 0,-400 -227,-679 -226,-278 -629,-378 456,-106 710,-416 255,-309 255,-755 Q 3634,634 3220,271 2806,-91 2034,-91 1263,-91 848,271 434,634 434,1313 q 0,446 256,755 257,310 713,416 z m -231,997 q 0,-362 226,-565 227,-203 636,-203 407,0 636,203 230,203 230,565 0,363 -230,566 -229,203 -636,203 -409,0 -636,-203 -226,-203 -226,-566 z"
             transform="scale(0.015625)" />
        </defs>
        <use
           xlink:href="#DejaVuSans-2212"
           transform="translate(0,0.765625)"
           id="use37" />
        <use
           xlink:href="#DejaVuSans-31"
           transform="translate(83.789062,0.765625)"
           id="use38" />
        <use
           xlink:href="#DejaVuSans-30"
           transform="translate(147.41211,0.765625)"
           id="use39" />
        <use
           xlink:href="#DejaVuSans-2212"
           transform="matrix(0.7,0,0,0.7,211.99219,39.046875)"
           id="use40" />
        <use
           xlink:href="#DejaVuSans-38"
           transform="matrix(0.7,0,0,0.7,270.64453,39.046875)"
           id="use41" />
      </g>
    </g>
  </g>
  <g
     id="xtick_4"
     transform="translate(0,-133.5)">
    <g
       id="line2d_4">
      <g
         id="g42">
        <use
           xlink:href="#m24a947d441"
           x="341.79535"
           y="290.70966"
           style="stroke:#000000;stroke-width:0.8"
           id="use42" />
      </g>
    </g>
    <g
       id="text_4">
      <!-- $\mathdefault{-10^{-9}}$ -->
      <g
         transform="matrix(0.12,0,0,-0.12,322.71536,306.82778)"
         id="g47">
        <defs
           id="defs42">
          <path
             id="DejaVuSans-39"
             d="m 703,97 v 575 q 238,-113 481,-172 244,-59 479,-59 625,0 954,420 330,420 377,1277 -181,-269 -460,-413 -278,-144 -615,-144 -700,0 -1108,423 -408,424 -408,1159 0,718 425,1152 425,435 1131,435 810,0 1236,-621 427,-620 427,-1801 Q 3622,1225 3098,567 2575,-91 1691,-91 1453,-91 1209,-44 966,3 703,97 Z m 1256,1978 q 425,0 673,290 249,291 249,798 0,503 -249,795 -248,292 -673,292 -425,0 -673,-292 -248,-292 -248,-795 0,-507 248,-798 248,-290 673,-290 z"
             transform="scale(0.015625)" />
        </defs>
        <use
           xlink:href="#DejaVuSans-2212"
           transform="translate(0,0.765625)"
           id="use43" />
        <use
           xlink:href="#DejaVuSans-31"
           transform="translate(83.789062,0.765625)"
           id="use44" />
        <use
           xlink:href="#DejaVuSans-30"
           transform="translate(147.41211,0.765625)"
           id="use45" />
        <use
           xlink:href="#DejaVuSans-2212"
           transform="matrix(0.7,0,0,0.7,211.99219,39.046875)"
           id="use46" />
        <use
           xlink:href="#DejaVuSans-39"
           transform="matrix(0.7,0,0,0.7,270.64453,39.046875)"
           id="use47" />
      </g>
    </g>
  </g>
  <g
     id="text_5">
    <!-- Real part -->
    <g
       transform="matrix(0.14,0,0,-0.14,154.08937,323.96122)"
       id="g56">
      <defs
         id="defs47">
        <path
           id="DejaVuSans-52"
           d="m 2841,2188 q 203,-69 395,-294 192,-225 386,-619 L 4263,0 h -679 l -596,1197 q -232,469 -449,622 -217,153 -592,153 H 1259 V 0 H 628 v 4666 h 1425 q 800,0 1194,-335 394,-334 394,-1009 0,-441 -205,-732 -205,-290 -595,-402 z M 1259,4147 V 2491 h 794 q 456,0 689,211 233,211 233,620 0,409 -233,617 -233,208 -689,208 z"
           transform="scale(0.015625)" />
        <path
           id="DejaVuSans-65"
           d="M 3597,1894 V 1613 H 953 q 38,-594 358,-905 320,-311 892,-311 331,0 642,81 311,81 618,244 V 178 Q 3153,47 2828,-22 2503,-91 2169,-91 1331,-91 842,396 353,884 353,1716 q 0,859 464,1363 464,505 1252,505 706,0 1117,-455 411,-454 411,-1235 z m -575,169 q -6,471 -264,752 -258,282 -683,282 -481,0 -770,-272 -289,-272 -333,-766 z"
           transform="scale(0.015625)" />
        <path
           id="DejaVuSans-61"
           d="m 2194,1759 q -697,0 -966,-159 -269,-159 -269,-544 0,-306 202,-486 202,-179 548,-179 479,0 768,339 289,339 289,901 v 128 z m 1147,238 V 0 H 2766 V 531 Q 2569,213 2275,61 1981,-91 1556,-91 q -537,0 -855,302 -317,302 -317,808 0,590 395,890 396,300 1180,300 h 807 v 57 q 0,397 -261,614 -261,217 -733,217 -300,0 -585,-72 -284,-72 -546,-216 v 532 q 315,122 612,182 297,61 578,61 760,0 1135,-394 375,-393 375,-1193 z"
           transform="scale(0.015625)" />
        <path
           id="DejaVuSans-6c"
           d="m 603,4863 h 575 V 0 H 603 Z"
           transform="scale(0.015625)" />
        <path
           id="DejaVuSans-20"
           transform="scale(0.015625)"
           d="" />
        <path
           id="DejaVuSans-70"
           d="M 1159,525 V -1331 H 581 v 4831 h 578 v -531 q 182,312 458,463 277,152 661,152 638,0 1036,-506 399,-506 399,-1331 0,-825 -399,-1332 -398,-506 -1036,-506 -384,0 -661,152 -276,152 -458,464 z m 1957,1222 q 0,634 -261,995 -261,361 -717,361 -457,0 -718,-361 -261,-361 -261,-995 0,-634 261,-995 261,-361 718,-361 456,0 717,361 261,361 261,995 z"
           transform="scale(0.015625)" />
        <path
           id="DejaVuSans-72"
           d="m 2631,2963 q -97,56 -211,82 -114,27 -251,27 -488,0 -749,-317 -261,-317 -261,-911 V 0 H 581 v 3500 h 578 v -544 q 182,319 472,473 291,155 707,155 59,0 131,-8 72,-7 159,-23 z"
           transform="scale(0.015625)" />
        <path
           id="DejaVuSans-74"
           d="M 1172,4494 V 3500 H 2356 V 3053 H 1172 V 1153 q 0,-428 117,-550 117,-122 477,-122 h 590 V 0 H 1766 Q 1100,0 847,248 594,497 594,1153 V 3053 H 172 v 447 h 422 v 994 z"
           transform="scale(0.015625)" />
      </defs>
      <use
         xlink:href="#DejaVuSans-52"
         id="use48" />
      <use
         xlink:href="#DejaVuSans-65"
         x="64.982422"
         id="use49" />
      <use
         xlink:href="#DejaVuSans-61"
         x="126.50586"
         id="use50" />
      <use
         xlink:href="#DejaVuSans-6c"
         x="187.78516"
         id="use51" />
      <use
         xlink:href="#DejaVuSans-20"
         x="215.56836"
         id="use52" />
      <use
         xlink:href="#DejaVuSans-70"
         x="247.35547"
         id="use53" />
      <use
         xlink:href="#DejaVuSans-61"
         x="310.83203"
         id="use54" />
      <use
         xlink:href="#DejaVuSans-72"
         x="372.11133"
         id="use55" />
      <use
         xlink:href="#DejaVuSans-74"
         x="413.22461"
         id="use56" />
    </g>
  </g>
  <g
     id="ytick_1">
    <g
       id="line2d_5">
      <defs
         id="defs56">
        <path
           id="m5992a6e17f"
           d="M 0,0 H 3.5"
           style="stroke:#000000;stroke-width:0.8" />
      </defs>
      <g
         id="g57">
        <use
           xlink:href="#m5992a6e17f"
           x="364.32001"
           y="278.97104"
           style="stroke:#000000;stroke-width:0.8"
           id="use57" />
      </g>
    </g>
    <g
       id="text_6">
      <!-- $\mathdefault{-10^{-8}}$ -->
      <g
         transform="matrix(0.12,0,0,-0.12,371.32,283.53009)"
         id="g62">
        <use
           xlink:href="#DejaVuSans-2212"
           transform="translate(0,0.765625)"
           id="use58" />
        <use
           xlink:href="#DejaVuSans-31"
           transform="translate(83.789062,0.765625)"
           id="use59" />
        <use
           xlink:href="#DejaVuSans-30"
           transform="translate(147.41211,0.765625)"
           id="use60" />
        <use
           xlink:href="#DejaVuSans-2212"
           transform="matrix(0.7,0,0,0.7,211.99219,39.046875)"
           id="use61" />
        <use
           xlink:href="#DejaVuSans-38"
           transform="matrix(0.7,0,0,0.7,270.64453,39.046875)"
           id="use62" />
      </g>
    </g>
  </g>
  <g
     id="ytick_2">
    <g
       id="line2d_6">
      <g
         id="g63">
        <use
           xlink:href="#m5992a6e17f"
           x="364.32001"
           y="239.97617"
           style="stroke:#000000;stroke-width:0.8"
           id="use63" />
      </g>
    </g>
    <g
       id="text_7">
      <!-- $\mathdefault{-10^{-9}}$ -->
      <g
         transform="matrix(0.12,0,0,-0.12,371.32,244.53522)"
         id="g68">
        <use
           xlink:href="#DejaVuSans-2212"
           transform="translate(0,0.765625)"
           id="use64" />
        <use
           xlink:href="#DejaVuSans-31"
           transform="translate(83.789062,0.765625)"
           id="use65" />
        <use
           xlink:href="#DejaVuSans-30"
           transform="translate(147.41211,0.765625)"
           id="use66" />
        <use
           xlink:href="#DejaVuSans-2212"
           transform="matrix(0.7,0,0,0.7,211.99219,39.046875)"
           id="use67" />
        <use
           xlink:href="#DejaVuSans-39"
           transform="matrix(0.7,0,0,0.7,270.64453,39.046875)"
           id="use68" />
      </g>
    </g>
  </g>
  <g
     id="ytick_3">
    <g
       id="line2d_7">
      <g
         id="g69">
        <use
           xlink:href="#m5992a6e17f"
           x="364.32001"
           y="200.98129"
           style="stroke:#000000;stroke-width:0.8"
           id="use69" />
      </g>
    </g>
    <g
       id="text_8">
      <!-- $\mathdefault{-10^{-10}}$ -->
      <g
         transform="matrix(0.12,0,0,-0.12,371.32,205.54035)"
         id="g75">
        <use
           xlink:href="#DejaVuSans-2212"
           transform="translate(0,0.765625)"
           id="use70" />
        <use
           xlink:href="#DejaVuSans-31"
           transform="translate(83.789062,0.765625)"
           id="use71" />
        <use
           xlink:href="#DejaVuSans-30"
           transform="translate(147.41211,0.765625)"
           id="use72" />
        <use
           xlink:href="#DejaVuSans-2212"
           transform="matrix(0.7,0,0,0.7,211.99219,39.046875)"
           id="use73" />
        <use
           xlink:href="#DejaVuSans-31"
           transform="matrix(0.7,0,0,0.7,270.64453,39.046875)"
           id="use74" />
        <use
           xlink:href="#DejaVuSans-30"
           transform="matrix(0.7,0,0,0.7,315.18066,39.046875)"
           id="use75" />
      </g>
    </g>
  </g>
  <g
     id="line2d_8">
    <g
       id="g76">
      <use
         xlink:href="#m5992a6e17f"
         x="364.32001"
         y="157.65366"
         style="stroke:#000000;stroke-width:0.8"
         id="use76" />
    </g>
  </g>
  <g
     id="text_9"
     transform="translate(-6,6)">
    <!-- $\mathdefault{0}$ -->
    <g
       transform="matrix(0.12,0,0,-0.12,371.32,162.21272)"
       id="g77">
      <use
         xlink:href="#DejaVuSans-30"
         transform="translate(0,0.78125)"
         id="use77" />
    </g>
  </g>
  <g
     id="ytick_5">
    <g
       id="line2d_9">
      <g
         id="g78">
        <use
           xlink:href="#m5992a6e17f"
           x="364.32001"
           y="114.32602"
           style="stroke:#000000;stroke-width:0.8"
           id="use78" />
      </g>
    </g>
    <g
       id="text_10">
      <!-- $\mathdefault{10^{-10}}$ -->
      <g
         transform="matrix(0.12,0,0,-0.12,371.32,118.88509)"
         id="g83">
        <use
           xlink:href="#DejaVuSans-31"
           transform="translate(0,0.765625)"
           id="use79" />
        <use
           xlink:href="#DejaVuSans-30"
           transform="translate(63.623047,0.765625)"
           id="use80" />
        <use
           xlink:href="#DejaVuSans-2212"
           transform="matrix(0.7,0,0,0.7,128.20312,39.046875)"
           id="use81" />
        <use
           xlink:href="#DejaVuSans-31"
           transform="matrix(0.7,0,0,0.7,186.85547,39.046875)"
           id="use82" />
        <use
           xlink:href="#DejaVuSans-30"
           transform="matrix(0.7,0,0,0.7,231.3916,39.046875)"
           id="use83" />
      </g>
    </g>
  </g>
  <g
     id="ytick_6">
    <g
       id="line2d_10">
      <g
         id="g84">
        <use
           xlink:href="#m5992a6e17f"
           x="364.32001"
           y="75.331154"
           style="stroke:#000000;stroke-width:0.8"
           id="use84" />
      </g>
    </g>
    <g
       id="text_11">
      <!-- $\mathdefault{10^{-9}}$ -->
      <g
         transform="matrix(0.12,0,0,-0.12,371.32,79.890215)"
         id="g88">
        <use
           xlink:href="#DejaVuSans-31"
           transform="translate(0,0.765625)"
           id="use85" />
        <use
           xlink:href="#DejaVuSans-30"
           transform="translate(63.623047,0.765625)"
           id="use86" />
        <use
           xlink:href="#DejaVuSans-2212"
           transform="matrix(0.7,0,0,0.7,128.20312,39.046875)"
           id="use87" />
        <use
           xlink:href="#DejaVuSans-39"
           transform="matrix(0.7,0,0,0.7,186.85547,39.046875)"
           id="use88" />
      </g>
    </g>
  </g>
  <g
     id="ytick_7">
    <g
       id="line2d_11">
      <g
         id="g89">
        <use
           xlink:href="#m5992a6e17f"
           x="364.32001"
           y="36.336281"
           style="stroke:#000000;stroke-width:0.8"
           id="use89" />
      </g>
    </g>
    <g
       id="text_12">
      <!-- $\mathdefault{10^{-8}}$ -->
      <g
         transform="matrix(0.12,0,0,-0.12,371.32,40.895344)"
         id="g93">
        <use
           xlink:href="#DejaVuSans-31"
           transform="translate(0,0.765625)"
           id="use90" />
        <use
           xlink:href="#DejaVuSans-30"
           transform="translate(63.623047,0.765625)"
           id="use91" />
        <use
           xlink:href="#DejaVuSans-2212"
           transform="matrix(0.7,0,0,0.7,128.20312,39.046875)"
           id="use92" />
        <use
           xlink:href="#DejaVuSans-38"
           transform="matrix(0.7,0,0,0.7,186.85547,39.046875)"
           id="use93" />
      </g>
    </g>
  </g>
  <g
     id="text_13">
    <!-- Imaginary part -->
    <g
       transform="matrix(0,0.14,0.14,0,424.24219,105.76506)"
       id="g107">
      <defs
         id="defs93">
        <path
           id="DejaVuSans-49"
           d="m 628,4666 h 631 V 0 H 628 Z"
           transform="scale(0.015625)" />
        <path
           id="DejaVuSans-6d"
           d="m 3328,2828 q 216,388 516,572 300,184 706,184 547,0 844,-383 297,-382 297,-1088 V 0 h -578 v 2094 q 0,503 -179,746 -178,244 -543,244 -447,0 -707,-297 -259,-296 -259,-809 V 0 h -578 v 2094 q 0,506 -178,748 -178,242 -550,242 -441,0 -701,-298 -259,-298 -259,-808 V 0 H 581 v 3500 h 578 v -544 q 197,322 472,475 275,153 653,153 382,0 649,-194 267,-193 395,-562 z"
           transform="scale(0.015625)" />
        <path
           id="DejaVuSans-67"
           d="m 2906,1791 q 0,625 -258,968 -257,344 -723,344 -462,0 -720,-344 -258,-343 -258,-968 0,-622 258,-966 258,-344 720,-344 466,0 723,344 258,344 258,966 z M 3481,434 q 0,-893 -397,-1329 -396,-436 -1215,-436 -303,0 -572,45 -269,45 -522,139 v 559 q 253,-137 500,-202 247,-66 503,-66 566,0 847,295 281,295 281,892 V 616 Q 2728,306 2450,153 2172,0 1784,0 1141,0 747,490 353,981 353,1791 q 0,812 394,1302 394,491 1037,491 388,0 666,-153 278,-153 456,-462 v 531 h 575 z"
           transform="scale(0.015625)" />
        <path
           id="DejaVuSans-69"
           d="m 603,3500 h 575 V 0 H 603 Z m 0,1363 h 575 V 4134 H 603 Z"
           transform="scale(0.015625)" />
        <path
           id="DejaVuSans-6e"
           d="M 3513,2113 V 0 h -575 v 2094 q 0,497 -194,743 -194,247 -581,247 -466,0 -735,-297 -269,-296 -269,-809 V 0 H 581 v 3500 h 578 v -544 q 207,316 486,472 280,156 646,156 603,0 912,-373 310,-373 310,-1098 z"
           transform="scale(0.015625)" />
        <path
           id="DejaVuSans-79"
           d="m 2059,-325 q -243,-625 -475,-815 -231,-191 -618,-191 H 506 v 481 h 338 q 237,0 368,113 132,112 291,531 L 1606,56 191,3500 H 800 L 1894,763 2988,3500 h 609 z"
           transform="scale(0.015625)" />
      </defs>
      <use
         xlink:href="#DejaVuSans-49"
         id="use94" />
      <use
         xlink:href="#DejaVuSans-6d"
         x="29.492188"
         id="use95" />
      <use
         xlink:href="#DejaVuSans-61"
         x="126.9043"
         id="use96" />
      <use
         xlink:href="#DejaVuSans-67"
         x="188.18359"
         id="use97" />
      <use
         xlink:href="#DejaVuSans-69"
         x="251.66016"
         id="use98" />
      <use
         xlink:href="#DejaVuSans-6e"
         x="279.44336"
         id="use99" />
      <use
         xlink:href="#DejaVuSans-61"
         x="342.82227"
         id="use100" />
      <use
         xlink:href="#DejaVuSans-72"
         x="404.10156"
         id="use101" />
      <use
         xlink:href="#DejaVuSans-79"
         x="445.21484"
         id="use102" />
      <use
         xlink:href="#DejaVuSans-20"
         x="504.39453"
         id="use103" />
      <use
         xlink:href="#DejaVuSans-70"
         x="536.18164"
         id="use104" />
      <use
         xlink:href="#DejaVuSans-61"
         x="599.6582"
         id="use105" />
      <use
         xlink:href="#DejaVuSans-72"
         x="660.9375"
         id="use106" />
      <use
         xlink:href="#DejaVuSans-74"
         x="702.05078"
         id="use107" />
    </g>
  </g>
  <path
     d="M 7.2,157.65366 H 364.32"
     clip-path="url(#pdade882d61)"
     style="fill:none;stroke:#000000;stroke-width:0.7;stroke-linecap:square"
     id="path107" />
  <path
     d="M 364.32,290.70966 V 24.597656"
     style="fill:none;stroke:#000000;stroke-width:0.8;stroke-linecap:square;stroke-linejoin:miter"
     id="path109" />
  <g
     transform="matrix(0.15,0,0,-0.15,55.179141,18.597656)"
     id="g144">
    <defs
       id="defs111">
      <path
         id="DejaVuSans-45"
         d="M 628,4666 H 3578 V 4134 H 1259 V 2753 H 3481 V 2222 H 1259 V 531 H 3634 V 0 H 628 Z"
         transform="scale(0.015625)" />
      <path
         id="DejaVuSans-76"
         d="M 191,3500 H 800 L 1894,563 2988,3500 h 609 L 2284,0 h -781 z"
         transform="scale(0.015625)" />
      <path
         id="DejaVuSans-75"
         d="m 544,1381 v 2119 h 575 V 1403 q 0,-497 193,-746 194,-248 582,-248 465,0 735,297 271,297 271,810 v 1984 h 575 V 0 H 2900 V 538 Q 2691,219 2414,64 2138,-91 1772,-91 1169,-91 856,284 544,659 544,1381 Z m 1447,2203 z"
         transform="scale(0.015625)" />
      <path
         id="DejaVuSans-73"
         d="m 2834,3397 v -544 q -243,125 -506,187 -262,63 -544,63 -428,0 -642,-131 -214,-131 -214,-394 0,-200 153,-314 153,-114 616,-217 l 197,-44 q 612,-131 870,-370 258,-239 258,-667 0,-488 -386,-773 Q 2250,-91 1575,-91 1294,-91 989,-36 684,19 347,128 v 594 q 319,-166 628,-249 309,-82 613,-82 406,0 624,139 219,139 219,392 0,234 -158,359 -157,125 -692,241 l -200,47 q -534,112 -772,345 -237,233 -237,639 0,494 350,762 350,269 994,269 318,0 599,-47 282,-46 519,-140 z"
         transform="scale(0.015625)" />
      <path
         id="DejaVuSans-6f"
         d="m 1959,3097 q -462,0 -731,-361 -269,-361 -269,-989 0,-628 267,-989 268,-361 733,-361 460,0 728,362 269,363 269,988 0,622 -269,986 -268,364 -728,364 z m 0,487 q 750,0 1178,-488 429,-487 429,-1349 Q 3566,888 3137,398 2709,-91 1959,-91 1206,-91 779,398 353,888 353,1747 q 0,862 426,1349 427,488 1180,488 z"
         transform="scale(0.015625)" />
      <path
         id="DejaVuSans-66"
         d="m 2375,4863 v -479 h -550 q -309,0 -430,-125 -120,-125 -120,-450 v -309 h 947 V 3053 H 1275 V 0 H 697 V 3053 H 147 v 447 h 550 v 244 q 0,584 272,851 272,268 862,268 z"
         transform="scale(0.015625)" />
      <path
         id="DejaVuSans-68"
         d="M 3513,2113 V 0 h -575 v 2094 q 0,497 -194,743 -194,247 -581,247 -466,0 -735,-297 -269,-296 -269,-809 V 0 H 581 v 4863 h 578 V 2956 q 207,316 486,472 280,156 646,156 603,0 912,-373 310,-373 310,-1098 z"
         transform="scale(0.015625)" />
      <path
         id="DejaVuSans-4a"
         d="m 628,4666 h 631 V 325 q 0,-844 -320,-1225 -320,-381 -1030,-381 h -240 v 531 h 197 q 418,0 590,235 172,234 172,840 z"
         transform="scale(0.015625)" />
      <path
         id="DejaVuSans-63"
         d="m 3122,3366 v -538 q -244,135 -489,202 -245,67 -495,67 -560,0 -870,-355 -309,-354 -309,-995 0,-641 309,-996 310,-354 870,-354 250,0 495,67 245,67 489,202 V 134 Q 2881,22 2623,-34 2366,-91 2075,-91 1284,-91 818,406 353,903 353,1747 q 0,856 470,1346 471,491 1290,491 265,0 518,-55 253,-54 491,-163 z"
         transform="scale(0.015625)" />
      <path
         id="DejaVuSans-62"
         d="m 3116,1747 q 0,634 -261,995 -261,361 -717,361 -457,0 -718,-361 -261,-361 -261,-995 0,-634 261,-995 261,-361 718,-361 456,0 717,361 261,361 261,995 z M 1159,2969 q 182,312 458,463 277,152 661,152 638,0 1036,-506 399,-506 399,-1331 Q 3713,922 3314,415 2916,-91 2278,-91 1894,-91 1617,61 1341,213 1159,525 V 0 H 581 v 4863 h 578 z"
         transform="scale(0.015625)" />
      <path
         id="DejaVuSans-78"
         d="M 3513,3500 2247,1797 3578,0 H 2900 L 1881,1375 863,0 H 184 L 1544,1831 300,3500 h 678 l 928,-1247 928,1247 z"
         transform="scale(0.015625)" />
    </defs>
    <use
       xlink:href="#DejaVuSans-45"
       id="use111" />
    <use
       xlink:href="#DejaVuSans-69"
       x="63.183594"
       id="use112" />
    <use
       xlink:href="#DejaVuSans-67"
       x="90.966797"
       id="use113" />
    <use
       xlink:href="#DejaVuSans-65"
       x="154.44336"
       id="use114" />
    <use
       xlink:href="#DejaVuSans-6e"
       x="215.9668"
       id="use115" />
    <use
       xlink:href="#DejaVuSans-76"
       x="279.3457"
       id="use116" />
    <use
       xlink:href="#DejaVuSans-61"
       x="338.52539"
       id="use117" />
    <use
       xlink:href="#DejaVuSans-6c"
       x="399.80469"
       id="use118" />
    <use
       xlink:href="#DejaVuSans-75"
       x="427.58789"
       id="use119" />
    <use
       xlink:href="#DejaVuSans-65"
       x="490.9668"
       id="use120" />
    <use
       xlink:href="#DejaVuSans-73"
       x="552.49023"
       id="use121" />
    <use
       xlink:href="#DejaVuSans-20"
       x="604.58984"
       id="use122" />
    <use
       xlink:href="#DejaVuSans-6f"
       x="636.37695"
       id="use123" />
    <use
       xlink:href="#DejaVuSans-66"
       x="697.55859"
       id="use124" />
    <use
       xlink:href="#DejaVuSans-20"
       x="732.76367"
       id="use125" />
    <use
       xlink:href="#DejaVuSans-74"
       x="764.55078"
       id="use126" />
    <use
       xlink:href="#DejaVuSans-68"
       x="803.75977"
       id="use127" />
    <use
       xlink:href="#DejaVuSans-65"
       x="867.13867"
       id="use128" />
    <use
       xlink:href="#DejaVuSans-20"
       x="928.66211"
       id="use129" />
    <use
       xlink:href="#DejaVuSans-4a"
       x="960.44922"
       id="use130" />
    <use
       xlink:href="#DejaVuSans-61"
       x="989.94141"
       id="use131" />
    <use
       xlink:href="#DejaVuSans-63"
       x="1051.2207"
       id="use132" />
    <use
       xlink:href="#DejaVuSans-6f"
       x="1106.2012"
       id="use133" />
    <use
       xlink:href="#DejaVuSans-62"
       x="1167.3828"
       id="use134" />
    <use
       xlink:href="#DejaVuSans-69"
       x="1230.8594"
       id="use135" />
    <use
       xlink:href="#DejaVuSans-61"
       x="1258.6426"
       id="use136" />
    <use
       xlink:href="#DejaVuSans-6e"
       x="1319.9219"
       id="use137" />
    <use
       xlink:href="#DejaVuSans-20"
       x="1383.3008"
       id="use138" />
    <use
       xlink:href="#DejaVuSans-6d"
       x="1415.0879"
       id="use139" />
    <use
       xlink:href="#DejaVuSans-61"
       x="1512.5"
       id="use140" />
    <use
       xlink:href="#DejaVuSans-74"
       x="1573.7793"
       id="use141" />
    <use
       xlink:href="#DejaVuSans-72"
       x="1612.9883"
       id="use142" />
    <use
       xlink:href="#DejaVuSans-69"
       x="1654.1016"
       id="use143" />
    <use
       xlink:href="#DejaVuSans-78"
       x="1681.8848"
       id="use144" />
  </g>
  <path
     d="m 15.6,69.425156 h 61.96125 q 2.4,0 2.4,-2.4 v -34.0275 q 0,-2.4 -2.4,-2.4 H 15.6 q -2.4,0 -2.4,2.4 v 34.0275 q 0,2.4 2.4,2.4 z"
     style="opacity:0.8;fill:#ffffff;stroke:#cccccc;stroke-linejoin:miter"
     id="path144" />
  <g
     id="PathCollection_3">
    <g
       id="g145">
      <use
         xlink:href="#mdd8f7c63e5"
         x="30"
         y="41.36578"
         style="fill:#6a3d9a;stroke:#6a3d9a"
         id="use145" />
    </g>
  </g>
  <g
     id="text_15">
    <!-- LF0 -->
    <g
       transform="matrix(0.12,0,0,-0.12,51.6,44.515781)"
       id="g148">
      <defs
         id="defs145">
        <path
           id="DejaVuSans-4c"
           d="m 628,4666 h 631 V 531 H 3531 V 0 H 628 Z"
           transform="scale(0.015625)" />
        <path
           id="DejaVuSans-46"
           d="M 628,4666 H 3309 V 4134 H 1259 V 2759 H 3109 V 2228 H 1259 V 0 H 628 Z"
           transform="scale(0.015625)" />
      </defs>
      <use
         xlink:href="#DejaVuSans-4c"
         id="use146" />
      <use
         xlink:href="#DejaVuSans-46"
         x="55.712891"
         id="use147" />
      <use
         xlink:href="#DejaVuSans-30"
         x="113.23242"
         id="use148" />
    </g>
  </g>
  <g
     id="PathCollection_4">
    <g
       id="g149">
      <use
         xlink:href="#m8d62e4cefb"
         x="30"
         y="58.97953"
         style="fill:#ff7f00;stroke:#ff7f00"
         id="use149" />
    </g>
  </g>
  <g
     id="text_16">
    <!-- HF0 -->
    <g
       transform="matrix(0.12,0,0,-0.12,51.6,62.129531)"
       id="g152">
      <defs
         id="defs149">
        <path
           id="DejaVuSans-48"
           d="m 628,4666 h 631 V 2753 h 2294 v 1913 h 631 V 0 H 3553 V 2222 H 1259 V 0 H 628 Z"
           transform="scale(0.015625)" />
      </defs>
      <use
         xlink:href="#DejaVuSans-48"
         id="use150" />
      <use
         xlink:href="#DejaVuSans-46"
         x="75.195312"
         id="use151" />
      <use
         xlink:href="#DejaVuSans-30"
         x="132.71484"
         id="use152" />
    </g>
  </g>
  <defs
     id="defs152">
    <clipPath
       id="pdade882d61">
      <rect
         x="7.2"
         y="24.597656"
         width="357.12"
         height="266.112"
         id="rect152" />
    </clipPath>
  </defs>
</svg>
